STARTFONT 2.1
COMMENT ========================================================== 
COMMENT                Wen Quan Yi Bitmap Song 
COMMENT ----------------------------------------------------------
COMMENT Summary:
COMMENT 
COMMENT     Developer: The WenQuanYi Project
COMMENT     Webpage  : http://wqy.sourceforge.net/en/
COMMENT     Font Name: WenQuanYi Bitmap Song
COMMENT     Version  : 0.6 (half-teal)
COMMENT     Release  : 2
COMMENT     Date     : 2005/8/8
COMMENT     Copyright: 2004,2005, The WenQuanYi Project Board of Trustees
COMMENT     License  : GPL
COMMENT 
COMMENT           May the Font be with you, forever!
COMMENT ----------------------------------------------------------
COMMENT The bitmap font in this package includes complete CJK Unified 
COMMENT Ideographics (U4E00~U9FA5) glyphs at four different sizes 
COMMENT (9pt-12X12 pixel, 10pt-13X13 pixel, 11pt-15X15 pixel,
COMMENT and 12pt-16X16pt) and two weights (medium and bold). 
COMMENT This font can be used for displaying Chinese on various 
COMMENT computer operating systems, especially on all distributions 
COMMENT of Linux. Using bitmap Chinese font can overcome the 
COMMENT blurring problem for many True-Type Chinese font due to 
COMMENT anti-aliasing and insufficiency in hinting methods for 
COMMENT Chinese characters.
COMMENT ----------------------------------------------------------
COMMENT Project start date          2004/10/26
COMMENT GBK char complete date      2005/4/10
COMMENT Sourceforge registration    2005/1/7
COMMENT CJK char. total             20902
COMMENT Total glyphs from firefly   15832X3
COMMENT Total glyphs from Redflag   20902(12pt)
COMMENT New glyphs number           15210
COMMENT Improved glyph number       > 35,000
COMMENT Group number(101 char each) 207
COMMENT Online editing group        53
COMMENT Offline editing group       154
COMMENT Webspace provider           sitaphi.com,Dartmouth CSSA,sourceforge
COMMENT 
COMMENT New wiki page number        3663+34

STARTCHAR .notdef
ENCODING 0
SWIDTH 600 0
DWIDTH 7 0
BBX 6 10 0 0
BITMAP
FC
84
84
84
84
84
84
84
84
FC
ENDCHAR
STARTCHAR nounicode-3-1-c
ENCODING 12
SWIDTH 333 0
DWIDTH 6 0
BBX 1 1 0 0
BITMAP
00
ENDCHAR
STARTCHAR nounicode-3-1-d
ENCODING 13
SWIDTH 333 0
DWIDTH 4 0
BBX 1 1 3 -1
BITMAP
00
ENDCHAR
STARTCHAR space
ENCODING 32
SWIDTH 333 0
DWIDTH 4 0
BBX 1 1 0 0
BITMAP
00
ENDCHAR
STARTCHAR exclam
ENCODING 33
SWIDTH 500 0
DWIDTH 6 0
BBX 1 10 2 0
BITMAP
80
80
80
80
80
80
80
00
80
80
ENDCHAR
STARTCHAR quotedbl
ENCODING 34
SWIDTH 500 0
DWIDTH 6 0
BBX 4 3 1 7
BITMAP
90
90
90
ENDCHAR
STARTCHAR numbersign
ENCODING 35
SWIDTH 500 0
DWIDTH 6 0
BBX 6 10 0 0
BITMAP
48
48
FC
48
48
48
FC
48
48
48
ENDCHAR
STARTCHAR dollar
ENCODING 36
SWIDTH 500 0
DWIDTH 6 0
BBX 5 10 0 -1
BITMAP
20
70
A8
A0
60
30
28
A8
70
20
ENDCHAR
STARTCHAR percent
ENCODING 37
SWIDTH 500 0
DWIDTH 6 0
BBX 6 8 0 0
BITMAP
48
A8
B0
50
28
34
54
48
ENDCHAR
STARTCHAR ampersand
ENCODING 38
SWIDTH 500 0
DWIDTH 6 0
BBX 5 8 0 0
BITMAP
20
50
50
20
68
90
90
68
ENDCHAR
STARTCHAR quotesingle
ENCODING 39
SWIDTH 416 0
DWIDTH 5 0
BBX 1 3 2 7
BITMAP
80
80
80
ENDCHAR
STARTCHAR parenleft
ENCODING 40
SWIDTH 500 0
DWIDTH 6 0
BBX 3 11 1 -1
BITMAP
20
40
40
80
80
80
80
80
40
40
20
ENDCHAR
STARTCHAR parenright
ENCODING 41
SWIDTH 500 0
DWIDTH 6 0
BBX 3 11 1 -1
BITMAP
80
40
40
20
20
20
20
20
40
40
80
ENDCHAR
STARTCHAR asterisk
ENCODING 42
SWIDTH 500 0
DWIDTH 6 0
BBX 5 7 0 0
BITMAP
20
A8
70
F8
70
A8
20
ENDCHAR
STARTCHAR plus
ENCODING 43
SWIDTH 666 0
DWIDTH 8 0
BBX 7 7 0 0
BITMAP
10
10
10
FE
10
10
10
ENDCHAR
STARTCHAR comma
ENCODING 44
SWIDTH 500 0
DWIDTH 6 0
BBX 2 3 2 0
BITMAP
C0
40
80
ENDCHAR
STARTCHAR hyphen
ENCODING 45
SWIDTH 500 0
DWIDTH 6 0
BBX 5 1 0 4
BITMAP
F8
ENDCHAR
STARTCHAR period
ENCODING 46
SWIDTH 416 0
DWIDTH 5 0
BBX 1 2 2 0
BITMAP
80
80
ENDCHAR
STARTCHAR slash
ENCODING 47
SWIDTH 500 0
DWIDTH 6 0
BBX 5 10 0 0
BITMAP
08
08
10
10
20
20
40
40
80
80
ENDCHAR
STARTCHAR zero
ENCODING 48
SWIDTH 636 0
DWIDTH 6 0
BBX 5 8 0 0
BITMAP
70
88
88
88
88
88
88
70
ENDCHAR
STARTCHAR one
ENCODING 49
SWIDTH 636 0
DWIDTH 6 0
BBX 5 8 0 0
BITMAP
E0
20
20
20
20
20
20
F8
ENDCHAR
STARTCHAR two
ENCODING 50
SWIDTH 636 0
DWIDTH 6 0
BBX 5 8 0 0
BITMAP
70
88
08
08
10
20
40
F8
ENDCHAR
STARTCHAR three
ENCODING 51
SWIDTH 636 0
DWIDTH 6 0
BBX 5 8 0 0
BITMAP
F0
08
08
70
08
08
08
F0
ENDCHAR
STARTCHAR four
ENCODING 52
SWIDTH 636 0
DWIDTH 6 0
BBX 5 8 0 0
BITMAP
30
50
50
90
90
F8
10
10
ENDCHAR
STARTCHAR five
ENCODING 53
SWIDTH 636 0
DWIDTH 6 0
BBX 5 8 0 0
BITMAP
F0
80
80
F0
08
08
08
F0
ENDCHAR
STARTCHAR six
ENCODING 54
SWIDTH 636 0
DWIDTH 6 0
BBX 5 8 0 0
BITMAP
70
80
80
F0
88
88
88
70
ENDCHAR
STARTCHAR seven
ENCODING 55
SWIDTH 636 0
DWIDTH 6 0
BBX 5 8 0 0
BITMAP
F8
08
08
10
10
20
20
20
ENDCHAR
STARTCHAR eight
ENCODING 56
SWIDTH 636 0
DWIDTH 6 0
BBX 5 8 0 0
BITMAP
70
88
88
70
88
88
88
70
ENDCHAR
STARTCHAR nine
ENCODING 57
SWIDTH 636 0
DWIDTH 6 0
BBX 5 8 0 0
BITMAP
70
88
88
88
78
08
88
70
ENDCHAR
STARTCHAR colon
ENCODING 58
SWIDTH 500 0
DWIDTH 6 0
BBX 2 7 2 1
BITMAP
C0
C0
00
00
00
C0
C0
ENDCHAR
STARTCHAR semicolon
ENCODING 59
SWIDTH 500 0
DWIDTH 6 0
BBX 2 8 2 0
BITMAP
C0
C0
00
00
00
C0
40
80
ENDCHAR
STARTCHAR less
ENCODING 60
SWIDTH 500 0
DWIDTH 6 0
BBX 5 9 0 0
BITMAP
08
10
20
40
80
40
20
10
08
ENDCHAR
STARTCHAR equal
ENCODING 61
SWIDTH 500 0
DWIDTH 6 0
BBX 5 3 0 3
BITMAP
F8
00
F8
ENDCHAR
STARTCHAR greater
ENCODING 62
SWIDTH 500 0
DWIDTH 6 0
BBX 5 9 0 0
BITMAP
80
40
20
10
08
10
20
40
80
ENDCHAR
STARTCHAR question
ENCODING 63
SWIDTH 500 0
DWIDTH 6 0
BBX 5 10 0 0
BITMAP
70
88
88
08
30
20
20
00
20
20
ENDCHAR
STARTCHAR at
ENCODING 64
SWIDTH 666 0
DWIDTH 8 0
BBX 7 11 0 -1
BITMAP
7C
82
82
BA
AA
AA
AA
AA
96
82
7C
ENDCHAR
STARTCHAR A
ENCODING 65
SWIDTH 684 0
DWIDTH 8 0
BBX 7 8 0 0
BITMAP
10
10
28
28
44
7C
82
82
ENDCHAR
STARTCHAR B
ENCODING 66
SWIDTH 686 0
DWIDTH 7 0
BBX 6 8 0 0
BITMAP
F8
84
84
F8
84
84
84
F8
ENDCHAR
STARTCHAR C
ENCODING 67
SWIDTH 666 0
DWIDTH 7 0
BBX 6 8 0 0
BITMAP
7C
80
80
80
80
80
80
7C
ENDCHAR
STARTCHAR D
ENCODING 68
SWIDTH 750 0
DWIDTH 8 0
BBX 7 8 0 0
BITMAP
F8
84
82
82
82
82
84
F8
ENDCHAR
STARTCHAR E
ENCODING 69
SWIDTH 583 0
DWIDTH 6 0
BBX 5 8 0 0
BITMAP
F8
80
80
F8
80
80
80
F8
ENDCHAR
STARTCHAR F
ENCODING 70
SWIDTH 583 0
DWIDTH 6 0
BBX 5 8 0 0
BITMAP
F8
80
80
F0
80
80
80
80
ENDCHAR
STARTCHAR G
ENCODING 71
SWIDTH 666 0
DWIDTH 7 0
BBX 6 8 0 0
BITMAP
7C
80
80
80
8C
84
84
7C
ENDCHAR
STARTCHAR H
ENCODING 72
SWIDTH 583 0
DWIDTH 7 0
BBX 6 8 0 0
BITMAP
84
84
84
FC
84
84
84
84
ENDCHAR
STARTCHAR I
ENCODING 73
SWIDTH 166 0
DWIDTH 2 0
BBX 1 8 0 0
BITMAP
80
80
80
80
80
80
80
80
ENDCHAR
STARTCHAR J
ENCODING 74
SWIDTH 294 0
DWIDTH 4 0
BBX 4 10 0 -2
BITMAP
20
20
20
20
20
20
20
20
20
C0
ENDCHAR
STARTCHAR K
ENCODING 75
SWIDTH 500 0
DWIDTH 6 0
BBX 5 8 0 0
BITMAP
88
90
A0
C0
C0
A0
90
88
ENDCHAR
STARTCHAR L
ENCODING 76
SWIDTH 557 0
DWIDTH 6 0
BBX 5 8 0 0
BITMAP
80
80
80
80
80
80
80
F8
ENDCHAR
STARTCHAR M
ENCODING 77
SWIDTH 666 0
DWIDTH 8 0
BBX 7 8 0 0
BITMAP
C6
C6
AA
AA
92
92
82
82
ENDCHAR
STARTCHAR N
ENCODING 78
SWIDTH 583 0
DWIDTH 7 0
BBX 6 8 0 0
BITMAP
C4
C4
A4
A4
94
94
8C
8C
ENDCHAR
STARTCHAR O
ENCODING 79
SWIDTH 666 0
DWIDTH 8 0
BBX 7 8 0 0
BITMAP
38
44
82
82
82
82
44
38
ENDCHAR
STARTCHAR P
ENCODING 80
SWIDTH 500 0
DWIDTH 6 0
BBX 5 8 0 0
BITMAP
F0
88
88
88
F0
80
80
80
ENDCHAR
STARTCHAR Q
ENCODING 81
SWIDTH 666 0
DWIDTH 8 0
BBX 7 9 0 -1
BITMAP
38
44
82
82
82
82
44
38
04
ENDCHAR
STARTCHAR R
ENCODING 82
SWIDTH 500 0
DWIDTH 6 0
BBX 5 8 0 0
BITMAP
F0
88
88
88
F0
88
88
88
ENDCHAR
STARTCHAR S
ENCODING 83
SWIDTH 500 0
DWIDTH 6 0
BBX 5 8 0 0
BITMAP
78
80
80
70
08
08
08
F0
ENDCHAR
STARTCHAR T
ENCODING 84
SWIDTH 610 0
DWIDTH 7 0
BBX 7 8 -1 0
BITMAP
FE
10
10
10
10
10
10
10
ENDCHAR
STARTCHAR U
ENCODING 85
SWIDTH 583 0
DWIDTH 7 0
BBX 6 8 0 0
BITMAP
84
84
84
84
84
84
84
78
ENDCHAR
STARTCHAR V
ENCODING 86
SWIDTH 666 0
DWIDTH 8 0
BBX 7 8 0 0
BITMAP
82
82
44
44
28
28
10
10
ENDCHAR
STARTCHAR W
ENCODING 87
SWIDTH 833 0
DWIDTH 10 0
BBX 9 8 0 0
BITMAP
8880
8880
8880
5500
5500
5500
2200
2200
ENDCHAR
STARTCHAR X
ENCODING 88
SWIDTH 583 0
DWIDTH 7 0
BBX 6 8 0 0
BITMAP
84
84
48
30
48
84
84
84
ENDCHAR
STARTCHAR Y
ENCODING 89
SWIDTH 666 0
DWIDTH 8 0
BBX 7 8 0 0
BITMAP
82
44
28
10
10
10
10
10
ENDCHAR
STARTCHAR Z
ENCODING 90
SWIDTH 666 0
DWIDTH 8 0
BBX 7 8 0 0
BITMAP
FE
04
08
10
20
40
80
FE
ENDCHAR
STARTCHAR bracketleft
ENCODING 91
SWIDTH 500 0
DWIDTH 6 0
BBX 3 11 2 -1
BITMAP
E0
80
80
80
80
80
80
80
80
80
E0
ENDCHAR
STARTCHAR backslash
ENCODING 92
SWIDTH 500 0
DWIDTH 6 0
BBX 5 10 0 -1
BITMAP
80
80
40
40
20
20
10
10
08
08
ENDCHAR
STARTCHAR bracketright
ENCODING 93
SWIDTH 500 0
DWIDTH 6 0
BBX 3 11 1 -1
BITMAP
E0
20
20
20
20
20
20
20
20
20
E0
ENDCHAR
STARTCHAR asciicircum
ENCODING 94
SWIDTH 500 0
DWIDTH 6 0
BBX 5 3 0 6
BITMAP
20
50
88
ENDCHAR
STARTCHAR underscore
ENCODING 95
SWIDTH 500 0
DWIDTH 6 0
BBX 5 1 0 -1
BITMAP
F8
ENDCHAR
STARTCHAR grave
ENCODING 96
SWIDTH 500 0
DWIDTH 6 0
BBX 3 3 1 7
BITMAP
C0
40
20
ENDCHAR
STARTCHAR a
ENCODING 97
SWIDTH 500 0
DWIDTH 6 0
BBX 5 6 0 0
BITMAP
70
08
78
88
88
78
ENDCHAR
STARTCHAR b
ENCODING 98
SWIDTH 500 0
DWIDTH 6 0
BBX 5 8 0 0
BITMAP
80
80
F0
88
88
88
88
F0
ENDCHAR
STARTCHAR c
ENCODING 99
SWIDTH 416 0
DWIDTH 5 0
BBX 4 6 0 0
BITMAP
70
80
80
80
80
70
ENDCHAR
STARTCHAR d
ENCODING 100
SWIDTH 500 0
DWIDTH 6 0
BBX 5 8 0 0
BITMAP
08
08
78
88
88
88
88
78
ENDCHAR
STARTCHAR e
ENCODING 101
SWIDTH 500 0
DWIDTH 6 0
BBX 5 6 0 0
BITMAP
70
88
F8
80
80
78
ENDCHAR
STARTCHAR f
ENCODING 102
SWIDTH 416 0
DWIDTH 5 0
BBX 4 8 0 0
BITMAP
70
40
F0
40
40
40
40
40
ENDCHAR
STARTCHAR g
ENCODING 103
SWIDTH 500 0
DWIDTH 6 0
BBX 5 8 0 -2
BITMAP
78
88
88
88
88
78
08
F0
ENDCHAR
STARTCHAR h
ENCODING 104
SWIDTH 500 0
DWIDTH 6 0
BBX 5 8 0 0
BITMAP
80
80
F0
88
88
88
88
88
ENDCHAR
STARTCHAR i
ENCODING 105
SWIDTH 166 0
DWIDTH 2 0
BBX 1 8 0 0
BITMAP
80
00
80
80
80
80
80
80
ENDCHAR
STARTCHAR j
ENCODING 106
SWIDTH 277 0
DWIDTH 3 0
BBX 2 10 0 -2
BITMAP
40
00
40
40
40
40
40
40
40
C0
ENDCHAR
STARTCHAR k
ENCODING 107
SWIDTH 416 0
DWIDTH 5 0
BBX 4 8 0 0
BITMAP
80
80
90
A0
C0
C0
A0
90
ENDCHAR
STARTCHAR l
ENCODING 108
SWIDTH 166 0
DWIDTH 2 0
BBX 1 8 0 0
BITMAP
80
80
80
80
80
80
80
80
ENDCHAR
STARTCHAR m
ENCODING 109
SWIDTH 833 0
DWIDTH 10 0
BBX 9 6 0 0
BITMAP
F700
8880
8880
8880
8880
8880
ENDCHAR
STARTCHAR n
ENCODING 110
SWIDTH 500 0
DWIDTH 6 0
BBX 5 6 0 0
BITMAP
F0
88
88
88
88
88
ENDCHAR
STARTCHAR o
ENCODING 111
SWIDTH 500 0
DWIDTH 6 0
BBX 5 6 0 0
BITMAP
70
88
88
88
88
70
ENDCHAR
STARTCHAR p
ENCODING 112
SWIDTH 500 0
DWIDTH 6 0
BBX 5 8 0 -2
BITMAP
F0
88
88
88
88
F0
80
80
ENDCHAR
STARTCHAR q
ENCODING 113
SWIDTH 500 0
DWIDTH 6 0
BBX 5 8 0 -2
BITMAP
78
88
88
88
88
78
08
08
ENDCHAR
STARTCHAR r
ENCODING 114
SWIDTH 333 0
DWIDTH 4 0
BBX 3 6 0 0
BITMAP
E0
80
80
80
80
80
ENDCHAR
STARTCHAR s
ENCODING 115
SWIDTH 520 0
DWIDTH 6 0
BBX 5 6 0 0
BITMAP
70
88
60
10
88
70
ENDCHAR
STARTCHAR t
ENCODING 116
SWIDTH 416 0
DWIDTH 5 0
BBX 4 8 0 0
BITMAP
40
40
F0
40
40
40
40
70
ENDCHAR
STARTCHAR u
ENCODING 117
SWIDTH 500 0
DWIDTH 6 0
BBX 5 6 0 0
BITMAP
88
88
88
88
88
78
ENDCHAR
STARTCHAR v
ENCODING 118
SWIDTH 500 0
DWIDTH 6 0
BBX 5 6 0 0
BITMAP
88
88
50
50
20
20
ENDCHAR
STARTCHAR w
ENCODING 119
SWIDTH 666 0
DWIDTH 8 0
BBX 7 6 0 0
BITMAP
92
92
AA
AA
44
44
ENDCHAR
STARTCHAR x
ENCODING 120
SWIDTH 500 0
DWIDTH 6 0
BBX 5 6 0 0
BITMAP
88
50
20
50
88
88
ENDCHAR
STARTCHAR y
ENCODING 121
SWIDTH 500 0
DWIDTH 6 0
BBX 5 8 0 -2
BITMAP
88
88
50
50
20
20
40
40
ENDCHAR
STARTCHAR z
ENCODING 122
SWIDTH 500 0
DWIDTH 6 0
BBX 5 6 0 0
BITMAP
F8
08
10
20
40
F8
ENDCHAR
STARTCHAR braceleft
ENCODING 123
SWIDTH 500 0
DWIDTH 6 0
BBX 3 11 1 -1
BITMAP
20
40
40
40
40
80
40
40
40
40
20
ENDCHAR
STARTCHAR bar
ENCODING 124
SWIDTH 416 0
DWIDTH 5 0
BBX 1 11 2 -1
BITMAP
80
80
80
80
80
80
80
80
80
80
80
ENDCHAR
STARTCHAR braceright
ENCODING 125
SWIDTH 500 0
DWIDTH 6 0
BBX 3 11 1 -1
BITMAP
80
40
40
40
40
20
40
40
40
40
80
ENDCHAR
STARTCHAR asciitilde
ENCODING 126
SWIDTH 500 0
DWIDTH 6 0
BBX 5 2 0 4
BITMAP
68
90
ENDCHAR
STARTCHAR nounicode-3-1-80
ENCODING 128
SWIDTH 500 0
DWIDTH 6 0
BBX 5 9 0 0
BITMAP
30
48
40
B0
40
F0
40
48
30
ENDCHAR
STARTCHAR nonbreakingspace
ENCODING 160
SWIDTH 636 0
DWIDTH 7 0
BBX 1 1 0 0
BITMAP
00
ENDCHAR
STARTCHAR exclamdown
ENCODING 161
SWIDTH 500 0
DWIDTH 6 0
BBX 1 9 2 -1
BITMAP
80
80
00
80
80
80
80
80
80
ENDCHAR
STARTCHAR cent
ENCODING 162
SWIDTH 500 0
DWIDTH 6 0
BBX 5 9 0 -1
BITMAP
20
70
A8
A0
A0
A0
A8
70
20
ENDCHAR
STARTCHAR sterling
ENCODING 163
SWIDTH 500 0
DWIDTH 6 0
BBX 5 9 0 -1
BITMAP
30
48
48
40
F0
20
A0
C8
70
ENDCHAR
STARTCHAR currency
ENCODING 164
SWIDTH 500 0
DWIDTH 6 0
BBX 5 5 0 1
BITMAP
F8
88
88
88
F8
ENDCHAR
STARTCHAR yen
ENCODING 165
SWIDTH 500 0
DWIDTH 6 0
BBX 5 9 0 -1
BITMAP
88
50
20
F8
20
F8
20
20
20
ENDCHAR
STARTCHAR brokenbar
ENCODING 166
SWIDTH 500 0
DWIDTH 6 0
BBX 1 10 3 -1
BITMAP
80
80
80
80
00
00
80
80
80
80
ENDCHAR
STARTCHAR section
ENCODING 167
SWIDTH 500 0
DWIDTH 6 0
BBX 4 11 1 -1
BITMAP
60
90
90
40
A0
90
90
60
10
90
60
ENDCHAR
STARTCHAR dieresis
ENCODING 168
SWIDTH 500 0
DWIDTH 6 0
BBX 3 1 1 6
BITMAP
A0
ENDCHAR
STARTCHAR copyright
ENCODING 169
SWIDTH 500 0
DWIDTH 6 0
BBX 6 9 0 1
BITMAP
78
84
94
AC
A4
AC
94
84
78
ENDCHAR
STARTCHAR ordfeminine
ENCODING 170
SWIDTH 500 0
DWIDTH 6 0
BBX 4 6 1 3
BITMAP
C0
A0
60
A0
F0
E0
ENDCHAR
STARTCHAR guillemotleft
ENCODING 171
SWIDTH 500 0
DWIDTH 6 0
BBX 5 5 0 1
BITMAP
28
50
A0
50
28
ENDCHAR
STARTCHAR logicalnot
ENCODING 172
SWIDTH 500 0
DWIDTH 6 0
BBX 5 3 0 1
BITMAP
F8
08
08
ENDCHAR
STARTCHAR softhyphen
ENCODING 173
SWIDTH 500 0
DWIDTH 6 0
BBX 3 1 1 3
BITMAP
E0
ENDCHAR
STARTCHAR registered
ENCODING 174
SWIDTH 500 0
DWIDTH 6 0
BBX 6 10 0 0
BITMAP
78
84
BC
A4
BC
B4
AC
AC
84
78
ENDCHAR
STARTCHAR macron
ENCODING 175
SWIDTH 500 0
DWIDTH 6 0
BBX 6 2 0 9
BITMAP
FC
F8
ENDCHAR
STARTCHAR degree
ENCODING 176
SWIDTH 500 0
DWIDTH 6 0
BBX 3 4 1 5
BITMAP
40
A0
A0
40
ENDCHAR
STARTCHAR plusminus
ENCODING 177
SWIDTH 500 0
DWIDTH 6 0
BBX 5 7 0 0
BITMAP
20
20
F8
20
20
00
F8
ENDCHAR
STARTCHAR U_00B2
ENCODING 178
SWIDTH 500 0
DWIDTH 6 0
BBX 3 6 1 3
BITMAP
E0
20
60
80
80
E0
ENDCHAR
STARTCHAR U_00B3
ENCODING 179
SWIDTH 500 0
DWIDTH 6 0
BBX 3 7 1 2
BITMAP
C0
20
20
C0
20
20
C0
ENDCHAR
STARTCHAR acute
ENCODING 180
SWIDTH 500 0
DWIDTH 6 0
BBX 2 2 2 5
BITMAP
40
80
ENDCHAR
STARTCHAR mu
ENCODING 181
SWIDTH 500 0
DWIDTH 6 0
BBX 6 7 0 -1
BITMAP
24
24
28
48
4C
70
80
ENDCHAR
STARTCHAR paragraph
ENCODING 182
SWIDTH 500 0
DWIDTH 6 0
BBX 5 9 0 -1
BITMAP
78
E8
E8
E8
68
28
28
28
28
ENDCHAR
STARTCHAR periodcentered
ENCODING 183
SWIDTH 500 0
DWIDTH 6 0
BBX 1 1 2 3
BITMAP
80
ENDCHAR
STARTCHAR cedilla
ENCODING 184
SWIDTH 500 0
DWIDTH 6 0
BBX 2 2 2 -1
BITMAP
40
C0
ENDCHAR
STARTCHAR U_00B9
ENCODING 185
SWIDTH 500 0
DWIDTH 6 0
BBX 2 6 2 3
BITMAP
40
C0
40
40
40
40
ENDCHAR
STARTCHAR ordmasculine
ENCODING 186
SWIDTH 500 0
DWIDTH 6 0
BBX 4 6 1 2
BITMAP
60
90
90
60
00
F0
ENDCHAR
STARTCHAR guillemotright
ENCODING 187
SWIDTH 500 0
DWIDTH 6 0
BBX 5 5 0 1
BITMAP
A0
50
28
50
A0
ENDCHAR
STARTCHAR onequarter
ENCODING 188
SWIDTH 500 0
DWIDTH 6 0
BBX 5 9 0 -1
BITMAP
40
C0
48
50
28
58
A8
38
08
ENDCHAR
STARTCHAR onehalf
ENCODING 189
SWIDTH 500 0
DWIDTH 6 0
BBX 6 9 0 -1
BITMAP
80
88
90
A0
FC
54
48
90
1C
ENDCHAR
STARTCHAR threequarters
ENCODING 190
SWIDTH 500 0
DWIDTH 6 0
BBX 6 10 0 -1
BITMAP
64
A4
48
28
B0
58
28
5C
48
0C
ENDCHAR
STARTCHAR questiondown
ENCODING 191
SWIDTH 500 0
DWIDTH 6 0
BBX 4 10 1 -1
BITMAP
20
00
20
20
40
40
80
90
90
60
ENDCHAR
STARTCHAR multiply
ENCODING 215
SWIDTH 1000 0
DWIDTH 12 0
BBX 9 9 2 1
BITMAP
8080
4100
2200
1400
0800
1400
2200
4100
8080
ENDCHAR
STARTCHAR agrave
ENCODING 224
SWIDTH 1000 0
DWIDTH 12 0
BBX 6 10 3 0
BITMAP
40
30
00
68
98
88
88
88
98
6C
ENDCHAR
STARTCHAR aacute
ENCODING 225
SWIDTH 1000 0
DWIDTH 12 0
BBX 6 10 3 0
BITMAP
10
60
00
68
98
88
88
88
98
6C
ENDCHAR
STARTCHAR egrave
ENCODING 232
SWIDTH 1000 0
DWIDTH 12 0
BBX 6 10 3 0
BITMAP
20
10
00
30
48
84
FC
80
44
38
ENDCHAR
STARTCHAR eacute
ENCODING 233
SWIDTH 1000 0
DWIDTH 12 0
BBX 6 10 3 0
BITMAP
08
10
00
30
48
84
FC
80
44
38
ENDCHAR
STARTCHAR ecircumflex
ENCODING 234
SWIDTH 1000 0
DWIDTH 12 0
BBX 6 10 3 0
BITMAP
30
48
00
30
48
84
FC
80
44
38
ENDCHAR
STARTCHAR igrave
ENCODING 236
SWIDTH 1000 0
DWIDTH 12 0
BBX 2 10 5 0
BITMAP
80
40
00
40
40
40
40
40
40
40
ENDCHAR
STARTCHAR iacute
ENCODING 237
SWIDTH 1000 0
DWIDTH 12 0
BBX 2 10 5 0
BITMAP
40
80
00
40
40
40
40
40
40
40
ENDCHAR
STARTCHAR ograve
ENCODING 242
SWIDTH 1000 0
DWIDTH 12 0
BBX 6 10 3 0
BITMAP
40
30
00
78
84
84
84
84
84
78
ENDCHAR
STARTCHAR oacute
ENCODING 243
SWIDTH 1000 0
DWIDTH 12 0
BBX 6 10 3 0
BITMAP
10
60
00
78
84
84
84
84
84
78
ENDCHAR
STARTCHAR divide
ENCODING 247
SWIDTH 1000 0
DWIDTH 12 0
BBX 8 7 2 1
BITMAP
18
18
00
FF
00
18
18
ENDCHAR
STARTCHAR ugrave
ENCODING 249
SWIDTH 1000 0
DWIDTH 12 0
BBX 6 10 4 0
BITMAP
40
20
00
88
88
88
88
88
88
7C
ENDCHAR
STARTCHAR uacute
ENCODING 250
SWIDTH 1000 0
DWIDTH 12 0
BBX 6 10 4 0
BITMAP
20
40
00
88
88
88
88
88
98
6C
ENDCHAR
STARTCHAR udieresis
ENCODING 252
SWIDTH 1000 0
DWIDTH 12 0
BBX 6 9 4 0
BITMAP
88
00
88
88
88
88
88
98
6C
ENDCHAR
STARTCHAR amacron
ENCODING 257
SWIDTH 1000 0
DWIDTH 12 0
BBX 7 10 3 0
BITMAP
7C
00
00
74
8C
84
84
84
8C
76
ENDCHAR
STARTCHAR emacron
ENCODING 275
SWIDTH 1000 0
DWIDTH 12 0
BBX 6 10 3 0
BITMAP
7C
00
00
30
48
84
FC
80
44
38
ENDCHAR
STARTCHAR ecaron
ENCODING 283
SWIDTH 1000 0
DWIDTH 12 0
BBX 6 10 3 0
BITMAP
28
10
00
30
48
84
FC
80
44
38
ENDCHAR
STARTCHAR imacron
ENCODING 299
SWIDTH 1000 0
DWIDTH 12 0
BBX 4 10 4 0
BITMAP
F0
00
00
20
60
20
20
20
20
70
ENDCHAR
STARTCHAR nacute
ENCODING 324
SWIDTH 1000 0
DWIDTH 12 0
BBX 1 1 11 -1
BITMAP
00
ENDCHAR
STARTCHAR ncaron
ENCODING 328
SWIDTH 1000 0
DWIDTH 12 0
BBX 1 1 11 -1
BITMAP
00
ENDCHAR
STARTCHAR omacron
ENCODING 333
SWIDTH 1000 0
DWIDTH 12 0
BBX 6 10 3 0
BITMAP
78
00
00
78
84
84
84
84
84
78
ENDCHAR
STARTCHAR umacron
ENCODING 363
SWIDTH 1000 0
DWIDTH 12 0
BBX 6 10 4 0
BITMAP
F8
00
00
88
88
88
88
88
98
6C
ENDCHAR
STARTCHAR U_01CE
ENCODING 462
SWIDTH 1000 0
DWIDTH 12 0
BBX 6 10 3 0
BITMAP
50
20
00
68
98
88
88
88
98
6C
ENDCHAR
STARTCHAR U_01D0
ENCODING 464
SWIDTH 1000 0
DWIDTH 12 0
BBX 3 10 5 0
BITMAP
A0
40
00
40
C0
40
40
40
40
E0
ENDCHAR
STARTCHAR U_01D2
ENCODING 466
SWIDTH 1000 0
DWIDTH 12 0
BBX 6 10 3 0
BITMAP
28
10
00
78
84
84
84
84
84
78
ENDCHAR
STARTCHAR U_01D4
ENCODING 468
SWIDTH 1000 0
DWIDTH 12 0
BBX 7 10 3 0
BITMAP
28
10
00
44
CC
44
44
44
4C
36
ENDCHAR
STARTCHAR U_01D6
ENCODING 470
SWIDTH 1000 0
DWIDTH 12 0
BBX 7 10 3 0
BITMAP
7C
00
44
00
CC
44
44
44
4C
36
ENDCHAR
STARTCHAR U_01D8
ENCODING 472
SWIDTH 1000 0
DWIDTH 12 0
BBX 7 10 3 0
BITMAP
08
10
44
00
CC
44
44
44
4C
36
ENDCHAR
STARTCHAR U_01DA
ENCODING 474
SWIDTH 1000 0
DWIDTH 12 0
BBX 7 10 3 0
BITMAP
28
10
44
00
CC
44
44
44
4C
36
ENDCHAR
STARTCHAR U_01DC
ENCODING 476
SWIDTH 1000 0
DWIDTH 12 0
BBX 7 10 3 0
BITMAP
20
10
44
00
CC
44
44
44
4C
36
ENDCHAR
STARTCHAR U_0251
ENCODING 593
SWIDTH 1000 0
DWIDTH 12 0
BBX 1 1 11 -1
BITMAP
00
ENDCHAR
STARTCHAR U_0261
ENCODING 609
SWIDTH 1000 0
DWIDTH 12 0
BBX 1 1 11 -1
BITMAP
00
ENDCHAR
STARTCHAR caron
ENCODING 711
SWIDTH 1000 0
DWIDTH 12 0
BBX 6 5 3 3
BITMAP
84
48
50
30
20
ENDCHAR
STARTCHAR U_02C9
ENCODING 713
SWIDTH 1000 0
DWIDTH 12 0
BBX 5 1 4 7
BITMAP
F8
ENDCHAR
STARTCHAR U_02CA
ENCODING 714
SWIDTH 1000 0
DWIDTH 12 0
BBX 4 4 4 4
BITMAP
10
20
60
C0
ENDCHAR
STARTCHAR U_02CB
ENCODING 715
SWIDTH 1000 0
DWIDTH 12 0
BBX 5 4 3 3
BITMAP
C0
20
10
08
ENDCHAR
STARTCHAR U_02CD
ENCODING 717
SWIDTH 1000 0
DWIDTH 12 0
BBX 12 1 0 -1
BITMAP
FFF0
ENDCHAR
STARTCHAR dotaccent
ENCODING 729
SWIDTH 1000 0
DWIDTH 12 0
BBX 4 4 4 4
BITMAP
60
F0
F0
60
ENDCHAR
STARTCHAR Alpha
ENCODING 913
SWIDTH 1000 0
DWIDTH 12 0
BBX 9 10 1 0
BITMAP
0800
0800
1400
1400
2200
2200
3E00
4100
4100
E380
ENDCHAR
STARTCHAR Beta
ENCODING 914
SWIDTH 1000 0
DWIDTH 12 0
BBX 7 10 2 0
BITMAP
F8
44
42
44
78
44
42
42
44
F8
ENDCHAR
STARTCHAR Gamma
ENCODING 915
SWIDTH 1000 0
DWIDTH 12 0
BBX 7 10 3 0
BITMAP
FC
44
42
40
40
40
40
40
40
E0
ENDCHAR
STARTCHAR U_0394
ENCODING 916
SWIDTH 1000 0
DWIDTH 12 0
BBX 9 10 1 0
BITMAP
0800
0800
0800
1400
1400
2200
2200
4100
4100
FF80
ENDCHAR
STARTCHAR Epsilon
ENCODING 917
SWIDTH 1000 0
DWIDTH 12 0
BBX 8 10 2 0
BITMAP
FF
41
41
48
78
48
40
41
41
FF
ENDCHAR
STARTCHAR Zeta
ENCODING 918
SWIDTH 1000 0
DWIDTH 12 0
BBX 7 10 2 0
BITMAP
7E
42
42
04
08
10
20
40
82
FE
ENDCHAR
STARTCHAR Eta
ENCODING 919
SWIDTH 1000 0
DWIDTH 12 0
BBX 9 10 1 0
BITMAP
E380
4100
4100
4100
7F00
4100
4100
4100
4100
E380
ENDCHAR
STARTCHAR Theta
ENCODING 920
SWIDTH 1000 0
DWIDTH 12 0
BBX 9 10 1 0
BITMAP
1C00
2200
4100
A280
BE80
A280
8080
4100
2200
1C00
ENDCHAR
STARTCHAR Iota
ENCODING 921
SWIDTH 1000 0
DWIDTH 12 0
BBX 3 10 4 0
BITMAP
E0
40
40
40
40
40
40
40
40
E0
ENDCHAR
STARTCHAR Kappa
ENCODING 922
SWIDTH 1000 0
DWIDTH 12 0
BBX 8 10 2 0
BITMAP
EE
44
48
50
60
50
48
44
42
E7
ENDCHAR
STARTCHAR Lambda
ENCODING 923
SWIDTH 1000 0
DWIDTH 12 0
BBX 9 10 1 0
BITMAP
0800
0800
1400
1400
2200
2200
2200
4100
4100
E380
ENDCHAR
STARTCHAR Mu
ENCODING 924
SWIDTH 1000 0
DWIDTH 12 0
BBX 11 10 0 0
BITMAP
C060
4040
60C0
60C0
5140
5140
4A40
4A40
4440
E4E0
ENDCHAR
STARTCHAR Nu
ENCODING 925
SWIDTH 1000 0
DWIDTH 12 0
BBX 8 10 2 0
BITMAP
C7
62
52
52
4A
4A
46
46
42
E2
ENDCHAR
STARTCHAR Xi
ENCODING 926
SWIDTH 1000 0
DWIDTH 12 0
BBX 8 10 2 0
BITMAP
FF
81
00
42
7E
42
00
00
81
FF
ENDCHAR
STARTCHAR Omicron
ENCODING 927
SWIDTH 1000 0
DWIDTH 12 0
BBX 9 10 1 0
BITMAP
1C00
2200
4100
8080
8080
8080
8080
4100
2200
1C00
ENDCHAR
STARTCHAR Pi
ENCODING 928
SWIDTH 1000 0
DWIDTH 12 0
BBX 9 10 1 0
BITMAP
FF80
4100
4100
4100
4100
4100
4100
4100
4100
E380
ENDCHAR
STARTCHAR Rho
ENCODING 929
SWIDTH 1000 0
DWIDTH 12 0
BBX 7 10 2 0
BITMAP
F8
44
42
42
44
78
40
40
40
E0
ENDCHAR
STARTCHAR Sigma
ENCODING 931
SWIDTH 1000 0
DWIDTH 12 0
BBX 9 10 1 0
BITMAP
FE00
4200
2100
1000
0800
0800
1000
2080
4080
FF00
ENDCHAR
STARTCHAR Tau
ENCODING 932
SWIDTH 1000 0
DWIDTH 12 0
BBX 9 10 1 0
BITMAP
FF80
8880
8880
0800
0800
0800
0800
0800
0800
1C00
ENDCHAR
STARTCHAR Upsilon
ENCODING 933
SWIDTH 1000 0
DWIDTH 12 0
BBX 9 10 1 0
BITMAP
7700
8880
8880
0800
0800
0800
0800
0800
0800
1C00
ENDCHAR
STARTCHAR Phi
ENCODING 934
SWIDTH 1000 0
DWIDTH 12 0
BBX 7 10 2 0
BITMAP
38
10
7C
92
92
92
7C
10
10
38
ENDCHAR
STARTCHAR Chi
ENCODING 935
SWIDTH 1000 0
DWIDTH 12 0
BBX 9 10 1 0
BITMAP
E380
4100
2200
1400
0800
0800
1400
2200
4100
E380
ENDCHAR
STARTCHAR Psi
ENCODING 936
SWIDTH 1000 0
DWIDTH 12 0
BBX 11 10 0 0
BITMAP
0E00
4440
A4A0
2480
2480
1500
0E00
0400
0400
0E00
ENDCHAR
STARTCHAR U_03A9
ENCODING 937
SWIDTH 1000 0
DWIDTH 12 0
BBX 9 10 1 0
BITMAP
1C00
2200
4100
4100
4100
4100
2200
9480
9480
F780
ENDCHAR
STARTCHAR alpha
ENCODING 945
SWIDTH 1000 0
DWIDTH 12 0
BBX 7 7 2 0
BITMAP
32
4A
8C
88
90
98
66
ENDCHAR
STARTCHAR beta
ENCODING 946
SWIDTH 1000 0
DWIDTH 12 0
BBX 8 10 1 0
BITMAP
06
09
09
12
14
22
22
64
58
80
ENDCHAR
STARTCHAR gamma
ENCODING 947
SWIDTH 1000 0
DWIDTH 12 0
BBX 8 8 2 0
BITMAP
63
94
08
10
10
20
20
40
ENDCHAR
STARTCHAR delta
ENCODING 948
SWIDTH 1000 0
DWIDTH 12 0
BBX 7 10 2 0
BITMAP
18
26
10
08
18
24
44
84
88
70
ENDCHAR
STARTCHAR epsilon
ENCODING 949
SWIDTH 1000 0
DWIDTH 12 0
BBX 6 8 2 0
BITMAP
38
44
40
30
40
84
88
70
ENDCHAR
STARTCHAR zeta
ENCODING 950
SWIDTH 1000 0
DWIDTH 12 0
BBX 7 10 2 0
BITMAP
26
1C
10
20
40
40
40
30
88
70
ENDCHAR
STARTCHAR eta
ENCODING 951
SWIDTH 1000 0
DWIDTH 12 0
BBX 7 8 2 0
BITMAP
4C
B2
22
44
44
88
08
08
ENDCHAR
STARTCHAR theta
ENCODING 952
SWIDTH 1000 0
DWIDTH 12 0
BBX 7 10 2 0
BITMAP
0C
12
22
42
7E
84
84
88
90
60
ENDCHAR
STARTCHAR iota
ENCODING 953
SWIDTH 1000 0
DWIDTH 12 0
BBX 6 8 3 0
BITMAP
10
20
40
40
80
84
98
60
ENDCHAR
STARTCHAR kappa
ENCODING 954
SWIDTH 1000 0
DWIDTH 12 0
BBX 8 8 1 0
BITMAP
21
12
14
38
28
49
49
86
ENDCHAR
STARTCHAR lambda
ENCODING 955
SWIDTH 1000 0
DWIDTH 12 0
BBX 8 9 2 0
BITMAP
30
08
08
08
18
28
44
84
83
ENDCHAR
STARTCHAR U_03BC
ENCODING 956
SWIDTH 1000 0
DWIDTH 12 0
BBX 9 9 1 0
BITMAP
1100
1100
2100
2200
4200
6600
5980
8000
8000
ENDCHAR
STARTCHAR nu
ENCODING 957
SWIDTH 1000 0
DWIDTH 12 0
BBX 7 7 2 0
BITMAP
42
22
24
44
48
50
E0
ENDCHAR
STARTCHAR xi
ENCODING 958
SWIDTH 1000 0
DWIDTH 12 0
BBX 6 10 3 0
BITMAP
1C
20
40
30
40
80
70
08
88
70
ENDCHAR
STARTCHAR omicron
ENCODING 959
SWIDTH 1000 0
DWIDTH 12 0
BBX 6 7 2 0
BITMAP
38
44
84
84
84
88
70
ENDCHAR
STARTCHAR pi
ENCODING 960
SWIDTH 1000 0
DWIDTH 12 0
BBX 9 8 1 0
BITMAP
0080
3F00
5200
1400
2400
2800
4900
8600
ENDCHAR
STARTCHAR rho
ENCODING 961
SWIDTH 1000 0
DWIDTH 12 0
BBX 7 9 2 0
BITMAP
1C
22
42
42
64
58
80
80
80
ENDCHAR
STARTCHAR sigma
ENCODING 963
SWIDTH 1000 0
DWIDTH 12 0
BBX 8 8 2 0
BITMAP
01
1E
68
84
84
84
48
30
ENDCHAR
STARTCHAR tau
ENCODING 964
SWIDTH 1000 0
DWIDTH 12 0
BBX 7 9 2 0
BITMAP
02
7C
90
10
20
20
40
48
30
ENDCHAR
STARTCHAR upsilon
ENCODING 965
SWIDTH 1000 0
DWIDTH 12 0
BBX 8 7 1 0
BITMAP
42
A1
21
22
42
4C
30
ENDCHAR
STARTCHAR phi
ENCODING 966
SWIDTH 1000 0
DWIDTH 12 0
BBX 8 10 2 0
BITMAP
04
08
3C
4A
89
91
92
7C
20
20
ENDCHAR
STARTCHAR chi
ENCODING 967
SWIDTH 1000 0
DWIDTH 12 0
BBX 7 9 2 0
BITMAP
02
42
A4
98
10
30
50
8A
84
ENDCHAR
STARTCHAR psi
ENCODING 968
SWIDTH 1000 0
DWIDTH 12 0
BBX 8 10 2 0
BITMAP
04
8A
49
49
91
92
7C
20
20
20
ENDCHAR
STARTCHAR omega
ENCODING 969
SWIDTH 1000 0
DWIDTH 12 0
BBX 9 7 1 0
BITMAP
2100
4080
4080
8880
8880
9900
6600
ENDCHAR
STARTCHAR afii10023
ENCODING 1025
SWIDTH 1000 0
DWIDTH 12 0
BBX 7 11 2 -1
BITMAP
44
00
FE
42
40
48
78
48
40
42
FE
ENDCHAR
STARTCHAR afii10017
ENCODING 1040
SWIDTH 1000 0
DWIDTH 12 0
BBX 9 10 1 0
BITMAP
0800
0800
1400
1400
2200
2200
3E00
4100
4100
E380
ENDCHAR
STARTCHAR afii10018
ENCODING 1041
SWIDTH 1000 0
DWIDTH 12 0
BBX 7 10 2 0
BITMAP
FE
42
40
40
78
44
42
42
44
F8
ENDCHAR
STARTCHAR afii10019
ENCODING 1042
SWIDTH 1000 0
DWIDTH 12 0
BBX 7 10 2 0
BITMAP
F8
44
42
44
78
44
42
42
44
F8
ENDCHAR
STARTCHAR afii10020
ENCODING 1043
SWIDTH 1000 0
DWIDTH 12 0
BBX 7 10 2 0
BITMAP
FC
44
42
40
40
40
40
40
40
E0
ENDCHAR
STARTCHAR afii10021
ENCODING 1044
SWIDTH 1000 0
DWIDTH 12 0
BBX 9 10 1 0
BITMAP
3F80
1200
1200
1200
1200
1200
2200
4200
FF80
8080
ENDCHAR
STARTCHAR afii10022
ENCODING 1045
SWIDTH 1000 0
DWIDTH 12 0
BBX 8 10 2 0
BITMAP
FE
41
40
44
7C
44
40
41
41
FE
ENDCHAR
STARTCHAR afii10024
ENCODING 1046
SWIDTH 1000 0
DWIDTH 12 0
BBX 9 10 1 0
BITMAP
9C80
4900
4900
2A00
1C00
2A00
4A00
4900
4900
DD80
ENDCHAR
STARTCHAR afii10025
ENCODING 1047
SWIDTH 1000 0
DWIDTH 12 0
BBX 7 10 2 0
BITMAP
58
64
44
04
18
04
02
82
C4
B8
ENDCHAR
STARTCHAR afii10026
ENCODING 1048
SWIDTH 1000 0
DWIDTH 12 0
BBX 8 10 2 0
BITMAP
E3
46
4A
4A
52
52
62
62
42
E7
ENDCHAR
STARTCHAR afii10027
ENCODING 1049
SWIDTH 1000 0
DWIDTH 12 0
BBX 8 10 2 0
BITMAP
24
18
E7
4A
4A
52
62
62
42
E7
ENDCHAR
STARTCHAR afii10028
ENCODING 1050
SWIDTH 1000 0
DWIDTH 12 0
BBX 8 10 2 0
BITMAP
E2
45
48
50
60
50
48
44
45
E2
ENDCHAR
STARTCHAR afii10029
ENCODING 1051
SWIDTH 1000 0
DWIDTH 12 0
BBX 9 10 1 0
BITMAP
3F80
0900
0900
0900
0900
0900
1100
1100
A100
4380
ENDCHAR
STARTCHAR afii10030
ENCODING 1052
SWIDTH 1000 0
DWIDTH 12 0
BBX 11 10 0 0
BITMAP
C060
60C0
60C0
5140
5140
4A40
4A40
4440
4440
E0E0
ENDCHAR
STARTCHAR afii10031
ENCODING 1053
SWIDTH 1000 0
DWIDTH 12 0
BBX 9 10 1 0
BITMAP
E380
4100
4100
4100
7F00
4100
4100
4100
4100
E380
ENDCHAR
STARTCHAR afii10032
ENCODING 1054
SWIDTH 1000 0
DWIDTH 12 0
BBX 9 10 1 0
BITMAP
1C00
2200
4100
8080
8080
8080
8080
4100
2200
1C00
ENDCHAR
STARTCHAR afii10033
ENCODING 1055
SWIDTH 1000 0
DWIDTH 12 0
BBX 8 10 2 0
BITMAP
FF
42
42
42
42
42
42
42
42
E7
ENDCHAR
STARTCHAR afii10034
ENCODING 1056
SWIDTH 1000 0
DWIDTH 12 0
BBX 7 10 2 0
BITMAP
F8
44
42
42
44
78
40
40
40
E0
ENDCHAR
STARTCHAR afii10035
ENCODING 1057
SWIDTH 1000 0
DWIDTH 12 0
BBX 8 10 2 0
BITMAP
1D
23
41
80
80
80
80
41
22
1C
ENDCHAR
STARTCHAR afii10036
ENCODING 1058
SWIDTH 1000 0
DWIDTH 12 0
BBX 9 10 1 0
BITMAP
FF80
8880
8880
0800
0800
0800
0800
0800
0800
1C00
ENDCHAR
STARTCHAR afii10037
ENCODING 1059
SWIDTH 1000 0
DWIDTH 12 0
BBX 9 10 1 0
BITMAP
E380
4100
2200
2200
1400
1400
0800
0800
4800
3000
ENDCHAR
STARTCHAR afii10038
ENCODING 1060
SWIDTH 1000 0
DWIDTH 12 0
BBX 9 10 1 0
BITMAP
1C00
0800
3E00
4900
8880
8880
4900
3E00
0800
1C00
ENDCHAR
STARTCHAR afii10039
ENCODING 1061
SWIDTH 1000 0
DWIDTH 12 0
BBX 9 10 1 0
BITMAP
E380
4100
2200
1400
0800
0800
1400
2200
4100
E380
ENDCHAR
STARTCHAR afii10040
ENCODING 1062
SWIDTH 1000 0
DWIDTH 12 0
BBX 9 10 1 0
BITMAP
E700
4200
4200
4200
4200
4200
4200
4200
FF80
0080
ENDCHAR
STARTCHAR afii10041
ENCODING 1063
SWIDTH 1000 0
DWIDTH 12 0
BBX 8 10 1 0
BITMAP
E7
42
42
42
42
26
1A
02
02
07
ENDCHAR
STARTCHAR afii10042
ENCODING 1064
SWIDTH 1000 0
DWIDTH 12 0
BBX 11 10 0 0
BITMAP
EEE0
4440
4440
4440
4440
4440
4440
4440
4440
FFE0
ENDCHAR
STARTCHAR afii10043
ENCODING 1065
SWIDTH 1000 0
DWIDTH 12 0
BBX 11 10 0 0
BITMAP
EEE0
4440
4440
4440
4440
4440
4440
4440
FFE0
0020
ENDCHAR
STARTCHAR afii10044
ENCODING 1066
SWIDTH 1000 0
DWIDTH 12 0
BBX 9 10 1 0
BITMAP
7000
9000
1000
1000
1E00
1100
1080
1080
1100
3E00
ENDCHAR
STARTCHAR afii10045
ENCODING 1067
SWIDTH 1000 0
DWIDTH 12 0
BBX 9 10 1 0
BITMAP
C380
4100
4100
4100
7100
4900
4500
4500
4900
F380
ENDCHAR
STARTCHAR afii10046
ENCODING 1068
SWIDTH 1000 0
DWIDTH 12 0
BBX 7 10 2 0
BITMAP
E0
40
40
78
44
42
42
42
44
F8
ENDCHAR
STARTCHAR afii10047
ENCODING 1069
SWIDTH 1000 0
DWIDTH 12 0
BBX 7 10 2 0
BITMAP
B8
C4
82
02
02
1E
02
82
44
38
ENDCHAR
STARTCHAR afii10048
ENCODING 1070
SWIDTH 1000 0
DWIDTH 12 0
BBX 10 10 1 0
BITMAP
E300
4480
4840
4840
7840
4840
4840
4840
4480
E300
ENDCHAR
STARTCHAR afii10049
ENCODING 1071
SWIDTH 1000 0
DWIDTH 12 0
BBX 8 10 2 0
BITMAP
3F
42
42
42
3E
12
22
22
A2
47
ENDCHAR
STARTCHAR afii10065
ENCODING 1072
SWIDTH 1000 0
DWIDTH 12 0
BBX 6 7 3 0
BITMAP
30
48
38
48
88
90
6C
ENDCHAR
STARTCHAR afii10066
ENCODING 1073
SWIDTH 1000 0
DWIDTH 12 0
BBX 6 10 3 0
BITMAP
0C
30
40
80
B0
C8
84
84
48
30
ENDCHAR
STARTCHAR afii10067
ENCODING 1074
SWIDTH 1000 0
DWIDTH 12 0
BBX 6 7 3 0
BITMAP
F8
44
44
78
44
44
F8
ENDCHAR
STARTCHAR afii10068
ENCODING 1075
SWIDTH 1000 0
DWIDTH 12 0
BBX 6 7 3 0
BITMAP
F8
44
40
40
40
40
E0
ENDCHAR
STARTCHAR afii10069
ENCODING 1076
SWIDTH 1000 0
DWIDTH 12 0
BBX 8 8 1 0
BITMAP
3F
12
12
12
22
22
FF
81
ENDCHAR
STARTCHAR afii10070
ENCODING 1077
SWIDTH 1000 0
DWIDTH 12 0
BBX 6 7 3 0
BITMAP
30
48
84
FC
80
44
38
ENDCHAR
STARTCHAR afii10072
ENCODING 1078
SWIDTH 1000 0
DWIDTH 12 0
BBX 9 7 1 0
BITMAP
DD80
2A00
2A00
1C00
2A00
4900
DD80
ENDCHAR
STARTCHAR afii10073
ENCODING 1079
SWIDTH 1000 0
DWIDTH 12 0
BBX 6 7 3 0
BITMAP
38
C4
04
38
84
84
78
ENDCHAR
STARTCHAR afii10074
ENCODING 1080
SWIDTH 1000 0
DWIDTH 12 0
BBX 8 7 2 0
BITMAP
E7
46
4A
52
62
42
E7
ENDCHAR
STARTCHAR afii10075
ENCODING 1081
SWIDTH 1000 0
DWIDTH 12 0
BBX 8 10 2 0
BITMAP
24
18
00
E7
46
4A
52
62
42
E7
ENDCHAR
STARTCHAR afii10076
ENCODING 1082
SWIDTH 1000 0
DWIDTH 12 0
BBX 7 7 2 0
BITMAP
E4
4A
50
60
50
4A
E4
ENDCHAR
STARTCHAR afii10077
ENCODING 1083
SWIDTH 1000 0
DWIDTH 12 0
BBX 7 7 2 0
BITMAP
3E
14
14
14
24
A4
4E
ENDCHAR
STARTCHAR afii10078
ENCODING 1084
SWIDTH 1000 0
DWIDTH 12 0
BBX 9 7 1 0
BITMAP
C180
6300
6300
5500
5500
4900
EB80
ENDCHAR
STARTCHAR afii10079
ENCODING 1085
SWIDTH 1000 0
DWIDTH 12 0
BBX 8 7 2 0
BITMAP
E7
42
42
7E
42
42
E7
ENDCHAR
STARTCHAR afii10080
ENCODING 1086
SWIDTH 1000 0
DWIDTH 12 0
BBX 7 7 2 0
BITMAP
38
44
82
82
82
44
38
ENDCHAR
STARTCHAR afii10081
ENCODING 1087
SWIDTH 1000 0
DWIDTH 12 0
BBX 7 7 2 0
BITMAP
FE
44
44
44
44
44
EE
ENDCHAR
STARTCHAR afii10082
ENCODING 1088
SWIDTH 1000 0
DWIDTH 12 0
BBX 7 8 2 -1
BITMAP
D8
64
42
42
64
58
40
E0
ENDCHAR
STARTCHAR afii10083
ENCODING 1089
SWIDTH 1000 0
DWIDTH 12 0
BBX 6 7 2 0
BITMAP
38
44
80
80
80
44
38
ENDCHAR
STARTCHAR afii10084
ENCODING 1090
SWIDTH 1000 0
DWIDTH 12 0
BBX 7 7 2 0
BITMAP
FE
92
10
10
10
10
38
ENDCHAR
STARTCHAR afii10085
ENCODING 1091
SWIDTH 1000 0
DWIDTH 12 0
BBX 8 9 2 -1
BITMAP
E7
42
22
14
08
08
10
90
60
ENDCHAR
STARTCHAR afii10086
ENCODING 1092
SWIDTH 1000 0
DWIDTH 12 0
BBX 9 11 1 -1
BITMAP
1C00
0800
2A00
5D00
8880
8880
8880
5D00
2A00
0800
1C00
ENDCHAR
STARTCHAR afii10087
ENCODING 1093
SWIDTH 1000 0
DWIDTH 12 0
BBX 7 7 2 0
BITMAP
EE
44
28
10
28
44
EE
ENDCHAR
STARTCHAR afii10088
ENCODING 1094
SWIDTH 1000 0
DWIDTH 12 0
BBX 7 8 2 -1
BITMAP
EE
44
44
44
44
44
FE
02
ENDCHAR
STARTCHAR afii10089
ENCODING 1095
SWIDTH 1000 0
DWIDTH 12 0
BBX 7 7 2 0
BITMAP
EE
44
44
3C
04
04
0E
ENDCHAR
STARTCHAR afii10090
ENCODING 1096
SWIDTH 1000 0
DWIDTH 12 0
BBX 9 7 1 0
BITMAP
DD80
4900
4900
4900
4900
4900
FF80
ENDCHAR
STARTCHAR afii10091
ENCODING 1097
SWIDTH 1000 0
DWIDTH 12 0
BBX 10 8 0 -1
BITMAP
DD80
4900
4900
4900
4900
4900
7FC0
0040
ENDCHAR
STARTCHAR afii10092
ENCODING 1098
SWIDTH 1000 0
DWIDTH 12 0
BBX 7 7 2 0
BITMAP
60
A0
3C
22
22
22
7C
ENDCHAR
STARTCHAR afii10093
ENCODING 1099
SWIDTH 1000 0
DWIDTH 12 0
BBX 8 7 2 0
BITMAP
E7
42
42
72
4A
4A
F7
ENDCHAR
STARTCHAR afii10094
ENCODING 1100
SWIDTH 1000 0
DWIDTH 12 0
BBX 6 7 3 0
BITMAP
E0
40
78
44
44
44
F8
ENDCHAR
STARTCHAR afii10095
ENCODING 1101
SWIDTH 1000 0
DWIDTH 12 0
BBX 6 7 3 0
BITMAP
78
84
04
7C
04
84
78
ENDCHAR
STARTCHAR afii10096
ENCODING 1102
SWIDTH 1000 0
DWIDTH 12 0
BBX 9 7 1 0
BITMAP
E600
4900
5080
7080
5080
4900
E600
ENDCHAR
STARTCHAR afii10097
ENCODING 1103
SWIDTH 1000 0
DWIDTH 12 0
BBX 7 7 2 0
BITMAP
3E
44
44
3C
24
44
EE
ENDCHAR
STARTCHAR afii10071
ENCODING 1105
SWIDTH 1000 0
DWIDTH 12 0
BBX 6 9 3 0
BITMAP
48
00
30
48
84
FC
80
44
38
ENDCHAR
STARTCHAR endash
ENCODING 8211
SWIDTH 1000 0
DWIDTH 12 0
BBX 11 1 1 4
BITMAP
FFE0
ENDCHAR
STARTCHAR emdash
ENCODING 8212
SWIDTH 1000 0
DWIDTH 12 0
BBX 11 1 1 4
BITMAP
FFE0
ENDCHAR
STARTCHAR U_2016
ENCODING 8214
SWIDTH 1000 0
DWIDTH 12 0
BBX 4 12 4 -1
BITMAP
90
90
90
90
90
90
90
90
90
90
90
90
ENDCHAR
STARTCHAR quoteleft
ENCODING 8216
SWIDTH 1000 0
DWIDTH 12 0
BBX 2 4 8 7
BITMAP
40
80
C0
C0
ENDCHAR
STARTCHAR quoteright
ENCODING 8217
SWIDTH 1000 0
DWIDTH 12 0
BBX 2 4 2 7
BITMAP
C0
C0
40
80
ENDCHAR
STARTCHAR quotedblleft
ENCODING 8220
SWIDTH 1000 0
DWIDTH 12 0
BBX 5 4 6 7
BITMAP
48
90
D8
D8
ENDCHAR
STARTCHAR quotedblright
ENCODING 8221
SWIDTH 1000 0
DWIDTH 12 0
BBX 5 4 1 7
BITMAP
D8
D8
48
90
ENDCHAR
STARTCHAR bullet
ENCODING 8226
SWIDTH 1000 0
DWIDTH 12 0
BBX 2 2 5 4
BITMAP
C0
C0
ENDCHAR
STARTCHAR twodotenleader
ENCODING 8229
SWIDTH 1000 0
DWIDTH 12 0
BBX 9 1 2 4
BITMAP
C180
ENDCHAR
STARTCHAR ellipsis
ENCODING 8230
SWIDTH 1000 0
DWIDTH 12 0
BBX 11 1 1 4
BITMAP
C660
ENDCHAR
STARTCHAR U_2027
ENCODING 8231
SWIDTH 1000 0
DWIDTH 12 0
BBX 2 2 5 4
BITMAP
C0
C0
ENDCHAR
STARTCHAR perthousand
ENCODING 8240
SWIDTH 1000 0
DWIDTH 12 0
BBX 12 12 0 -1
BITMAP
4000
A000
A100
A200
A400
AA20
4D50
1550
2550
4550
8550
0220
ENDCHAR
STARTCHAR minute
ENCODING 8242
SWIDTH 1000 0
DWIDTH 12 0
BBX 2 2 2 8
BITMAP
40
80
ENDCHAR
STARTCHAR second
ENCODING 8243
SWIDTH 1000 0
DWIDTH 12 0
BBX 4 3 1 8
BITMAP
40
50
A0
ENDCHAR
STARTCHAR U_2035
ENCODING 8245
SWIDTH 1000 0
DWIDTH 12 0
BBX 2 2 9 8
BITMAP
80
40
ENDCHAR
STARTCHAR U_203B
ENCODING 8251
SWIDTH 1000 0
DWIDTH 12 0
BBX 11 11 1 -1
BITMAP
8C40
4C80
2100
1200
CCC0
C4C0
0A00
1100
2080
4C40
8C20
ENDCHAR
STARTCHAR U_203E
ENCODING 8254
SWIDTH 1000 0
DWIDTH 12 0
BBX 12 1 0 10
BITMAP
FFF0
ENDCHAR
STARTCHAR Euro
ENCODING 8364
SWIDTH 1000 0
DWIDTH 12 0
BBX 7 10 2 0
BITMAP
1C
22
40
40
F8
40
F8
40
22
1C
ENDCHAR
STARTCHAR U_2103
ENCODING 8451
SWIDTH 1000 0
DWIDTH 12 0
BBX 10 10 0 0
BITMAP
6380
9440
6400
0800
0800
0800
0800
0400
0440
0380
ENDCHAR
STARTCHAR afii61248
ENCODING 8453
SWIDTH 1000 0
DWIDTH 12 0
BBX 11 11 0 -1
BITMAP
3020
4840
8080
8100
4A80
3540
0A20
1220
2220
4140
8080
ENDCHAR
STARTCHAR U_2109
ENCODING 8457
SWIDTH 1000 0
DWIDTH 12 0
BBX 11 10 0 0
BITMAP
4FE0
A420
A400
4480
0780
0480
0400
0400
0400
0E00
ENDCHAR
STARTCHAR afii61352
ENCODING 8470
SWIDTH 1000 0
DWIDTH 12 0
BBX 11 10 0 0
BITMAP
CE00
4400
6400
64C0
5520
5520
4D20
4CC0
4400
E5E0
ENDCHAR
STARTCHAR U_2160
ENCODING 8544
SWIDTH 1000 0
DWIDTH 12 0
BBX 3 11 5 0
BITMAP
E0
40
40
40
40
40
40
40
40
40
E0
ENDCHAR
STARTCHAR U_2161
ENCODING 8545
SWIDTH 1000 0
DWIDTH 12 0
BBX 8 11 2 0
BITMAP
E7
42
42
42
42
42
42
42
42
42
E7
ENDCHAR
STARTCHAR U_2162
ENCODING 8546
SWIDTH 1000 0
DWIDTH 12 0
BBX 11 11 1 0
BITMAP
EEE0
4440
4440
4440
4440
4440
4440
4440
4440
4440
EEE0
ENDCHAR
STARTCHAR U_2163
ENCODING 8547
SWIDTH 1000 0
DWIDTH 12 0
BBX 11 11 1 0
BITMAP
EEE0
4440
4440
4440
4280
4280
4280
4280
4100
4100
E100
ENDCHAR
STARTCHAR U_2164
ENCODING 8548
SWIDTH 1000 0
DWIDTH 12 0
BBX 9 11 2 0
BITMAP
E380
4100
4100
2200
2200
2200
1400
1400
0800
0800
0800
ENDCHAR
STARTCHAR U_2165
ENCODING 8549
SWIDTH 1000 0
DWIDTH 12 0
BBX 11 11 1 0
BITMAP
EEE0
4440
4440
4440
2840
2840
2840
2840
1040
1040
10E0
ENDCHAR
STARTCHAR U_2166
ENCODING 8550
SWIDTH 1000 0
DWIDTH 12 0
BBX 12 11 0 0
BITMAP
EFF0
4520
4520
4520
2920
2920
2920
2920
1120
1120
13F0
ENDCHAR
STARTCHAR U_2167
ENCODING 8551
SWIDTH 1000 0
DWIDTH 12 0
BBX 12 11 0 0
BITMAP
8BF0
8AA0
8AA0
8AA0
52A0
52A0
52A0
22A0
22A0
22A0
23F0
ENDCHAR
STARTCHAR U_2168
ENCODING 8552
SWIDTH 1000 0
DWIDTH 12 0
BBX 11 11 1 0
BITMAP
EEE0
4440
4280
4280
4100
4100
4280
4280
4440
4440
EEE0
ENDCHAR
STARTCHAR U_2169
ENCODING 8553
SWIDTH 1000 0
DWIDTH 12 0
BBX 8 11 2 0
BITMAP
E7
42
42
24
24
18
18
24
42
42
E7
ENDCHAR
STARTCHAR U_216A
ENCODING 8554
SWIDTH 1000 0
DWIDTH 12 0
BBX 11 11 1 0
BITMAP
EEE0
4440
2840
2840
1040
1040
1040
2840
2840
4440
EEE0
ENDCHAR
STARTCHAR U_216B
ENCODING 8555
SWIDTH 1000 0
DWIDTH 12 0
BBX 12 11 0 0
BITMAP
EFF0
44A0
44A0
28A0
28A0
10A0
10A0
28A0
28A0
44A0
E7F0
ENDCHAR
STARTCHAR U_2170
ENCODING 8560
SWIDTH 1000 0
DWIDTH 12 0
BBX 3 9 5 0
BITMAP
40
00
00
C0
40
40
40
40
E0
ENDCHAR
STARTCHAR U_2171
ENCODING 8561
SWIDTH 1000 0
DWIDTH 12 0
BBX 6 9 3 0
BITMAP
48
00
00
D8
48
48
48
48
FC
ENDCHAR
STARTCHAR U_2172
ENCODING 8562
SWIDTH 1000 0
DWIDTH 12 0
BBX 9 9 2 0
BITMAP
4900
0000
0000
DB00
4900
4900
4900
4900
FF80
ENDCHAR
STARTCHAR U_2173
ENCODING 8563
SWIDTH 1000 0
DWIDTH 12 0
BBX 9 9 2 0
BITMAP
4000
0000
0000
CD80
4500
4500
4500
4200
E200
ENDCHAR
STARTCHAR U_2174
ENCODING 8564
SWIDTH 1000 0
DWIDTH 12 0
BBX 7 6 2 0
BITMAP
EE
44
28
28
10
10
ENDCHAR
STARTCHAR arrowleft
ENCODING 8592
SWIDTH 1000 0
DWIDTH 12 0
BBX 11 5 0 2
BITMAP
2000
4000
FFE0
4000
2000
ENDCHAR
STARTCHAR arrowup
ENCODING 8593
SWIDTH 1000 0
DWIDTH 12 0
BBX 5 11 4 -1
BITMAP
20
70
A8
20
20
20
20
20
20
20
20
ENDCHAR
STARTCHAR arrowright
ENCODING 8594
SWIDTH 1000 0
DWIDTH 12 0
BBX 11 5 0 2
BITMAP
0080
0040
FFE0
0040
0080
ENDCHAR
STARTCHAR arrowdown
ENCODING 8595
SWIDTH 1000 0
DWIDTH 12 0
BBX 5 11 4 -1
BITMAP
20
20
20
20
20
20
20
20
A8
70
20
ENDCHAR
STARTCHAR U_2196
ENCODING 8598
SWIDTH 1000 0
DWIDTH 12 0
BBX 11 11 0 -1
BITMAP
F000
C000
A000
9000
0800
0400
0200
0100
0080
0040
0020
ENDCHAR
STARTCHAR U_2197
ENCODING 8599
SWIDTH 1000 0
DWIDTH 12 0
BBX 11 11 0 -1
BITMAP
01E0
0060
00A0
0120
0200
0400
0800
1000
2000
4000
8000
ENDCHAR
STARTCHAR U_2198
ENCODING 8600
SWIDTH 1000 0
DWIDTH 12 0
BBX 11 11 0 -1
BITMAP
8000
4000
2000
1000
0800
0400
0200
0120
00A0
0060
01E0
ENDCHAR
STARTCHAR U_2199
ENCODING 8601
SWIDTH 1000 0
DWIDTH 12 0
BBX 11 11 0 -1
BITMAP
0020
0040
0080
0100
0200
0400
0800
9000
A000
C000
F000
ENDCHAR
STARTCHAR element
ENCODING 8712
SWIDTH 1000 0
DWIDTH 12 0
BBX 6 10 3 0
BITMAP
1C
20
40
80
FC
80
80
40
20
1C
ENDCHAR
STARTCHAR product
ENCODING 8719
SWIDTH 1000 0
DWIDTH 12 0
BBX 9 10 2 0
BITMAP
FF80
4100
4100
4100
4100
4100
4100
4100
4100
E380
ENDCHAR
STARTCHAR summation
ENCODING 8721
SWIDTH 1000 0
DWIDTH 12 0
BBX 8 10 2 0
BITMAP
FE
42
20
10
08
08
10
20
41
FF
ENDCHAR
STARTCHAR U_2215
ENCODING 8725
SWIDTH 1000 0
DWIDTH 12 0
BBX 6 11 3 -1
BITMAP
04
08
08
10
10
20
20
40
40
80
80
ENDCHAR
STARTCHAR radical
ENCODING 8730
SWIDTH 1000 0
DWIDTH 12 0
BBX 11 11 0 -1
BITMAP
03E0
0200
0400
0400
0800
0800
4800
D000
5000
2000
2000
ENDCHAR
STARTCHAR proportional
ENCODING 8733
SWIDTH 1000 0
DWIDTH 12 0
BBX 11 6 0 2
BITMAP
3860
4480
8300
8300
4480
3860
ENDCHAR
STARTCHAR infinity
ENCODING 8734
SWIDTH 1000 0
DWIDTH 12 0
BBX 11 6 0 2
BITMAP
71C0
8A20
8420
8420
8A20
71C0
ENDCHAR
STARTCHAR orthogonal
ENCODING 8735
SWIDTH 1000 0
DWIDTH 12 0
BBX 9 9 2 1
BITMAP
8000
8000
8000
8000
8000
8000
8000
8000
FF80
ENDCHAR
STARTCHAR angle
ENCODING 8736
SWIDTH 1000 0
DWIDTH 12 0
BBX 10 9 1 1
BITMAP
0080
0100
0200
0400
0800
1000
2000
4000
FFC0
ENDCHAR
STARTCHAR U_2223
ENCODING 8739
SWIDTH 1000 0
DWIDTH 12 0
BBX 1 11 6 -1
BITMAP
80
80
80
80
80
80
80
80
80
80
80
ENDCHAR
STARTCHAR U_2225
ENCODING 8741
SWIDTH 1000 0
DWIDTH 12 0
BBX 3 11 4 -1
BITMAP
A0
A0
A0
A0
A0
A0
A0
A0
A0
A0
A0
ENDCHAR
STARTCHAR logicaland
ENCODING 8743
SWIDTH 1000 0
DWIDTH 12 0
BBX 9 9 2 1
BITMAP
0800
1400
1400
2200
2200
4100
4100
8080
8080
ENDCHAR
STARTCHAR logicalor
ENCODING 8744
SWIDTH 1000 0
DWIDTH 12 0
BBX 9 9 1 1
BITMAP
8080
8080
4100
4100
2200
2200
1400
1400
0800
ENDCHAR
STARTCHAR intersection
ENCODING 8745
SWIDTH 1000 0
DWIDTH 12 0
BBX 7 10 3 0
BITMAP
38
44
82
82
82
82
82
82
82
82
ENDCHAR
STARTCHAR U_on
ENCODING 8746
SWIDTH 1000 0
DWIDTH 12 0
BBX 7 10 3 0
BITMAP
82
82
82
82
82
82
82
82
44
38
ENDCHAR
STARTCHAR integral
ENCODING 8747
SWIDTH 1000 0
DWIDTH 12 0
BBX 3 11 5 -1
BITMAP
40
A0
80
80
40
40
20
20
20
A0
40
ENDCHAR
STARTCHAR U_222E
ENCODING 8750
SWIDTH 1000 0
DWIDTH 12 0
BBX 6 11 3 -1
BITMAP
10
28
20
70
A8
94
54
38
10
50
20
ENDCHAR
STARTCHAR therefore
ENCODING 8756
SWIDTH 1000 0
DWIDTH 12 0
BBX 9 8 2 0
BITMAP
1800
1800
0000
0000
0000
0000
C180
C180
ENDCHAR
STARTCHAR U_2235
ENCODING 8757
SWIDTH 1000 0
DWIDTH 12 0
BBX 9 8 2 0
BITMAP
C180
C180
0000
0000
0000
0000
1800
1800
ENDCHAR
STARTCHAR U_2236
ENCODING 8758
SWIDTH 1000 0
DWIDTH 12 0
BBX 1 7 5 1
BITMAP
80
00
00
00
00
00
80
ENDCHAR
STARTCHAR U_2237
ENCODING 8759
SWIDTH 1000 0
DWIDTH 12 0
BBX 7 7 2 1
BITMAP
82
00
00
00
00
00
82
ENDCHAR
STARTCHAR similar
ENCODING 8764
SWIDTH 1000 0
DWIDTH 12 0
BBX 10 3 1 3
BITMAP
7000
8C40
0380
ENDCHAR
STARTCHAR U_223D
ENCODING 8765
SWIDTH 1000 0
DWIDTH 12 0
BBX 11 6 0 2
BITMAP
20C0
4120
8220
8420
4840
3080
ENDCHAR
STARTCHAR approxequal
ENCODING 8776
SWIDTH 1000 0
DWIDTH 12 0
BBX 11 8 0 1
BITMAP
3820
4440
8380
0000
0000
3820
4440
8380
ENDCHAR
STARTCHAR U_224C
ENCODING 8780
SWIDTH 1000 0
DWIDTH 12 0
BBX 10 10 1 0
BITMAP
4380
8440
8840
7080
0000
0000
FF80
0000
0000
FF80
ENDCHAR
STARTCHAR U_2252
ENCODING 8786
SWIDTH 1000 0
DWIDTH 12 0
BBX 9 9 2 0
BITMAP
6000
6000
0000
FF80
0000
FF80
0000
0600
0600
ENDCHAR
STARTCHAR notequal
ENCODING 8800
SWIDTH 1000 0
DWIDTH 12 0
BBX 8 7 2 1
BITMAP
08
08
FF
10
FF
20
20
ENDCHAR
STARTCHAR equivalence
ENCODING 8801
SWIDTH 1000 0
DWIDTH 12 0
BBX 8 5 2 2
BITMAP
FF
00
FF
00
FF
ENDCHAR
STARTCHAR lessequal
ENCODING 8804
SWIDTH 1000 0
DWIDTH 12 0
BBX 8 10 2 0
BITMAP
03
0C
30
C0
30
0C
C3
30
0C
03
ENDCHAR
STARTCHAR greaterequal
ENCODING 8805
SWIDTH 1000 0
DWIDTH 12 0
BBX 8 10 3 0
BITMAP
C0
30
0C
03
0C
30
C3
0C
30
C0
ENDCHAR
STARTCHAR U_2266
ENCODING 8806
SWIDTH 1000 0
DWIDTH 12 0
BBX 9 9 2 0
BITMAP
0700
3800
C000
7000
0E00
0000
FF80
0000
FF80
ENDCHAR
STARTCHAR U_2267
ENCODING 8807
SWIDTH 1000 0
DWIDTH 12 0
BBX 9 11 2 -1
BITMAP
C000
3800
0600
0180
0600
3800
C000
0000
FF80
0000
FF80
ENDCHAR
STARTCHAR U_226E
ENCODING 8814
SWIDTH 1000 0
DWIDTH 12 0
BBX 9 9 1 0
BITMAP
0980
0E00
1800
6800
8800
6800
1800
0E00
0980
ENDCHAR
STARTCHAR U_226F
ENCODING 8815
SWIDTH 1000 0
DWIDTH 12 0
BBX 9 9 1 0
BITMAP
C800
3800
0C00
0B00
0880
0B00
0C00
3800
C800
ENDCHAR
STARTCHAR circleplus
ENCODING 8853
SWIDTH 1000 0
DWIDTH 12 0
BBX 9 11 1 -1
BITMAP
1C00
2A00
4900
8880
8880
FF80
8880
8880
4900
2A00
1C00
ENDCHAR
STARTCHAR U_2299
ENCODING 8857
SWIDTH 1000 0
DWIDTH 12 0
BBX 10 11 1 -1
BITMAP
1E00
2100
4080
8040
8C40
8C40
8040
8040
4080
2100
1E00
ENDCHAR
STARTCHAR perpendicular
ENCODING 8869
SWIDTH 1000 0
DWIDTH 12 0
BBX 9 9 1 1
BITMAP
0800
0800
0800
0800
0800
0800
0800
0800
FF80
ENDCHAR
STARTCHAR U_22BF
ENCODING 8895
SWIDTH 1000 0
DWIDTH 12 0
BBX 9 9 1 1
BITMAP
0080
0180
0280
0480
0880
1080
2080
4080
FF80
ENDCHAR
STARTCHAR U_2312
ENCODING 8978
SWIDTH 1000 0
DWIDTH 12 0
BBX 11 5 0 3
BITMAP
0E00
3180
4040
8020
8020
ENDCHAR
STARTCHAR U_2460
ENCODING 9312
SWIDTH 1000 0
DWIDTH 12 0
BBX 11 11 0 -1
BITMAP
1F00
2080
4440
8C20
8420
8420
8420
8420
4E40
2080
1F00
ENDCHAR
STARTCHAR U_2461
ENCODING 9313
SWIDTH 1000 0
DWIDTH 12 0
BBX 11 11 0 -1
BITMAP
1F00
2080
4640
8920
8120
8220
8420
8920
4F40
2080
1F00
ENDCHAR
STARTCHAR U_2462
ENCODING 9314
SWIDTH 1000 0
DWIDTH 12 0
BBX 11 11 0 -1
BITMAP
1F00
2080
4640
8920
8120
8220
8120
8920
4640
2080
1F00
ENDCHAR
STARTCHAR U_2463
ENCODING 9315
SWIDTH 1000 0
DWIDTH 12 0
BBX 11 11 0 -1
BITMAP
1F00
2080
4240
8620
8A20
9220
9F20
8220
4740
2080
1F00
ENDCHAR
STARTCHAR U_2464
ENCODING 9316
SWIDTH 1000 0
DWIDTH 12 0
BBX 11 11 0 -1
BITMAP
1F00
2080
4E40
8820
8820
8620
8120
8920
4640
2080
1F00
ENDCHAR
STARTCHAR U_2465
ENCODING 9317
SWIDTH 1000 0
DWIDTH 12 0
BBX 11 11 0 -1
BITMAP
1F00
2080
4640
8920
8820
8E20
8920
8920
4640
2080
1F00
ENDCHAR
STARTCHAR U_2466
ENCODING 9318
SWIDTH 1000 0
DWIDTH 12 0
BBX 11 11 0 -1
BITMAP
1F00
2080
4F40
8920
8220
8220
8420
8420
4440
2080
1F00
ENDCHAR
STARTCHAR U_2467
ENCODING 9319
SWIDTH 1000 0
DWIDTH 12 0
BBX 11 11 0 -1
BITMAP
1F00
2080
4640
8920
8920
8620
8920
8920
4640
2080
1F00
ENDCHAR
STARTCHAR U_2468
ENCODING 9320
SWIDTH 1000 0
DWIDTH 12 0
BBX 11 11 0 -1
BITMAP
1F00
2080
4640
8920
8920
8720
8120
8920
4640
2080
1F00
ENDCHAR
STARTCHAR U_2469
ENCODING 9321
SWIDTH 1000 0
DWIDTH 12 0
BBX 11 11 0 -1
BITMAP
1F00
2080
5140
B2A0
92A0
92A0
92A0
92A0
7140
2080
1F00
ENDCHAR
STARTCHAR U_2474
ENCODING 9332
SWIDTH 1000 0
DWIDTH 12 0
BBX 11 11 0 -1
BITMAP
2080
4440
8C20
8420
8420
8420
8420
8420
8420
4E40
2080
ENDCHAR
STARTCHAR U_2475
ENCODING 9333
SWIDTH 1000 0
DWIDTH 12 0
BBX 11 11 0 -1
BITMAP
2080
4E40
9120
9120
8120
8220
8420
8820
9120
5F40
2080
ENDCHAR
STARTCHAR U_2476
ENCODING 9334
SWIDTH 1000 0
DWIDTH 12 0
BBX 11 11 0 -1
BITMAP
2080
4E40
9120
8120
8220
8620
8120
8120
9120
4E40
2080
ENDCHAR
STARTCHAR U_2477
ENCODING 9335
SWIDTH 1000 0
DWIDTH 12 0
BBX 11 11 0 -1
BITMAP
2080
4240
8620
8620
8A20
8A20
9220
9F20
8220
4740
2080
ENDCHAR
STARTCHAR U_2478
ENCODING 9336
SWIDTH 1000 0
DWIDTH 12 0
BBX 11 11 0 -1
BITMAP
2080
5F40
9020
9020
9020
9E20
8120
8120
9120
4E40
2080
ENDCHAR
STARTCHAR U_2479
ENCODING 9337
SWIDTH 1000 0
DWIDTH 12 0
BBX 11 11 0 -1
BITMAP
2080
4E40
9120
9020
9020
9620
9920
9120
9120
4E40
2080
ENDCHAR
STARTCHAR U_247A
ENCODING 9338
SWIDTH 1000 0
DWIDTH 12 0
BBX 11 11 0 -1
BITMAP
2080
5F40
9120
8120
8220
8220
8420
8420
8420
4440
2080
ENDCHAR
STARTCHAR U_247B
ENCODING 9339
SWIDTH 1000 0
DWIDTH 12 0
BBX 11 11 0 -1
BITMAP
2080
4E40
9120
9120
9120
8E20
9120
9120
9120
4E40
2080
ENDCHAR
STARTCHAR U_247C
ENCODING 9340
SWIDTH 1000 0
DWIDTH 12 0
BBX 11 11 0 -1
BITMAP
2080
4E40
9120
9120
9120
8F20
8120
8120
9120
4E40
2080
ENDCHAR
STARTCHAR U_247D
ENCODING 9341
SWIDTH 1000 0
DWIDTH 12 0
BBX 11 11 0 -1
BITMAP
2080
5240
B520
9520
9520
9520
9520
9520
9520
7A40
2080
ENDCHAR
STARTCHAR U_247E
ENCODING 9342
SWIDTH 1000 0
DWIDTH 12 0
BBX 11 11 0 -1
BITMAP
2080
4940
9B20
8920
8920
8920
8920
8920
8920
5FC0
2080
ENDCHAR
STARTCHAR U_247F
ENCODING 9343
SWIDTH 1000 0
DWIDTH 12 0
BBX 11 11 0 -1
BITMAP
2080
5340
B4A0
94A0
90A0
9120
9220
9420
94A0
7FC0
2080
ENDCHAR
STARTCHAR U_2480
ENCODING 9344
SWIDTH 1000 0
DWIDTH 12 0
BBX 11 11 0 -1
BITMAP
2080
5340
B4A0
90A0
90A0
9320
90A0
90A0
94A0
7B40
2080
ENDCHAR
STARTCHAR U_2481
ENCODING 9345
SWIDTH 1000 0
DWIDTH 12 0
BBX 11 11 0 -1
BITMAP
2080
5140
B320
9320
9520
9520
9520
97A0
9120
7BC0
2080
ENDCHAR
STARTCHAR U_2482
ENCODING 9346
SWIDTH 1000 0
DWIDTH 12 0
BBX 11 11 0 -1
BITMAP
2080
5740
B420
9420
9520
96A0
90A0
90A0
94A0
7B40
2080
ENDCHAR
STARTCHAR U_2483
ENCODING 9347
SWIDTH 1000 0
DWIDTH 12 0
BBX 11 11 0 -1
BITMAP
2080
5340
B4A0
9420
9420
9720
94A0
94A0
94A0
7B40
2080
ENDCHAR
STARTCHAR U_2484
ENCODING 9348
SWIDTH 1000 0
DWIDTH 12 0
BBX 11 11 0 -1
BITMAP
2080
57C0
B4A0
90A0
9120
9120
9220
9220
9220
7A40
2080
ENDCHAR
STARTCHAR U_2485
ENCODING 9349
SWIDTH 1000 0
DWIDTH 12 0
BBX 11 11 0 -1
BITMAP
2080
5340
B4A0
94A0
94A0
9320
94A0
94A0
94A0
7B40
2080
ENDCHAR
STARTCHAR U_2486
ENCODING 9350
SWIDTH 1000 0
DWIDTH 12 0
BBX 11 11 0 -1
BITMAP
2080
5340
B4A0
94A0
94A0
93A0
90A0
90A0
94A0
7B40
2080
ENDCHAR
STARTCHAR U_2487
ENCODING 9351
SWIDTH 1000 0
DWIDTH 12 0
BBX 11 11 0 -1
BITMAP
4040
5140
AAA0
AAA0
8AA0
92A0
92A0
A2A0
AAA0
7940
4040
ENDCHAR
STARTCHAR U_2488
ENCODING 9352
SWIDTH 1000 0
DWIDTH 12 0
BBX 6 10 5 -1
BITMAP
40
C0
40
40
40
40
40
40
E0
04
ENDCHAR
STARTCHAR U_2489
ENCODING 9353
SWIDTH 1000 0
DWIDTH 12 0
BBX 8 10 3 -1
BITMAP
70
88
88
08
10
20
40
88
F8
01
ENDCHAR
STARTCHAR U_248A
ENCODING 9354
SWIDTH 1000 0
DWIDTH 12 0
BBX 8 10 3 -1
BITMAP
70
88
08
08
70
08
08
88
70
01
ENDCHAR
STARTCHAR U_248B
ENCODING 9355
SWIDTH 1000 0
DWIDTH 12 0
BBX 8 10 3 -1
BITMAP
10
30
50
50
90
90
F8
10
38
01
ENDCHAR
STARTCHAR U_248C
ENCODING 9356
SWIDTH 1000 0
DWIDTH 12 0
BBX 7 10 4 -1
BITMAP
F0
80
80
F0
88
08
08
88
70
02
ENDCHAR
STARTCHAR U_248D
ENCODING 9357
SWIDTH 1000 0
DWIDTH 12 0
BBX 8 10 3 -1
BITMAP
70
88
80
B0
C8
88
88
88
70
01
ENDCHAR
STARTCHAR U_248E
ENCODING 9358
SWIDTH 1000 0
DWIDTH 12 0
BBX 8 10 3 -1
BITMAP
FC
88
88
10
10
20
20
20
20
01
ENDCHAR
STARTCHAR U_248F
ENCODING 9359
SWIDTH 1000 0
DWIDTH 12 0
BBX 8 10 3 -1
BITMAP
70
88
88
88
70
88
88
88
70
01
ENDCHAR
STARTCHAR U_2490
ENCODING 9360
SWIDTH 1000 0
DWIDTH 12 0
BBX 8 10 3 -1
BITMAP
70
88
88
88
98
68
08
88
70
01
ENDCHAR
STARTCHAR U_2491
ENCODING 9361
SWIDTH 1000 0
DWIDTH 12 0
BBX 8 10 3 -1
BITMAP
4C
D2
52
52
52
52
52
52
EC
01
ENDCHAR
STARTCHAR U_2492
ENCODING 9362
SWIDTH 1000 0
DWIDTH 12 0
BBX 9 10 2 -1
BITMAP
4400
CC00
4400
4400
4400
4400
4400
4400
EE00
0080
ENDCHAR
STARTCHAR U_2493
ENCODING 9363
SWIDTH 1000 0
DWIDTH 12 0
BBX 8 10 3 -1
BITMAP
4C
D2
42
42
44
48
50
52
FE
01
ENDCHAR
STARTCHAR U_2494
ENCODING 9364
SWIDTH 1000 0
DWIDTH 12 0
BBX 8 10 3 -1
BITMAP
4C
D2
42
42
4C
42
42
52
EC
01
ENDCHAR
STARTCHAR U_2495
ENCODING 9365
SWIDTH 1000 0
DWIDTH 12 0
BBX 8 10 3 -1
BITMAP
44
C4
4C
54
54
54
5E
44
E6
01
ENDCHAR
STARTCHAR U_2496
ENCODING 9366
SWIDTH 1000 0
DWIDTH 12 0
BBX 8 10 3 -1
BITMAP
5C
D0
50
5C
54
42
42
52
EC
01
ENDCHAR
STARTCHAR U_2497
ENCODING 9367
SWIDTH 1000 0
DWIDTH 12 0
BBX 8 10 3 -1
BITMAP
4C
D2
50
54
5A
52
52
52
EC
01
ENDCHAR
STARTCHAR U_2498
ENCODING 9368
SWIDTH 1000 0
DWIDTH 12 0
BBX 8 10 3 -1
BITMAP
5E
D2
52
44
44
48
48
48
E8
01
ENDCHAR
STARTCHAR U_2499
ENCODING 9369
SWIDTH 1000 0
DWIDTH 12 0
BBX 8 10 3 -1
BITMAP
4C
D2
52
52
4C
52
52
52
EC
01
ENDCHAR
STARTCHAR U_249A
ENCODING 9370
SWIDTH 1000 0
DWIDTH 12 0
BBX 8 10 3 -1
BITMAP
4C
D2
52
52
56
4A
42
52
EC
01
ENDCHAR
STARTCHAR U_249B
ENCODING 9371
SWIDTH 1000 0
DWIDTH 12 0
BBX 9 10 2 -1
BITMAP
4400
AA00
AA00
2A00
2A00
4A00
8A00
AA00
E400
0080
ENDCHAR
STARTCHAR SF100000
ENCODING 9472
SWIDTH 1000 0
DWIDTH 12 0
BBX 12 1 0 4
BITMAP
FFF0
ENDCHAR
STARTCHAR U_2501
ENCODING 9473
SWIDTH 1000 0
DWIDTH 12 0
BBX 12 2 0 4
BITMAP
FFF0
FFF0
ENDCHAR
STARTCHAR SF110000
ENCODING 9474
SWIDTH 1000 0
DWIDTH 12 0
BBX 1 12 6 -1
BITMAP
80
80
80
80
80
80
80
80
80
80
80
80
ENDCHAR
STARTCHAR U_2503
ENCODING 9475
SWIDTH 1000 0
DWIDTH 12 0
BBX 2 12 5 -1
BITMAP
C0
C0
C0
C0
C0
C0
C0
C0
C0
C0
C0
C0
ENDCHAR
STARTCHAR U_2504
ENCODING 9476
SWIDTH 1000 0
DWIDTH 12 0
BBX 12 1 0 4
BITMAP
EE70
ENDCHAR
STARTCHAR U_2505
ENCODING 9477
SWIDTH 1000 0
DWIDTH 12 0
BBX 12 2 0 4
BITMAP
EE70
EE70
ENDCHAR
STARTCHAR U_2506
ENCODING 9478
SWIDTH 1000 0
DWIDTH 12 0
BBX 1 12 6 -1
BITMAP
80
80
80
00
00
80
80
80
00
80
80
80
ENDCHAR
STARTCHAR U_2507
ENCODING 9479
SWIDTH 1000 0
DWIDTH 12 0
BBX 2 12 5 -1
BITMAP
C0
C0
C0
00
00
C0
C0
C0
00
C0
C0
C0
ENDCHAR
STARTCHAR U_2508
ENCODING 9480
SWIDTH 1000 0
DWIDTH 12 0
BBX 11 1 0 4
BITMAP
DB60
ENDCHAR
STARTCHAR U_2509
ENCODING 9481
SWIDTH 1000 0
DWIDTH 12 0
BBX 11 2 0 4
BITMAP
DB60
DB60
ENDCHAR
STARTCHAR U_250A
ENCODING 9482
SWIDTH 1000 0
DWIDTH 12 0
BBX 1 11 6 0
BITMAP
80
80
00
80
80
00
80
80
00
80
80
ENDCHAR
STARTCHAR U_250B
ENCODING 9483
SWIDTH 1000 0
DWIDTH 12 0
BBX 2 11 5 0
BITMAP
C0
C0
00
C0
C0
00
C0
C0
00
C0
C0
ENDCHAR
STARTCHAR SF010000
ENCODING 9484
SWIDTH 1000 0
DWIDTH 12 0
BBX 6 6 6 -1
BITMAP
FC
80
80
80
80
80
ENDCHAR
STARTCHAR U_250D
ENCODING 9485
SWIDTH 1000 0
DWIDTH 12 0
BBX 6 7 6 -1
BITMAP
FC
FC
80
80
80
80
80
ENDCHAR
STARTCHAR U_250E
ENCODING 9486
SWIDTH 1000 0
DWIDTH 12 0
BBX 6 6 6 -1
BITMAP
FC
C0
C0
C0
C0
C0
ENDCHAR
STARTCHAR U_250F
ENCODING 9487
SWIDTH 1000 0
DWIDTH 12 0
BBX 7 7 5 -1
BITMAP
FE
FE
C0
C0
C0
C0
C0
ENDCHAR
STARTCHAR SF030000
ENCODING 9488
SWIDTH 1000 0
DWIDTH 12 0
BBX 7 7 0 -1
BITMAP
FE
02
02
02
02
02
02
ENDCHAR
STARTCHAR U_2511
ENCODING 9489
SWIDTH 1000 0
DWIDTH 12 0
BBX 7 8 0 -1
BITMAP
FE
FE
02
02
02
02
02
02
ENDCHAR
STARTCHAR U_2512
ENCODING 9490
SWIDTH 1000 0
DWIDTH 12 0
BBX 8 7 0 -1
BITMAP
FF
03
03
03
03
03
03
ENDCHAR
STARTCHAR U_2513
ENCODING 9491
SWIDTH 1000 0
DWIDTH 12 0
BBX 8 8 0 -1
BITMAP
FF
FF
03
03
03
03
03
03
ENDCHAR
STARTCHAR SF020000
ENCODING 9492
SWIDTH 1000 0
DWIDTH 12 0
BBX 6 7 6 4
BITMAP
80
80
80
80
80
80
FC
ENDCHAR
STARTCHAR U_2515
ENCODING 9493
SWIDTH 1000 0
DWIDTH 12 0
BBX 6 7 6 4
BITMAP
80
80
80
80
80
FC
FC
ENDCHAR
STARTCHAR U_2516
ENCODING 9494
SWIDTH 1000 0
DWIDTH 12 0
BBX 7 7 5 4
BITMAP
C0
C0
C0
C0
C0
C0
FE
ENDCHAR
STARTCHAR U_2517
ENCODING 9495
SWIDTH 1000 0
DWIDTH 12 0
BBX 7 8 5 3
BITMAP
C0
C0
C0
C0
C0
C0
FE
FE
ENDCHAR
STARTCHAR SF040000
ENCODING 9496
SWIDTH 1000 0
DWIDTH 12 0
BBX 7 7 0 4
BITMAP
02
02
02
02
02
02
FE
ENDCHAR
STARTCHAR U_2519
ENCODING 9497
SWIDTH 1000 0
DWIDTH 12 0
BBX 7 8 0 3
BITMAP
02
02
02
02
02
02
FE
FE
ENDCHAR
STARTCHAR U_251A
ENCODING 9498
SWIDTH 1000 0
DWIDTH 12 0
BBX 8 7 0 4
BITMAP
03
03
03
03
03
03
FF
ENDCHAR
STARTCHAR U_251B
ENCODING 9499
SWIDTH 1000 0
DWIDTH 12 0
BBX 8 8 0 3
BITMAP
03
03
03
03
03
03
FF
FF
ENDCHAR
STARTCHAR SF080000
ENCODING 9500
SWIDTH 1000 0
DWIDTH 12 0
BBX 6 12 6 -1
BITMAP
80
80
80
80
80
80
FC
80
80
80
80
80
ENDCHAR
STARTCHAR U_251D
ENCODING 9501
SWIDTH 1000 0
DWIDTH 12 0
BBX 6 12 6 -1
BITMAP
80
80
80
80
80
FC
FC
80
80
80
80
80
ENDCHAR
STARTCHAR U_251E
ENCODING 9502
SWIDTH 1000 0
DWIDTH 12 0
BBX 6 12 6 -1
BITMAP
C0
C0
C0
C0
C0
C0
FC
80
80
80
80
80
ENDCHAR
STARTCHAR U_251F
ENCODING 9503
SWIDTH 1000 0
DWIDTH 12 0
BBX 6 12 6 -1
BITMAP
80
80
80
80
80
80
FC
C0
C0
C0
C0
C0
ENDCHAR
STARTCHAR U_2520
ENCODING 9504
SWIDTH 1000 0
DWIDTH 12 0
BBX 7 12 5 -1
BITMAP
C0
C0
C0
C0
C0
C0
FE
C0
C0
C0
C0
C0
ENDCHAR
STARTCHAR U_2521
ENCODING 9505
SWIDTH 1000 0
DWIDTH 12 0
BBX 6 12 6 -1
BITMAP
C0
C0
C0
C0
C0
FC
FC
80
80
80
80
80
ENDCHAR
STARTCHAR U_2522
ENCODING 9506
SWIDTH 1000 0
DWIDTH 12 0
BBX 6 12 6 -1
BITMAP
80
80
80
80
80
FC
FC
80
80
80
80
80
ENDCHAR
STARTCHAR U_2523
ENCODING 9507
SWIDTH 1000 0
DWIDTH 12 0
BBX 6 12 6 -1
BITMAP
C0
C0
C0
C0
C0
FC
FC
C0
C0
C0
C0
C0
ENDCHAR
STARTCHAR SF090000
ENCODING 9508
SWIDTH 1000 0
DWIDTH 12 0
BBX 7 12 0 -1
BITMAP
02
02
02
02
02
02
FE
02
02
02
02
02
ENDCHAR
STARTCHAR U_2525
ENCODING 9509
SWIDTH 1000 0
DWIDTH 12 0
BBX 7 12 0 -1
BITMAP
02
02
02
02
02
FE
FE
02
02
02
02
02
ENDCHAR
STARTCHAR U_2526
ENCODING 9510
SWIDTH 1000 0
DWIDTH 12 0
BBX 7 12 0 -1
BITMAP
06
06
06
06
06
06
FE
02
02
02
02
02
ENDCHAR
STARTCHAR U_2527
ENCODING 9511
SWIDTH 1000 0
DWIDTH 12 0
BBX 7 12 0 -1
BITMAP
02
02
02
02
02
02
FE
06
06
06
06
06
ENDCHAR
STARTCHAR U_2528
ENCODING 9512
SWIDTH 1000 0
DWIDTH 12 0
BBX 8 12 0 -1
BITMAP
03
03
03
03
03
03
FF
03
03
03
03
03
ENDCHAR
STARTCHAR U_2529
ENCODING 9513
SWIDTH 1000 0
DWIDTH 12 0
BBX 7 12 0 -1
BITMAP
06
06
06
06
06
06
FE
02
02
02
02
02
ENDCHAR
STARTCHAR U_252A
ENCODING 9514
SWIDTH 1000 0
DWIDTH 12 0
BBX 7 12 0 -1
BITMAP
02
02
02
02
02
FE
FE
06
06
06
06
06
ENDCHAR
STARTCHAR U_252B
ENCODING 9515
SWIDTH 1000 0
DWIDTH 12 0
BBX 7 12 0 -1
BITMAP
06
06
06
06
06
FE
FE
06
06
06
06
06
ENDCHAR
STARTCHAR SF060000
ENCODING 9516
SWIDTH 1000 0
DWIDTH 12 0
BBX 12 6 0 -1
BITMAP
FFF0
0200
0200
0200
0200
0200
ENDCHAR
STARTCHAR U_252D
ENCODING 9517
SWIDTH 1000 0
DWIDTH 12 0
BBX 12 6 0 -1
BITMAP
FFF0
FE00
0200
0200
0200
0200
ENDCHAR
STARTCHAR U_252E
ENCODING 9518
SWIDTH 1000 0
DWIDTH 12 0
BBX 12 6 0 -1
BITMAP
FFF0
03F0
0200
0200
0200
0200
ENDCHAR
STARTCHAR U_252F
ENCODING 9519
SWIDTH 1000 0
DWIDTH 12 0
BBX 12 6 0 -1
BITMAP
FFF0
FFF0
0200
0200
0200
0200
ENDCHAR
STARTCHAR U_2530
ENCODING 9520
SWIDTH 1000 0
DWIDTH 12 0
BBX 12 6 0 -1
BITMAP
FFF0
0300
0300
0300
0300
0300
ENDCHAR
STARTCHAR U_2531
ENCODING 9521
SWIDTH 1000 0
DWIDTH 12 0
BBX 12 6 0 -1
BITMAP
FFF0
FE00
0600
0600
0600
0600
ENDCHAR
STARTCHAR U_2532
ENCODING 9522
SWIDTH 1000 0
DWIDTH 12 0
BBX 12 6 0 -1
BITMAP
FFF0
03F0
0300
0300
0300
0300
ENDCHAR
STARTCHAR U_2533
ENCODING 9523
SWIDTH 1000 0
DWIDTH 12 0
BBX 12 6 0 -1
BITMAP
FFF0
FFF0
0300
0300
0300
0300
ENDCHAR
STARTCHAR SF070000
ENCODING 9524
SWIDTH 1000 0
DWIDTH 12 0
BBX 12 7 0 4
BITMAP
0200
0200
0200
0200
0200
0200
FFF0
ENDCHAR
STARTCHAR U_2535
ENCODING 9525
SWIDTH 1000 0
DWIDTH 12 0
BBX 12 7 0 4
BITMAP
0200
0200
0200
0200
0200
FE00
FFF0
ENDCHAR
STARTCHAR U_2536
ENCODING 9526
SWIDTH 1000 0
DWIDTH 12 0
BBX 12 7 0 4
BITMAP
0200
0200
0200
0200
0200
03F0
FFF0
ENDCHAR
STARTCHAR U_2537
ENCODING 9527
SWIDTH 1000 0
DWIDTH 12 0
BBX 12 7 0 4
BITMAP
0200
0200
0200
0200
0200
FFF0
FFF0
ENDCHAR
STARTCHAR U_2538
ENCODING 9528
SWIDTH 1000 0
DWIDTH 12 0
BBX 12 7 0 4
BITMAP
0600
0600
0600
0600
0600
0600
FFF0
ENDCHAR
STARTCHAR U_2539
ENCODING 9529
SWIDTH 1000 0
DWIDTH 12 0
BBX 12 7 0 4
BITMAP
0600
0600
0600
0600
0600
FE00
FFF0
ENDCHAR
STARTCHAR U_253A
ENCODING 9530
SWIDTH 1000 0
DWIDTH 12 0
BBX 12 7 0 4
BITMAP
0300
0300
0300
0300
0300
03F0
FFF0
ENDCHAR
STARTCHAR U_253B
ENCODING 9531
SWIDTH 1000 0
DWIDTH 12 0
BBX 12 7 0 4
BITMAP
0300
0300
0300
0300
0300
FFF0
FFF0
ENDCHAR
STARTCHAR SF050000
ENCODING 9532
SWIDTH 1000 0
DWIDTH 12 0
BBX 12 12 0 -1
BITMAP
0200
0200
0200
0200
0200
0200
FFF0
0200
0200
0200
0200
0200
ENDCHAR
STARTCHAR U_253D
ENCODING 9533
SWIDTH 1000 0
DWIDTH 12 0
BBX 12 12 0 -1
BITMAP
0200
0200
0200
0200
0200
FE00
FFF0
0200
0200
0200
0200
0200
ENDCHAR
STARTCHAR U_253E
ENCODING 9534
SWIDTH 1000 0
DWIDTH 12 0
BBX 12 12 0 -1
BITMAP
0200
0200
0200
0200
0200
03F0
FFF0
0200
0200
0200
0200
0200
ENDCHAR
STARTCHAR U_253F
ENCODING 9535
SWIDTH 1000 0
DWIDTH 12 0
BBX 12 12 0 -1
BITMAP
0200
0200
0200
0200
0200
FFF0
FFF0
0200
0200
0200
0200
0200
ENDCHAR
STARTCHAR U_2540
ENCODING 9536
SWIDTH 1000 0
DWIDTH 12 0
BBX 12 12 0 -1
BITMAP
0600
0600
0600
0600
0600
0600
FFF0
0200
0200
0200
0200
0200
ENDCHAR
STARTCHAR U_2541
ENCODING 9537
SWIDTH 1000 0
DWIDTH 12 0
BBX 12 12 0 -1
BITMAP
0200
0200
0200
0200
0200
0200
FFF0
0600
0600
0600
0600
0600
ENDCHAR
STARTCHAR U_2542
ENCODING 9538
SWIDTH 1000 0
DWIDTH 12 0
BBX 12 12 0 -1
BITMAP
0600
0600
0600
0600
0600
0600
FFF0
0600
0600
0600
0600
0600
ENDCHAR
STARTCHAR U_2543
ENCODING 9539
SWIDTH 1000 0
DWIDTH 12 0
BBX 12 12 0 -1
BITMAP
0600
0600
0600
0600
0600
FE00
FFF0
0200
0200
0200
0200
0200
ENDCHAR
STARTCHAR U_2544
ENCODING 9540
SWIDTH 1000 0
DWIDTH 12 0
BBX 12 12 0 -1
BITMAP
0300
0300
0300
0300
0300
03F0
FFF0
0200
0200
0200
0200
0200
ENDCHAR
STARTCHAR U_2545
ENCODING 9541
SWIDTH 1000 0
DWIDTH 12 0
BBX 12 12 0 -1
BITMAP
0200
0200
0200
0200
0200
0200
FFF0
FE00
0600
0600
0600
0600
ENDCHAR
STARTCHAR U_2546
ENCODING 9542
SWIDTH 1000 0
DWIDTH 12 0
BBX 12 12 0 -1
BITMAP
0200
0200
0200
0200
0200
0200
FFF0
03F0
0300
0300
0300
0300
ENDCHAR
STARTCHAR U_2547
ENCODING 9543
SWIDTH 1000 0
DWIDTH 12 0
BBX 12 12 0 -1
BITMAP
0300
0300
0300
0300
0300
FFF0
FFF0
0200
0200
0200
0200
0200
ENDCHAR
STARTCHAR U_2548
ENCODING 9544
SWIDTH 1000 0
DWIDTH 12 0
BBX 12 12 0 -1
BITMAP
0200
0200
0200
0200
0200
FFF0
FFF0
0200
0200
0200
0200
0200
ENDCHAR
STARTCHAR U_2549
ENCODING 9545
SWIDTH 1000 0
DWIDTH 12 0
BBX 12 12 0 -1
BITMAP
0600
0600
0600
0600
0600
FE00
FFF0
0600
0600
0600
0600
0600
ENDCHAR
STARTCHAR U_254A
ENCODING 9546
SWIDTH 1000 0
DWIDTH 12 0
BBX 12 12 0 -1
BITMAP
0300
0300
0300
0300
0300
03F0
FFF0
0300
0300
0300
0300
0300
ENDCHAR
STARTCHAR U_254B
ENCODING 9547
SWIDTH 1000 0
DWIDTH 12 0
BBX 12 12 0 -1
BITMAP
0300
0300
0300
0300
0300
FFF0
FFF0
0300
0300
0300
0300
0300
ENDCHAR
STARTCHAR SF430000
ENCODING 9552
SWIDTH 1000 0
DWIDTH 12 0
BBX 12 3 0 3
BITMAP
FFF0
0000
FFF0
ENDCHAR
STARTCHAR SF240000
ENCODING 9553
SWIDTH 1000 0
DWIDTH 12 0
BBX 3 12 5 -1
BITMAP
A0
A0
A0
A0
A0
A0
A0
A0
A0
A0
A0
A0
ENDCHAR
STARTCHAR SF510000
ENCODING 9554
SWIDTH 1000 0
DWIDTH 12 0
BBX 6 7 6 -1
BITMAP
FC
80
FC
80
80
80
80
ENDCHAR
STARTCHAR SF520000
ENCODING 9555
SWIDTH 1000 0
DWIDTH 12 0
BBX 7 6 5 -1
BITMAP
FE
A0
A0
A0
A0
A0
ENDCHAR
STARTCHAR SF390000
ENCODING 9556
SWIDTH 1000 0
DWIDTH 12 0
BBX 7 7 5 -1
BITMAP
FE
80
BE
A0
A0
A0
A0
ENDCHAR
STARTCHAR SF220000
ENCODING 9557
SWIDTH 1000 0
DWIDTH 12 0
BBX 7 7 0 -1
BITMAP
FE
02
FE
02
02
02
02
ENDCHAR
STARTCHAR SF210000
ENCODING 9558
SWIDTH 1000 0
DWIDTH 12 0
BBX 7 6 0 -1
BITMAP
FE
0A
0A
0A
0A
0A
ENDCHAR
STARTCHAR SF250000
ENCODING 9559
SWIDTH 1000 0
DWIDTH 12 0
BBX 7 7 0 -1
BITMAP
FE
02
FA
0A
0A
0A
0A
ENDCHAR
STARTCHAR SF500000
ENCODING 9560
SWIDTH 1000 0
DWIDTH 12 0
BBX 6 7 6 4
BITMAP
80
80
80
80
FC
80
FC
ENDCHAR
STARTCHAR SF490000
ENCODING 9561
SWIDTH 1000 0
DWIDTH 12 0
BBX 7 7 5 4
BITMAP
A0
A0
A0
A0
A0
A0
FE
ENDCHAR
STARTCHAR SF380000
ENCODING 9562
SWIDTH 1000 0
DWIDTH 12 0
BBX 7 7 5 4
BITMAP
A0
A0
A0
A0
BE
80
FE
ENDCHAR
STARTCHAR SF280000
ENCODING 9563
SWIDTH 1000 0
DWIDTH 12 0
BBX 7 7 0 4
BITMAP
02
02
02
02
FE
02
FE
ENDCHAR
STARTCHAR SF270000
ENCODING 9564
SWIDTH 1000 0
DWIDTH 12 0
BBX 7 7 0 4
BITMAP
0A
0A
0A
0A
0A
0A
FE
ENDCHAR
STARTCHAR SF260000
ENCODING 9565
SWIDTH 1000 0
DWIDTH 12 0
BBX 7 7 0 4
BITMAP
0A
0A
0A
0A
FA
02
FE
ENDCHAR
STARTCHAR SF360000
ENCODING 9566
SWIDTH 1000 0
DWIDTH 12 0
BBX 6 12 6 -1
BITMAP
80
80
80
80
80
FC
80
FC
80
80
80
80
ENDCHAR
STARTCHAR SF370000
ENCODING 9567
SWIDTH 1000 0
DWIDTH 12 0
BBX 7 12 5 -1
BITMAP
A0
A0
A0
A0
A0
A0
BE
A0
A0
A0
A0
A0
ENDCHAR
STARTCHAR SF420000
ENCODING 9568
SWIDTH 1000 0
DWIDTH 12 0
BBX 7 12 5 -1
BITMAP
A0
A0
A0
A0
A0
BE
80
BE
A0
A0
A0
A0
ENDCHAR
STARTCHAR SF190000
ENCODING 9569
SWIDTH 1000 0
DWIDTH 12 0
BBX 7 12 0 -1
BITMAP
02
02
02
02
FE
02
FE
02
02
02
02
02
ENDCHAR
STARTCHAR SF200000
ENCODING 9570
SWIDTH 1000 0
DWIDTH 12 0
BBX 8 12 0 -1
BITMAP
05
05
05
05
05
05
FD
05
05
05
05
05
ENDCHAR
STARTCHAR SF230000
ENCODING 9571
SWIDTH 1000 0
DWIDTH 12 0
BBX 7 12 0 -1
BITMAP
0A
0A
0A
0A
0A
FA
02
FA
0A
0A
0A
0A
ENDCHAR
STARTCHAR SF470000
ENCODING 9572
SWIDTH 1000 0
DWIDTH 12 0
BBX 12 7 0 -1
BITMAP
FFF0
0000
FFF0
0200
0200
0200
0200
ENDCHAR
STARTCHAR SF480000
ENCODING 9573
SWIDTH 1000 0
DWIDTH 12 0
BBX 12 6 0 -1
BITMAP
FFF0
0500
0500
0500
0500
0500
ENDCHAR
STARTCHAR SF410000
ENCODING 9574
SWIDTH 1000 0
DWIDTH 12 0
BBX 12 7 0 -1
BITMAP
FFF0
0000
FDF0
0500
0500
0500
0500
ENDCHAR
STARTCHAR SF450000
ENCODING 9575
SWIDTH 1000 0
DWIDTH 12 0
BBX 12 7 0 4
BITMAP
0200
0200
0200
0200
FFF0
0000
FFF0
ENDCHAR
STARTCHAR SF460000
ENCODING 9576
SWIDTH 1000 0
DWIDTH 12 0
BBX 12 7 0 4
BITMAP
0500
0500
0500
0500
0500
0500
FFF0
ENDCHAR
STARTCHAR SF400000
ENCODING 9577
SWIDTH 1000 0
DWIDTH 12 0
BBX 12 8 0 3
BITMAP
0500
0500
0500
0500
0500
FDF0
0000
FFF0
ENDCHAR
STARTCHAR SF540000
ENCODING 9578
SWIDTH 1000 0
DWIDTH 12 0
BBX 12 12 0 -1
BITMAP
0200
0200
0200
0200
0200
FFF0
0000
FFF0
0200
0200
0200
0200
ENDCHAR
STARTCHAR SF530000
ENCODING 9579
SWIDTH 1000 0
DWIDTH 12 0
BBX 12 12 0 -1
BITMAP
0A00
0A00
0A00
0A00
0A00
0A00
FBF0
0A00
0A00
0A00
0A00
0A00
ENDCHAR
STARTCHAR SF440000
ENCODING 9580
SWIDTH 1000 0
DWIDTH 12 0
BBX 12 12 0 -1
BITMAP
0500
0500
0500
0500
0500
FDF0
0000
FDF0
0500
0500
0500
0500
ENDCHAR
STARTCHAR U_256D
ENCODING 9581
SWIDTH 1000 0
DWIDTH 12 0
BBX 6 7 6 -1
BITMAP
0C
30
40
40
80
80
80
ENDCHAR
STARTCHAR U_256E
ENCODING 9582
SWIDTH 1000 0
DWIDTH 12 0
BBX 6 7 0 -1
BITMAP
C0
30
08
08
04
04
04
ENDCHAR
STARTCHAR U_256F
ENCODING 9583
SWIDTH 1000 0
DWIDTH 12 0
BBX 7 7 0 4
BITMAP
02
02
04
04
08
10
E0
ENDCHAR
STARTCHAR U_2570
ENCODING 9584
SWIDTH 1000 0
DWIDTH 12 0
BBX 6 7 6 4
BITMAP
80
80
80
40
40
30
0C
ENDCHAR
STARTCHAR U_2571
ENCODING 9585
SWIDTH 1000 0
DWIDTH 12 0
BBX 10 10 1 0
BITMAP
0040
0080
0100
0200
0400
0800
1000
2000
4000
8000
ENDCHAR
STARTCHAR U_2572
ENCODING 9586
SWIDTH 1000 0
DWIDTH 12 0
BBX 11 11 0 -1
BITMAP
8000
4000
2000
1000
0800
0400
0200
0100
0080
0040
0020
ENDCHAR
STARTCHAR U_2573
ENCODING 9587
SWIDTH 1000 0
DWIDTH 12 0
BBX 12 12 0 -1
BITMAP
8010
4020
2040
1080
0900
0600
0600
0900
1080
2040
4020
8010
ENDCHAR
STARTCHAR U_2574
ENCODING 9588
SWIDTH 1000 0
DWIDTH 12 0
BBX 12 1 0 9
BITMAP
FFF0
ENDCHAR
STARTCHAR U_2581
ENCODING 9601
SWIDTH 1000 0
DWIDTH 12 0
BBX 12 2 0 -1
BITMAP
FFF0
FFF0
ENDCHAR
STARTCHAR U_2582
ENCODING 9602
SWIDTH 1000 0
DWIDTH 12 0
BBX 12 3 0 -1
BITMAP
FFF0
FFF0
FFF0
ENDCHAR
STARTCHAR U_2583
ENCODING 9603
SWIDTH 1000 0
DWIDTH 12 0
BBX 12 5 0 -1
BITMAP
FFF0
FFF0
FFF0
FFF0
FFF0
ENDCHAR
STARTCHAR dnblock
ENCODING 9604
SWIDTH 1000 0
DWIDTH 12 0
BBX 12 6 0 -1
BITMAP
FFF0
FFF0
FFF0
FFF0
FFF0
FFF0
ENDCHAR
STARTCHAR U_2585
ENCODING 9605
SWIDTH 1000 0
DWIDTH 12 0
BBX 12 8 0 -1
BITMAP
FFF0
FFF0
FFF0
FFF0
FFF0
FFF0
FFF0
FFF0
ENDCHAR
STARTCHAR U_2586
ENCODING 9606
SWIDTH 1000 0
DWIDTH 12 0
BBX 12 9 0 -1
BITMAP
FFF0
FFF0
FFF0
FFF0
FFF0
FFF0
FFF0
FFF0
FFF0
ENDCHAR
STARTCHAR U_2587
ENCODING 9607
SWIDTH 1000 0
DWIDTH 12 0
BBX 12 11 0 -1
BITMAP
FFF0
FFF0
FFF0
FFF0
FFF0
FFF0
FFF0
FFF0
FFF0
FFF0
FFF0
ENDCHAR
STARTCHAR block
ENCODING 9608
SWIDTH 1000 0
DWIDTH 12 0
BBX 12 12 0 -1
BITMAP
FFF0
FFF0
FFF0
FFF0
FFF0
FFF0
FFF0
FFF0
FFF0
FFF0
FFF0
FFF0
ENDCHAR
STARTCHAR U_2589
ENCODING 9609
SWIDTH 1000 0
DWIDTH 12 0
BBX 11 12 0 -1
BITMAP
FFE0
FFE0
FFE0
FFE0
FFE0
FFE0
FFE0
FFE0
FFE0
FFE0
FFE0
FFE0
ENDCHAR
STARTCHAR U_258A
ENCODING 9610
SWIDTH 1000 0
DWIDTH 12 0
BBX 9 12 0 -1
BITMAP
FF80
FF80
FF80
FF80
FF80
FF80
FF80
FF80
FF80
FF80
FF80
FF80
ENDCHAR
STARTCHAR U_258B
ENCODING 9611
SWIDTH 1000 0
DWIDTH 12 0
BBX 8 12 0 -1
BITMAP
FF
FF
FF
FF
FF
FF
FF
FF
FF
FF
FF
FF
ENDCHAR
STARTCHAR lfblock
ENCODING 9612
SWIDTH 1000 0
DWIDTH 12 0
BBX 6 12 0 -1
BITMAP
FC
FC
FC
FC
FC
FC
FC
FC
FC
FC
FC
FC
ENDCHAR
STARTCHAR U_258D
ENCODING 9613
SWIDTH 1000 0
DWIDTH 12 0
BBX 5 12 0 -1
BITMAP
F8
F8
F8
F8
F8
F8
F8
F8
F8
F8
F8
F8
ENDCHAR
STARTCHAR U_258E
ENCODING 9614
SWIDTH 1000 0
DWIDTH 12 0
BBX 3 12 0 -1
BITMAP
E0
E0
E0
E0
E0
E0
E0
E0
E0
E0
E0
E0
ENDCHAR
STARTCHAR U_258F
ENCODING 9615
SWIDTH 1000 0
DWIDTH 12 0
BBX 2 12 0 -1
BITMAP
C0
C0
C0
C0
C0
C0
C0
C0
C0
C0
C0
C0
ENDCHAR
STARTCHAR dkshade
ENCODING 9619
SWIDTH 1000 0
DWIDTH 12 0
BBX 10 10 1 0
BITMAP
FFC0
FFC0
FFC0
FFC0
FFC0
FFC0
FFC0
FFC0
FFC0
FFC0
ENDCHAR
STARTCHAR U_2594
ENCODING 9620
SWIDTH 1000 0
DWIDTH 12 0
BBX 12 1 0 9
BITMAP
FFF0
ENDCHAR
STARTCHAR U_2595
ENCODING 9621
SWIDTH 1000 0
DWIDTH 12 0
BBX 1 12 11 -1
BITMAP
80
80
80
80
80
80
80
80
80
80
80
80
ENDCHAR
STARTCHAR filledbox
ENCODING 9632
SWIDTH 1000 0
DWIDTH 12 0
BBX 10 10 1 0
BITMAP
FFC0
FFC0
FFC0
FFC0
FFC0
FFC0
FFC0
FFC0
FFC0
FFC0
ENDCHAR
STARTCHAR H22073
ENCODING 9633
SWIDTH 1000 0
DWIDTH 12 0
BBX 10 11 1 -1
BITMAP
FFC0
8040
8040
8040
8040
8040
8040
8040
8040
8040
FFC0
ENDCHAR
STARTCHAR triagup
ENCODING 9650
SWIDTH 1000 0
DWIDTH 12 0
BBX 11 10 0 0
BITMAP
0400
0E00
0E00
1F00
1F00
3F80
3F80
7FC0
7FC0
FFE0
ENDCHAR
STARTCHAR U_25B3
ENCODING 9651
SWIDTH 1000 0
DWIDTH 12 0
BBX 11 10 0 0
BITMAP
0400
0A00
0A00
1100
1100
2080
2080
4040
4040
FFE0
ENDCHAR
STARTCHAR triagdn
ENCODING 9660
SWIDTH 1000 0
DWIDTH 12 0
BBX 11 10 0 0
BITMAP
FFE0
7FC0
7FC0
3F80
3F80
1F00
1F00
0E00
0E00
0400
ENDCHAR
STARTCHAR U_25BD
ENCODING 9661
SWIDTH 1000 0
DWIDTH 12 0
BBX 11 10 0 0
BITMAP
FFE0
4040
4040
2080
2080
1100
1100
0A00
0A00
0400
ENDCHAR
STARTCHAR U_25C6
ENCODING 9670
SWIDTH 1000 0
DWIDTH 12 0
BBX 11 11 0 -1
BITMAP
0400
0E00
1F00
3F80
7FC0
FFE0
7FC0
3F80
1F00
0E00
0400
ENDCHAR
STARTCHAR U_25C7
ENCODING 9671
SWIDTH 1000 0
DWIDTH 12 0
BBX 11 11 0 -1
BITMAP
0400
0A00
1100
2080
4040
8020
4040
2080
1100
0A00
0400
ENDCHAR
STARTCHAR circle
ENCODING 9675
SWIDTH 1000 0
DWIDTH 12 0
BBX 11 11 0 -1
BITMAP
1F00
2080
4040
8020
8020
8020
8020
8020
4040
2080
1F00
ENDCHAR
STARTCHAR U_25CE
ENCODING 9678
SWIDTH 1000 0
DWIDTH 12 0
BBX 12 12 0 -1
BITMAP
0F00
30C0
4020
4620
8910
9090
9090
8910
4620
4020
30C0
0F00
ENDCHAR
STARTCHAR H18533
ENCODING 9679
SWIDTH 1000 0
DWIDTH 12 0
BBX 11 11 0 -1
BITMAP
1F00
3F80
7FC0
FFE0
FFE0
FFE0
FFE0
FFE0
7FC0
3F80
1F00
ENDCHAR
STARTCHAR U_25E2
ENCODING 9698
SWIDTH 1000 0
DWIDTH 12 0
BBX 11 11 1 -1
BITMAP
0020
0060
00E0
01E0
03E0
07E0
0FE0
1FE0
3FE0
7FE0
FFE0
ENDCHAR
STARTCHAR U_25E3
ENCODING 9699
SWIDTH 1000 0
DWIDTH 12 0
BBX 12 12 0 -1
BITMAP
8000
C000
E000
F000
F800
FC00
FE00
FF00
FF80
FFC0
FFE0
FFF0
ENDCHAR
STARTCHAR U_25E4
ENCODING 9700
SWIDTH 1000 0
DWIDTH 12 0
BBX 12 12 0 -1
BITMAP
FFF0
FFE0
FFC0
FF80
FF00
FE00
FC00
F800
F000
E000
C000
8000
ENDCHAR
STARTCHAR U_25E5
ENCODING 9701
SWIDTH 1000 0
DWIDTH 12 0
BBX 11 11 1 0
BITMAP
FFE0
7FE0
3FE0
1FE0
0FE0
07E0
03E0
01E0
00E0
0060
0020
ENDCHAR
STARTCHAR U_2605
ENCODING 9733
SWIDTH 1000 0
DWIDTH 12 0
BBX 9 10 2 0
BITMAP
0800
0800
1C00
1C00
FF80
7F00
3E00
3E00
7700
4100
ENDCHAR
STARTCHAR U_2606
ENCODING 9734
SWIDTH 1000 0
DWIDTH 12 0
BBX 10 11 1 -1
BITMAP
0800
0800
1C00
1400
E3C0
4080
2100
2A00
3500
2300
4080
ENDCHAR
STARTCHAR U_2609
ENCODING 9737
SWIDTH 1000 0
DWIDTH 12 0
BBX 9 9 1 0
BITMAP
3E00
4100
8080
8080
8880
8080
8080
4100
3E00
ENDCHAR
STARTCHAR female
ENCODING 9792
SWIDTH 1000 0
DWIDTH 12 0
BBX 9 11 1 -1
BITMAP
1C00
2200
2200
2200
1C00
0800
0800
FF80
0800
0800
0800
ENDCHAR
STARTCHAR U_2641
ENCODING 9793
SWIDTH 1000 0
DWIDTH 12 0
BBX 9 9 2 0
BITMAP
3E00
4900
8880
8880
FF80
8880
8880
4900
3E00
ENDCHAR
STARTCHAR male
ENCODING 9794
SWIDTH 1000 0
DWIDTH 12 0
BBX 7 11 2 -1
BITMAP
10
38
54
92
10
10
38
44
44
44
38
ENDCHAR
STARTCHAR U_2F00
ENCODING 12032
SWIDTH 1000 0
DWIDTH 12 0
BBX 11 2 0 4
BITMAP
0040
FFE0
ENDCHAR
STARTCHAR U_2F01
ENCODING 12033
SWIDTH 1000 0
DWIDTH 12 0
BBX 2 11 6 -1
BITMAP
80
C0
80
80
80
80
80
80
80
80
80
ENDCHAR
STARTCHAR U_2F02
ENCODING 12034
SWIDTH 1000 0
DWIDTH 12 0
BBX 3 4 4 3
BITMAP
80
40
20
20
ENDCHAR
STARTCHAR U_2F03
ENCODING 12035
SWIDTH 1000 0
DWIDTH 12 0
BBX 5 11 0 -1
BITMAP
08
08
08
08
08
08
08
10
10
20
C0
ENDCHAR
STARTCHAR U_2F04
ENCODING 12036
SWIDTH 1000 0
DWIDTH 12 0
BBX 9 11 2 -1
BITMAP
FE00
0200
0400
0800
1000
2000
4000
8080
8080
8080
7F80
ENDCHAR
STARTCHAR U_2F05
ENCODING 12037
SWIDTH 1000 0
DWIDTH 12 0
BBX 4 10 4 0
BITMAP
10
20
20
20
20
20
20
20
20
E0
ENDCHAR
STARTCHAR U_2F06
ENCODING 12038
SWIDTH 1000 0
DWIDTH 12 0
BBX 10 9 1 0
BITMAP
0100
7F80
0000
0000
0000
0000
0000
0080
FFC0
ENDCHAR
STARTCHAR U_2F07
ENCODING 12039
SWIDTH 1000 0
DWIDTH 12 0
BBX 10 4 1 4
BITMAP
0800
0400
0400
FFC0
ENDCHAR
STARTCHAR U_2F08
ENCODING 12040
SWIDTH 1000 0
DWIDTH 12 0
BBX 11 11 0 -1
BITMAP
0400
0400
0400
0400
0400
0400
0A00
1100
2080
4060
8020
ENDCHAR
STARTCHAR U_2F09
ENCODING 12041
SWIDTH 1000 0
DWIDTH 12 0
BBX 11 11 0 -1
BITMAP
1100
1100
1100
1100
1100
1100
1100
1100
2120
4120
80E0
ENDCHAR
STARTCHAR U_2F0A
ENCODING 12042
SWIDTH 1000 0
DWIDTH 12 0
BBX 11 11 0 -1
BITMAP
1800
0400
0400
0400
0400
0400
0A00
1100
2080
4060
8020
ENDCHAR
STARTCHAR U_2F0B
ENCODING 12043
SWIDTH 1000 0
DWIDTH 12 0
BBX 11 10 0 0
BITMAP
0300
0100
1100
1100
1100
1100
1100
2080
4060
8020
ENDCHAR
STARTCHAR U_2F0C
ENCODING 12044
SWIDTH 1000 0
DWIDTH 12 0
BBX 10 11 1 -1
BITMAP
FFC0
8040
8040
8040
8040
8040
8040
8040
8040
8240
8180
ENDCHAR
STARTCHAR U_2F0D
ENCODING 12045
SWIDTH 1000 0
DWIDTH 12 0
BBX 11 4 0 3
BITMAP
4020
7FE0
8040
8040
ENDCHAR
STARTCHAR U_2F0E
ENCODING 12046
SWIDTH 1000 0
DWIDTH 12 0
BBX 5 11 3 -1
BITMAP
40
20
08
10
10
20
20
C0
40
40
40
ENDCHAR
STARTCHAR U_2F0F
ENCODING 12047
SWIDTH 1000 0
DWIDTH 12 0
BBX 11 11 0 -1
BITMAP
1F00
1100
1100
1100
1100
1100
1100
1100
2120
4120
80E0
ENDCHAR
STARTCHAR U_2F10
ENCODING 12048
SWIDTH 1000 0
DWIDTH 12 0
BBX 10 10 1 -1
BITMAP
8040
8040
8040
8040
8040
8040
8040
8040
FFC0
8040
ENDCHAR
STARTCHAR U_2F11
ENCODING 12049
SWIDTH 1000 0
DWIDTH 12 0
BBX 11 11 0 -1
BITMAP
0040
7FE0
0840
0840
0840
0840
1040
1040
2040
4240
8180
ENDCHAR
STARTCHAR U_2F12
ENCODING 12050
SWIDTH 1000 0
DWIDTH 12 0
BBX 9 11 1 -1
BITMAP
0800
0800
0800
FF80
0880
0880
1080
1080
2080
4480
8300
ENDCHAR
STARTCHAR U_2F13
ENCODING 12051
SWIDTH 1000 0
DWIDTH 12 0
BBX 10 11 1 -1
BITMAP
2000
3FC0
4040
8040
0040
0040
0040
0040
0040
0240
0180
ENDCHAR
STARTCHAR U_2F14
ENCODING 12052
SWIDTH 1000 0
DWIDTH 12 0
BBX 11 11 0 -1
BITMAP
1000
10C0
1080
1100
1200
1400
1800
F020
1020
1020
0FE0
ENDCHAR
STARTCHAR U_2F15
ENCODING 12053
SWIDTH 1000 0
DWIDTH 12 0
BBX 10 11 1 -1
BITMAP
8100
FF80
8000
8000
8000
8000
8000
8000
8080
FFC0
8000
ENDCHAR
STARTCHAR U_2F16
ENCODING 12054
SWIDTH 1000 0
DWIDTH 12 0
BBX 11 12 0 -1
BITMAP
0040
FFE0
4000
4000
4000
4000
4000
4000
4000
4000
4040
7FE0
ENDCHAR
STARTCHAR U_2F17
ENCODING 12055
SWIDTH 1000 0
DWIDTH 12 0
BBX 11 11 0 -1
BITMAP
0400
0400
0400
0440
FFE0
0400
0400
0400
0400
0400
0400
ENDCHAR
STARTCHAR U_2F18
ENCODING 12056
SWIDTH 1000 0
DWIDTH 12 0
BBX 6 11 4 -1
BITMAP
80
80
80
C0
A0
98
8C
84
80
80
80
ENDCHAR
STARTCHAR U_2F19
ENCODING 12057
SWIDTH 1000 0
DWIDTH 12 0
BBX 5 11 4 -1
BITMAP
F8
88
88
88
88
88
A8
90
80
80
80
ENDCHAR
STARTCHAR U_2F1A
ENCODING 12058
SWIDTH 1000 0
DWIDTH 12 0
BBX 11 11 0 -1
BITMAP
7FE0
4000
4000
4000
4000
4000
4000
4000
4000
8000
8000
ENDCHAR
STARTCHAR U_2F1B
ENCODING 12059
SWIDTH 1000 0
DWIDTH 12 0
BBX 11 10 0 -1
BITMAP
0400
0400
0800
0800
1000
1080
2040
4FE0
F020
4000
ENDCHAR
STARTCHAR U_2F1C
ENCODING 12060
SWIDTH 1000 0
DWIDTH 12 0
BBX 10 11 1 -1
BITMAP
0100
7F80
2100
2100
1200
1200
1200
0C00
0C00
3300
C0C0
ENDCHAR
STARTCHAR U_2F1D
ENCODING 12061
SWIDTH 1000 0
DWIDTH 12 0
BBX 8 9 2 0
BITMAP
FF
81
81
81
81
81
81
FF
81
ENDCHAR
STARTCHAR U_2F1E
ENCODING 12062
SWIDTH 1000 0
DWIDTH 12 0
BBX 10 11 1 -1
BITMAP
FFC0
8040
8040
8040
8040
8040
8040
8040
8040
FFC0
8040
ENDCHAR
STARTCHAR U_2F1F
ENCODING 12063
SWIDTH 1000 0
DWIDTH 12 0
BBX 11 11 0 -1
BITMAP
0400
0400
0400
0480
7FC0
0400
0400
0400
0400
0440
FFE0
ENDCHAR
STARTCHAR U_2F20
ENCODING 12064
SWIDTH 1000 0
DWIDTH 12 0
BBX 11 11 0 -1
BITMAP
0400
0400
0400
0440
FFE0
0400
0400
0400
0400
0480
7FC0
ENDCHAR
STARTCHAR U_2F21
ENCODING 12065
SWIDTH 1000 0
DWIDTH 12 0
BBX 11 7 0 3
BITMAP
0800
1F80
3080
4900
0600
0900
F0E0
ENDCHAR
STARTCHAR U_2F22
ENCODING 12066
SWIDTH 1000 0
DWIDTH 12 0
BBX 11 11 0 -1
BITMAP
0800
2800
1F80
1080
1100
2900
4600
0200
0500
18E0
E040
ENDCHAR
STARTCHAR U_2F23
ENCODING 12067
SWIDTH 1000 0
DWIDTH 12 0
BBX 11 11 0 -1
BITMAP
0800
0840
0FE0
1040
2880
4480
0500
0100
0200
0C00
F000
ENDCHAR
STARTCHAR U_2F24
ENCODING 12068
SWIDTH 1000 0
DWIDTH 12 0
BBX 11 11 0 -1
BITMAP
0400
0400
0440
FFE0
0400
0400
0400
0A00
1100
20E0
C040
ENDCHAR
STARTCHAR U_2F25
ENCODING 12069
SWIDTH 1000 0
DWIDTH 12 0
BBX 10 11 1 -1
BITMAP
1000
1000
1000
FFC0
1200
2200
2200
1400
0E00
1100
6080
ENDCHAR
STARTCHAR U_2F26
ENCODING 12070
SWIDTH 1000 0
DWIDTH 12 0
BBX 10 11 1 -1
BITMAP
FF80
0100
0200
0400
0400
FFC0
0400
0400
2400
1C00
0800
ENDCHAR
STARTCHAR U_2F27
ENCODING 12071
SWIDTH 1000 0
DWIDTH 12 0
BBX 11 5 0 3
BITMAP
0400
0200
7FE0
4020
8040
ENDCHAR
STARTCHAR U_2F28
ENCODING 12072
SWIDTH 1000 0
DWIDTH 12 0
BBX 10 11 1 -1
BITMAP
0200
0200
0200
FFC0
0200
2200
1200
0200
1200
0E00
0400
ENDCHAR
STARTCHAR U_2F29
ENCODING 12073
SWIDTH 1000 0
DWIDTH 12 0
BBX 11 11 0 -1
BITMAP
0400
0400
0400
2480
2480
4440
4440
8420
A420
1C00
0800
ENDCHAR
STARTCHAR U_2F2A
ENCODING 12074
SWIDTH 1000 0
DWIDTH 12 0
BBX 10 11 1 -1
BITMAP
0800
0800
FFC0
0800
0A00
0A00
0A00
0A00
1240
2240
C1C0
ENDCHAR
STARTCHAR U_2F2B
ENCODING 12075
SWIDTH 1000 0
DWIDTH 12 0
BBX 11 11 0 -1
BITMAP
3FE0
2020
2020
2020
3FE0
2020
2000
2000
2000
4000
8000
ENDCHAR
STARTCHAR U_2F2C
ENCODING 12076
SWIDTH 1000 0
DWIDTH 12 0
BBX 10 11 1 -1
BITMAP
0400
0400
4440
4440
4440
7FC0
4440
0400
0800
3000
C000
ENDCHAR
STARTCHAR U_2F2D
ENCODING 12077
SWIDTH 1000 0
DWIDTH 12 0
BBX 9 11 2 -1
BITMAP
0800
0800
8880
8880
8880
8880
8880
8880
8880
FF80
8080
ENDCHAR
STARTCHAR U_2F2E
ENCODING 12078
SWIDTH 1000 0
DWIDTH 12 0
BBX 11 10 0 0
BITMAP
2220
2220
4440
4440
8880
8880
4440
4440
2220
2220
ENDCHAR
STARTCHAR U_2F2F
ENCODING 12079
SWIDTH 1000 0
DWIDTH 12 0
BBX 11 10 0 0
BITMAP
0080
7FC0
0400
0400
0400
0400
0400
0400
0440
FFE0
ENDCHAR
STARTCHAR U_2F30
ENCODING 12080
SWIDTH 1000 0
DWIDTH 12 0
BBX 10 11 1 -1
BITMAP
FF80
0080
0080
0080
7F80
4080
4000
4000
4040
4040
3FC0
ENDCHAR
STARTCHAR U_2F31
ENCODING 12081
SWIDTH 1000 0
DWIDTH 12 0
BBX 9 11 1 -1
BITMAP
0800
0800
FF80
8880
8880
8880
8880
8880
8B80
0800
0800
ENDCHAR
STARTCHAR U_2F32
ENCODING 12082
SWIDTH 1000 0
DWIDTH 12 0
BBX 11 11 0 -1
BITMAP
7FC0
0400
0400
0400
FFE0
0400
0400
0400
0400
0400
0400
ENDCHAR
STARTCHAR U_2F33
ENCODING 12083
SWIDTH 1000 0
DWIDTH 12 0
BBX 9 11 1 -1
BITMAP
0800
0800
1300
2200
7E00
4400
0800
1100
2180
FE80
4080
ENDCHAR
STARTCHAR U_2F34
ENCODING 12084
SWIDTH 1000 0
DWIDTH 12 0
BBX 11 11 0 -1
BITMAP
0600
2200
3FE0
2000
2000
2000
2000
2000
2000
4000
8000
ENDCHAR
STARTCHAR U_2F35
ENCODING 12085
SWIDTH 1000 0
DWIDTH 12 0
BBX 11 11 0 -1
BITMAP
F800
1000
2000
2000
7800
0800
8800
5000
3000
2800
C7E0
ENDCHAR
STARTCHAR U_2F36
ENCODING 12086
SWIDTH 1000 0
DWIDTH 12 0
BBX 11 11 0 -1
BITMAP
1080
1080
1080
1080
FFE0
1080
1080
1080
2080
4080
8080
ENDCHAR
STARTCHAR U_2F37
ENCODING 12087
SWIDTH 1000 0
DWIDTH 12 0
BBX 11 11 0 -1
BITMAP
0500
0480
0400
04E0
1F00
E400
0400
0220
0120
00A0
0060
ENDCHAR
STARTCHAR U_2F38
ENCODING 12088
SWIDTH 1000 0
DWIDTH 12 0
BBX 8 11 2 -1
BITMAP
FE
02
02
7E
40
80
FF
01
01
12
0C
ENDCHAR
STARTCHAR U_2F39
ENCODING 12089
SWIDTH 1000 0
DWIDTH 12 0
BBX 10 11 1 -1
BITMAP
0080
FFC0
0080
0080
0080
7F80
0080
0080
0080
FF80
0080
ENDCHAR
STARTCHAR U_2F3A
ENCODING 12090
SWIDTH 1000 0
DWIDTH 12 0
BBX 6 11 3 -1
BITMAP
30
20
40
98
10
20
4C
88
10
20
C0
ENDCHAR
STARTCHAR U_2F3B
ENCODING 12091
SWIDTH 1000 0
DWIDTH 12 0
BBX 5 11 3 -1
BITMAP
10
10
20
48
88
10
20
60
A0
20
20
ENDCHAR
STARTCHAR U_2F3C
ENCODING 12092
SWIDTH 1000 0
DWIDTH 12 0
BBX 11 11 0 -1
BITMAP
0200
0100
0900
0800
0840
4820
4820
4880
8880
08C0
0780
ENDCHAR
STARTCHAR U_2F3D
ENCODING 12093
SWIDTH 1000 0
DWIDTH 12 0
BBX 11 11 0 -1
BITMAP
0A00
0900
0840
0FE0
F800
0880
0900
0620
0A20
31A0
C060
ENDCHAR
STARTCHAR U_2F3E
ENCODING 12094
SWIDTH 1000 0
DWIDTH 12 0
BBX 10 11 0 -1
BITMAP
00C0
3F00
2000
3FC0
2040
2040
3FC0
2040
2000
4000
8000
ENDCHAR
STARTCHAR U_2F3F
ENCODING 12095
SWIDTH 1000 0
DWIDTH 12 0
BBX 11 11 0 -1
BITMAP
00C0
7F00
0400
3FC0
0400
0400
FFE0
0400
2400
1C00
0800
ENDCHAR
STARTCHAR U_2F40
ENCODING 12096
SWIDTH 1000 0
DWIDTH 12 0
BBX 11 11 0 -1
BITMAP
0400
0440
FFE0
0400
3F80
1100
1100
0A00
0400
1B00
E0E0
ENDCHAR
STARTCHAR U_2F41
ENCODING 12097
SWIDTH 1000 0
DWIDTH 12 0
BBX 10 11 1 -1
BITMAP
0800
0880
0FC0
0800
7F80
2100
1200
0C00
0C00
3300
C0C0
ENDCHAR
STARTCHAR U_2F42
ENCODING 12098
SWIDTH 1000 0
DWIDTH 12 0
BBX 11 11 0 -1
BITMAP
0C00
0400
FFE0
2080
2080
1100
1100
0A00
0400
1B00
E0E0
ENDCHAR
STARTCHAR U_2F43
ENCODING 12099
SWIDTH 1000 0
DWIDTH 12 0
BBX 10 11 1 -1
BITMAP
2200
1A00
0A00
4200
3200
1200
03C0
FE00
0200
0200
0200
ENDCHAR
STARTCHAR U_2F44
ENCODING 12100
SWIDTH 1000 0
DWIDTH 12 0
BBX 11 11 0 -1
BITMAP
21C0
3E00
2000
2040
3FE0
2100
2100
2100
2100
4100
8100
ENDCHAR
STARTCHAR U_2F45
ENCODING 12101
SWIDTH 1000 0
DWIDTH 12 0
BBX 11 11 0 -1
BITMAP
0C00
0400
FFE0
0800
0840
0FE0
0840
1040
2440
4380
8100
ENDCHAR
STARTCHAR U_2F46
ENCODING 12102
SWIDTH 1000 0
DWIDTH 12 0
BBX 11 11 0 -1
BITMAP
7FC0
0400
0400
0400
FFE0
0A00
0A00
0A00
1220
2220
C1E0
ENDCHAR
STARTCHAR U_2F47
ENCODING 12103
SWIDTH 1000 0
DWIDTH 12 0
BBX 9 11 1 -1
BITMAP
8100
FF80
8100
8100
8100
FF00
8100
8100
8100
FF00
8100
ENDCHAR
STARTCHAR U_2F48
ENCODING 12104
SWIDTH 1000 0
DWIDTH 12 0
BBX 10 10 1 0
BITMAP
0080
FFC0
8080
8080
8080
FF80
8080
8080
FF80
8080
ENDCHAR
STARTCHAR U_2F49
ENCODING 12105
SWIDTH 1000 0
DWIDTH 12 0
BBX 10 11 0 -1
BITMAP
3FC0
2040
2040
3FC0
2040
2040
3FC0
2040
2240
41C0
8080
ENDCHAR
STARTCHAR U_2F4A
ENCODING 12106
SWIDTH 1000 0
DWIDTH 12 0
BBX 11 11 0 -1
BITMAP
0400
0440
FFE0
0400
0400
1500
1500
2480
2480
4440
8420
ENDCHAR
STARTCHAR U_2F4B
ENCODING 12107
SWIDTH 1000 0
DWIDTH 12 0
BBX 10 11 1 -1
BITMAP
2000
2000
3FC0
4040
8880
0800
0800
0C00
1200
2100
C0C0
ENDCHAR
STARTCHAR U_2F4C
ENCODING 12108
SWIDTH 1000 0
DWIDTH 12 0
BBX 11 11 0 -1
BITMAP
0400
0400
0400
2480
27C0
2400
2400
2400
2400
2440
FFE0
ENDCHAR
STARTCHAR U_2F4D
ENCODING 12109
SWIDTH 1000 0
DWIDTH 12 0
BBX 11 11 0 -1
BITMAP
FFE0
0800
0880
0FC0
1080
1080
2900
C500
0200
0C00
F000
ENDCHAR
STARTCHAR U_2F4E
ENCODING 12110
SWIDTH 1000 0
DWIDTH 12 0
BBX 10 11 1 -1
BITMAP
3E00
2200
2200
23C0
C000
3F80
1100
0A00
0400
1B00
E0C0
ENDCHAR
STARTCHAR U_2F4F
ENCODING 12111
SWIDTH 1000 0
DWIDTH 12 0
BBX 11 11 0 -1
BITMAP
3F80
2480
2480
2480
FFE0
2480
2480
7FE0
0880
1080
2300
ENDCHAR
STARTCHAR U_2F50
ENCODING 12112
SWIDTH 1000 0
DWIDTH 12 0
BBX 11 11 0 -1
BITMAP
0200
2200
2240
2280
3B00
2200
2200
2200
3A20
E220
41E0
ENDCHAR
STARTCHAR U_2F51
ENCODING 12113
SWIDTH 1000 0
DWIDTH 12 0
BBX 11 11 0 -1
BITMAP
0380
7C00
0400
0580
7E00
0400
04E0
FF00
0420
0420
03E0
ENDCHAR
STARTCHAR U_2F52
ENCODING 12114
SWIDTH 1000 0
DWIDTH 12 0
BBX 11 11 0 -1
BITMAP
0180
7E00
4200
4200
7FE0
4200
4200
4200
5920
E0A0
4060
ENDCHAR
STARTCHAR U_2F53
ENCODING 12115
SWIDTH 1000 0
DWIDTH 12 0
BBX 11 11 0 -1
BITMAP
1000
1FE0
2000
5F80
8000
7F80
0080
00A0
00A0
0060
0020
ENDCHAR
STARTCHAR U_2F54
ENCODING 12116
SWIDTH 1000 0
DWIDTH 12 0
BBX 11 11 0 -1
BITMAP
0400
0400
04C0
FC80
1700
1600
1500
2500
5480
8C60
0820
ENDCHAR
STARTCHAR U_2F55
ENCODING 12117
SWIDTH 1000 0
DWIDTH 12 0
BBX 11 11 0 -1
BITMAP
0400
0400
2460
2440
2480
4500
0A00
0900
1080
2060
C020
ENDCHAR
STARTCHAR U_2F56
ENCODING 12118
SWIDTH 1000 0
DWIDTH 12 0
BBX 11 11 0 -1
BITMAP
00C0
3F80
2480
2480
2480
2480
2480
2480
2480
4440
8020
ENDCHAR
STARTCHAR U_2F57
ENCODING 12119
SWIDTH 1000 0
DWIDTH 12 0
BBX 11 11 0 -1
BITMAP
1080
2040
4020
80A0
1080
1100
0A00
0400
0A00
3180
C060
ENDCHAR
STARTCHAR U_2F58
ENCODING 12120
SWIDTH 1000 0
DWIDTH 12 0
BBX 10 11 1 -1
BITMAP
6100
1A00
0600
1900
E280
2200
1200
0C00
0C00
3300
C0C0
ENDCHAR
STARTCHAR U_2F59
ENCODING 12121
SWIDTH 1000 0
DWIDTH 12 0
BBX 8 11 1 -1
BITMAP
11
11
11
1F
01
FF
11
11
11
21
C1
ENDCHAR
STARTCHAR U_2F5A
ENCODING 12122
SWIDTH 1000 0
DWIDTH 12 0
BBX 11 11 0 -1
BITMAP
2100
2100
2100
3FE0
2000
2000
3F00
2100
2100
4100
8100
ENDCHAR
STARTCHAR U_2F5B
ENCODING 12123
SWIDTH 1000 0
DWIDTH 12 0
BBX 10 11 1 -1
BITMAP
FFC0
0200
2200
4200
FFC0
0600
0A00
1200
2200
5E00
8400
ENDCHAR
STARTCHAR U_2F5C
ENCODING 12124
SWIDTH 1000 0
DWIDTH 12 0
BBX 11 11 0 -1
BITMAP
0400
4480
7FC0
8400
0400
0440
FFE0
0400
0400
0400
0400
ENDCHAR
STARTCHAR U_2F5D
ENCODING 12125
SWIDTH 1000 0
DWIDTH 12 0
BBX 11 11 0 -1
BITMAP
0500
0480
0400
FFE0
0400
0400
0600
0900
1080
2040
C020
ENDCHAR
STARTCHAR U_2F5E
ENCODING 12126
SWIDTH 1000 0
DWIDTH 12 0
BBX 11 11 0 -1
BITMAP
0400
0200
FFE0
0400
0880
1100
3E00
0400
0880
1340
7C40
ENDCHAR
STARTCHAR U_2F5F
ENCODING 12127
SWIDTH 1000 0
DWIDTH 12 0
BBX 11 11 0 -1
BITMAP
7FC0
0400
0400
0400
0400
3F80
0400
0500
0480
0400
FFE0
ENDCHAR
STARTCHAR U_2F60
ENCODING 12128
SWIDTH 1000 0
DWIDTH 12 0
BBX 11 11 0 -1
BITMAP
01C0
3F00
2500
2500
2500
2480
2480
2440
2540
47A0
8CA0
ENDCHAR
STARTCHAR U_2F61
ENCODING 12129
SWIDTH 1000 0
DWIDTH 12 0
BBX 11 11 0 -1
BITMAP
0040
FFE0
1000
1F00
1100
2900
2500
2500
2120
FD20
40E0
ENDCHAR
STARTCHAR U_2F62
ENCODING 12130
SWIDTH 1000 0
DWIDTH 12 0
BBX 10 11 1 -1
BITMAP
2100
2100
FFC0
2100
2100
2100
3F00
2100
2100
3F00
2100
ENDCHAR
STARTCHAR U_2F63
ENCODING 12131
SWIDTH 1000 0
DWIDTH 12 0
BBX 11 11 0 -1
BITMAP
0200
2200
2200
3FE0
4200
8200
1FC0
0200
0200
0200
7FE0
ENDCHAR
STARTCHAR U_2F64
ENCODING 12132
SWIDTH 1000 0
DWIDTH 12 0
BBX 11 11 0 -1
BITMAP
3FE0
2220
2220
3FE0
2220
2220
3FE0
2220
2220
42E0
8040
ENDCHAR
STARTCHAR U_2F65
ENCODING 12133
SWIDTH 1000 0
DWIDTH 12 0
BBX 9 10 2 -1
BITMAP
FF80
8880
8880
8880
FF80
8880
8880
8880
FF80
8080
ENDCHAR
STARTCHAR U_2F66
ENCODING 12134
SWIDTH 1000 0
DWIDTH 12 0
BBX 11 11 0 -1
BITMAP
7FE0
0220
0240
0200
1200
13E0
1200
1200
2A00
4600
83E0
ENDCHAR
STARTCHAR U_2F67
ENCODING 12135
SWIDTH 1000 0
DWIDTH 12 0
BBX 11 11 0 -1
BITMAP
0100
1FE0
9000
5000
3000
5000
9000
1000
2000
4000
8000
ENDCHAR
STARTCHAR U_2F68
ENCODING 12136
SWIDTH 1000 0
DWIDTH 12 0
BBX 11 6 0 4
BITMAP
FC80
4B20
3140
2080
4040
8020
ENDCHAR
STARTCHAR U_2F69
ENCODING 12137
SWIDTH 1000 0
DWIDTH 12 0
BBX 8 11 2 -1
BITMAP
30
20
FF
81
81
FF
81
81
81
FF
81
ENDCHAR
STARTCHAR U_2F6A
ENCODING 12138
SWIDTH 1000 0
DWIDTH 12 0
BBX 11 11 0 -1
BITMAP
0200
0200
3FE0
2240
2200
3F80
2880
2880
2500
4300
9CE0
ENDCHAR
STARTCHAR U_2F6B
ENCODING 12139
SWIDTH 1000 0
DWIDTH 12 0
BBX 10 10 1 0
BITMAP
0080
7FC0
5280
5280
5280
5280
5280
5280
5280
FFC0
ENDCHAR
STARTCHAR U_2F6C
ENCODING 12140
SWIDTH 1000 0
DWIDTH 12 0
BBX 8 11 2 -1
BITMAP
FF
81
81
FF
81
81
FF
81
81
FF
81
ENDCHAR
STARTCHAR U_2F6D
ENCODING 12141
SWIDTH 1000 0
DWIDTH 12 0
BBX 10 11 1 -1
BITMAP
7F80
0100
1A00
0400
FFC0
0C80
1500
2400
4400
9C00
0800
ENDCHAR
STARTCHAR U_2F6E
ENCODING 12142
SWIDTH 1000 0
DWIDTH 12 0
BBX 10 11 1 -1
BITMAP
2000
2000
3F80
4400
0400
FFC0
0400
0C00
1200
21C0
C080
ENDCHAR
STARTCHAR U_2F6F
ENCODING 12143
SWIDTH 1000 0
DWIDTH 12 0
BBX 11 11 0 -1
BITMAP
0040
7FE0
0400
0800
1000
3FC0
5040
9040
1040
1FC0
1040
ENDCHAR
STARTCHAR U_2F70
ENCODING 12144
SWIDTH 1000 0
DWIDTH 12 0
BBX 11 11 0 -1
BITMAP
0080
3FC0
0000
0000
7FE0
0200
1280
2240
4220
8E20
0400
ENDCHAR
STARTCHAR U_2F71
ENCODING 12145
SWIDTH 1000 0
DWIDTH 12 0
BBX 9 11 2 -1
BITMAP
1800
1000
FF80
9080
9080
A480
AE80
F280
8080
8080
8380
ENDCHAR
STARTCHAR U_2F72
ENCODING 12146
SWIDTH 1000 0
DWIDTH 12 0
BBX 11 11 0 -1
BITMAP
00C0
7F00
0400
0400
FFE0
0400
0E00
1500
2480
4440
8420
ENDCHAR
STARTCHAR U_2F73
ENCODING 12147
SWIDTH 1000 0
DWIDTH 12 0
BBX 10 11 1 -1
BITMAP
0800
0400
FFC0
8040
9240
1200
1200
2100
2100
40C0
8040
ENDCHAR
STARTCHAR U_2F74
ENCODING 12148
SWIDTH 1000 0
DWIDTH 12 0
BBX 11 11 0 -1
BITMAP
0C00
0400
7FC0
0000
2080
2080
1100
1100
1200
0200
FFE0
ENDCHAR
STARTCHAR U_2F75
ENCODING 12149
SWIDTH 1000 0
DWIDTH 12 0
BBX 11 11 0 -1
BITMAP
2100
2100
2200
3BE0
5480
9080
1080
1080
1080
1380
1100
ENDCHAR
STARTCHAR U_2F76
ENCODING 12150
SWIDTH 1000 0
DWIDTH 12 0
BBX 11 11 0 -1
BITMAP
0400
44C0
3480
1500
FFE0
0400
0E00
1500
24C0
4460
8420
ENDCHAR
STARTCHAR U_2F77
ENCODING 12151
SWIDTH 1000 0
DWIDTH 12 0
BBX 10 11 1 -1
BITMAP
0800
1100
2200
7C00
1100
FE80
4480
2500
2480
4440
8440
ENDCHAR
STARTCHAR U_2F78
ENCODING 12152
SWIDTH 1000 0
DWIDTH 12 0
BBX 11 11 0 -1
BITMAP
1000
1FC0
2400
4400
0400
FFE0
0400
4440
4440
7FC0
4040
ENDCHAR
STARTCHAR U_2F79
ENCODING 12153
SWIDTH 1000 0
DWIDTH 12 0
BBX 10 11 1 -1
BITMAP
FFC0
8040
9140
D540
A240
9240
AD40
C540
8840
8040
81C0
ENDCHAR
STARTCHAR U_2F7A
ENCODING 12154
SWIDTH 1000 0
DWIDTH 12 0
BBX 11 11 0 -1
BITMAP
2080
1100
7FC0
0400
0400
3F80
0400
0400
FFE0
0400
0400
ENDCHAR
STARTCHAR U_2F7B
ENCODING 12155
SWIDTH 1000 0
DWIDTH 12 0
BBX 11 11 0 -1
BITMAP
FBE0
0820
4920
28A0
0860
18A0
EB20
4920
0820
79E0
1040
ENDCHAR
STARTCHAR U_2F7C
ENCODING 12156
SWIDTH 1000 0
DWIDTH 12 0
BBX 10 11 1 -1
BITMAP
0800
0880
7E80
0900
FFC0
0800
1180
3600
D840
1040
0FC0
ENDCHAR
STARTCHAR U_2F7D
ENCODING 12157
SWIDTH 1000 0
DWIDTH 12 0
BBX 11 11 0 -1
BITMAP
FFE0
0400
0800
7FE0
4920
4920
4920
4920
4920
4920
40E0
ENDCHAR
STARTCHAR U_2F7E
ENCODING 12158
SWIDTH 1000 0
DWIDTH 12 0
BBX 11 11 0 -1
BITMAP
0400
FFE0
0400
7FC0
0400
FFE0
1500
1500
2480
4460
8420
ENDCHAR
STARTCHAR U_2F7F
ENCODING 12159
SWIDTH 1000 0
DWIDTH 12 0
BBX 10 11 1 -1
BITMAP
FFC0
2100
2100
3F00
2100
3F00
2100
21C0
FF00
0100
0100
ENDCHAR
STARTCHAR U_2F80
ENCODING 12160
SWIDTH 1000 0
DWIDTH 12 0
BBX 11 11 0 -1
BITMAP
0400
3F80
0480
FFE0
0480
3F80
0400
7FC0
0400
FFE0
0400
ENDCHAR
STARTCHAR U_2F81
ENCODING 12161
SWIDTH 1000 0
DWIDTH 12 0
BBX 10 11 1 -1
BITMAP
0800
FFC0
8840
8C40
9340
E840
8C40
9240
E140
8040
80C0
ENDCHAR
STARTCHAR U_2F82
ENCODING 12162
SWIDTH 1000 0
DWIDTH 12 0
BBX 9 11 2 -1
BITMAP
8200
FF00
8800
8800
FF00
8100
8100
FF00
8800
8900
FF80
ENDCHAR
STARTCHAR U_2F83
ENCODING 12163
SWIDTH 1000 0
DWIDTH 12 0
BBX 8 11 2 -1
BITMAP
30
20
FF
81
FF
81
81
FF
81
FF
81
ENDCHAR
STARTCHAR U_2F84
ENCODING 12164
SWIDTH 1000 0
DWIDTH 12 0
BBX 11 11 0 -1
BITMAP
0040
7FE0
0800
1080
7F60
2420
0400
3FC0
0400
0400
FFE0
ENDCHAR
STARTCHAR U_2F85
ENCODING 12165
SWIDTH 1000 0
DWIDTH 12 0
BBX 10 11 1 -1
BITMAP
1000
E3C0
8040
8040
8040
FBC0
8040
8040
8040
FFC0
8040
ENDCHAR
STARTCHAR U_2F86
ENCODING 12166
SWIDTH 1000 0
DWIDTH 12 0
BBX 10 11 1 -1
BITMAP
0180
7E00
0400
FFC0
0400
0400
3F80
2080
2080
3F80
2080
ENDCHAR
STARTCHAR U_2F87
ENCODING 12167
SWIDTH 1000 0
DWIDTH 12 0
BBX 11 11 0 -1
BITMAP
2080
2080
3BE0
4880
4A80
BA80
0FE0
1080
2080
4080
8080
ENDCHAR
STARTCHAR U_2F88
ENCODING 12168
SWIDTH 1000 0
DWIDTH 12 0
BBX 11 11 0 -1
BITMAP
0400
1F80
1080
1480
1280
FFE0
1480
1280
2280
4080
8380
ENDCHAR
STARTCHAR U_2F89
ENCODING 12169
SWIDTH 1000 0
DWIDTH 12 0
BBX 11 11 0 -1
BITMAP
7F80
4080
7F80
4080
7F80
4820
4440
4280
4100
5880
E060
ENDCHAR
STARTCHAR U_2F8A
ENCODING 12170
SWIDTH 1000 0
DWIDTH 12 0
BBX 11 11 0 -1
BITMAP
0800
1F80
2200
7FC0
A440
2440
3FC0
2040
2020
2020
1FE0
ENDCHAR
STARTCHAR U_2F8B
ENCODING 12171
SWIDTH 1000 0
DWIDTH 12 0
BBX 11 11 0 -1
BITMAP
2080
2080
AAA0
AAA0
AAA0
AAA0
FBE0
AAA0
2080
4080
8080
ENDCHAR
STARTCHAR U_2F8C
ENCODING 12172
SWIDTH 1000 0
DWIDTH 12 0
BBX 11 11 0 -1
BITMAP
0400
07E0
0400
7FE0
4040
4400
44C0
7F00
4420
4420
83E0
ENDCHAR
STARTCHAR U_2F8D
ENCODING 12173
SWIDTH 1000 0
DWIDTH 12 0
BBX 11 11 0 -1
BITMAP
0400
0400
7FC0
4440
4440
7FC0
4440
0480
07C0
FC20
6020
ENDCHAR
STARTCHAR U_2F8E
ENCODING 12174
SWIDTH 1000 0
DWIDTH 12 0
BBX 11 10 0 0
BITMAP
0C00
0800
3F80
2A80
2A80
2A80
2A80
2A80
2A80
FFE0
ENDCHAR
STARTCHAR U_2F8F
ENCODING 12175
SWIDTH 1000 0
DWIDTH 12 0
BBX 11 11 0 -1
BITMAP
27C0
4000
8000
1000
2FE0
6080
A080
2080
2480
2380
2100
ENDCHAR
STARTCHAR U_2F90
ENCODING 12176
SWIDTH 1000 0
DWIDTH 12 0
BBX 11 11 0 -1
BITMAP
0400
0240
FFE0
0400
0A40
1280
3100
5100
94C0
1860
3020
ENDCHAR
STARTCHAR U_2F91
ENCODING 12177
SWIDTH 1000 0
DWIDTH 12 0
BBX 10 11 1 -1
BITMAP
FFC0
1200
1200
FFC0
9240
9240
9E40
9240
8040
8040
8040
ENDCHAR
STARTCHAR U_2F92
ENCODING 12178
SWIDTH 1000 0
DWIDTH 12 0
BBX 11 11 0 -1
BITMAP
3F80
2080
3F80
2080
3F80
2080
3F80
2A80
0A20
1220
E1E0
ENDCHAR
STARTCHAR U_2F93
ENCODING 12179
SWIDTH 1000 0
DWIDTH 12 0
BBX 11 11 0 -1
BITMAP
1000
1F00
2200
7FE0
A220
3FE0
2220
3FE0
2220
42E0
8040
ENDCHAR
STARTCHAR U_2F94
ENCODING 12180
SWIDTH 1000 0
DWIDTH 12 0
BBX 10 11 1 -1
BITMAP
0800
FFC0
0000
3F00
0000
3F00
0000
3F00
2100
3F00
2100
ENDCHAR
STARTCHAR U_2F95
ENCODING 12181
SWIDTH 1000 0
DWIDTH 12 0
BBX 10 11 1 -1
BITMAP
1200
2100
4880
8C40
1200
2100
FFC0
2100
2100
3F00
2100
ENDCHAR
STARTCHAR U_2F96
ENCODING 12182
SWIDTH 1000 0
DWIDTH 12 0
BBX 11 11 0 -1
BITMAP
0080
7FC0
0000
3F80
2080
3F80
2080
1100
0900
0A00
FFE0
ENDCHAR
STARTCHAR U_2F97
ENCODING 12183
SWIDTH 1000 0
DWIDTH 12 0
BBX 11 11 0 -1
BITMAP
FFE0
0400
0840
1880
6500
0A00
1300
6680
0A40
7220
0C00
ENDCHAR
STARTCHAR U_2F98
ENCODING 12184
SWIDTH 1000 0
DWIDTH 12 0
BBX 8 11 2 -1
BITMAP
0E
30
CB
2C
36
CA
36
CA
32
C2
0C
ENDCHAR
STARTCHAR U_2F99
ENCODING 12185
SWIDTH 1000 0
DWIDTH 12 0
BBX 11 11 0 -1
BITMAP
3FC0
2040
3FC0
2040
3FC0
2040
3FC0
2040
0A00
3180
C060
ENDCHAR
STARTCHAR U_2F9A
ENCODING 12186
SWIDTH 1000 0
DWIDTH 12 0
BBX 11 11 0 -1
BITMAP
0400
0400
3FC0
0400
FFE0
0900
2940
2940
4920
1720
6200
ENDCHAR
STARTCHAR U_2F9B
ENCODING 12187
SWIDTH 1000 0
DWIDTH 12 0
BBX 11 11 0 -1
BITMAP
0400
7FC0
0400
0400
FFE0
0400
2400
27C0
2400
5400
8FE0
ENDCHAR
STARTCHAR U_2F9C
ENCODING 12188
SWIDTH 1000 0
DWIDTH 12 0
BBX 11 11 0 -1
BITMAP
1FC0
1040
1040
1FC0
0200
1200
13E0
1200
2A00
4600
81E0
ENDCHAR
STARTCHAR U_2F9D
ENCODING 12189
SWIDTH 1000 0
DWIDTH 12 0
BBX 10 11 1 -1
BITMAP
0800
3F00
2100
3F00
2140
3F80
2100
FF00
0900
3100
C700
ENDCHAR
STARTCHAR U_2F9E
ENCODING 12190
SWIDTH 1000 0
DWIDTH 12 0
BBX 11 11 0 -1
BITMAP
0400
7FC0
0400
3F80
2480
3F80
2480
3F80
0400
FFE0
0400
ENDCHAR
STARTCHAR U_2F9F
ENCODING 12191
SWIDTH 1000 0
DWIDTH 12 0
BBX 11 11 0 -1
BITMAP
0400
7FC0
2080
1900
0A00
FFE0
0400
7FC0
0400
0400
0400
ENDCHAR
STARTCHAR U_2FA0
ENCODING 12192
SWIDTH 1000 0
DWIDTH 12 0
BBX 11 11 0 -1
BITMAP
3FE0
2000
2FC0
2000
3FE0
2A20
2A40
2980
4880
4A40
8C20
ENDCHAR
STARTCHAR U_2FA1
ENCODING 12193
SWIDTH 1000 0
DWIDTH 12 0
BBX 11 11 0 -1
BITMAP
0600
3980
0600
3980
0600
3A00
1200
13C0
2A00
4600
81E0
ENDCHAR
STARTCHAR U_2FA2
ENCODING 12194
SWIDTH 1000 0
DWIDTH 12 0
BBX 10 11 1 -1
BITMAP
7F00
4100
7F00
0000
FF80
8880
8880
FF80
8040
8040
7FC0
ENDCHAR
STARTCHAR U_2FA3
ENCODING 12195
SWIDTH 1000 0
DWIDTH 12 0
BBX 11 11 0 -1
BITMAP
FFE0
0A00
0A00
7FC0
4A40
53C0
6040
7FC0
4040
7FC0
4040
ENDCHAR
STARTCHAR U_2FA4
ENCODING 12196
SWIDTH 1000 0
DWIDTH 12 0
BBX 11 11 0 -1
BITMAP
0380
7C40
2480
1500
7FE0
0400
0E00
1500
24C0
4460
8420
ENDCHAR
STARTCHAR U_2FA5
ENCODING 12197
SWIDTH 1000 0
DWIDTH 12 0
BBX 10 11 1 -1
BITMAP
7F80
4480
4480
7F80
4480
7F80
4480
0400
7F80
0400
FFC0
ENDCHAR
STARTCHAR U_2FA6
ENCODING 12198
SWIDTH 1000 0
DWIDTH 12 0
BBX 11 11 0 -1
BITMAP
0400
0A00
1100
20E0
DF40
0400
7FC0
2480
1480
1500
FFE0
ENDCHAR
STARTCHAR U_2FA7
ENCODING 12199
SWIDTH 1000 0
DWIDTH 12 0
BBX 10 11 1 -1
BITMAP
3F80
2000
3F00
2000
3F00
2000
FFC0
2440
2280
2900
30C0
ENDCHAR
STARTCHAR U_2FA8
ENCODING 12200
SWIDTH 1000 0
DWIDTH 12 0
BBX 10 11 1 -1
BITMAP
F3C0
9240
F3C0
9240
F3C0
8040
8040
8040
8040
8040
81C0
ENDCHAR
STARTCHAR U_2FA9
ENCODING 12201
SWIDTH 1000 0
DWIDTH 12 0
BBX 11 11 0 -1
BITMAP
0800
7F80
4080
7F80
4000
7FC0
4040
7FC0
0400
FFE0
0400
ENDCHAR
STARTCHAR U_2FAA
ENCODING 12202
SWIDTH 1000 0
DWIDTH 12 0
BBX 11 11 0 -1
BITMAP
0400
3F80
0480
7FE0
0480
7F80
2640
1D80
1480
E460
4C20
ENDCHAR
STARTCHAR U_2FAB
ENCODING 12203
SWIDTH 1000 0
DWIDTH 12 0
BBX 11 11 0 -1
BITMAP
1200
1100
3FE0
2200
7FC0
A200
2200
3FC0
2200
3FE0
2000
ENDCHAR
STARTCHAR U_2FAC
ENCODING 12204
SWIDTH 1000 0
DWIDTH 12 0
BBX 11 11 0 -1
BITMAP
FFE0
0400
0400
7FC0
4440
5540
4CC0
6640
5540
4440
44C0
ENDCHAR
STARTCHAR U_2FAD
ENCODING 12205
SWIDTH 1000 0
DWIDTH 12 0
BBX 11 11 0 -1
BITMAP
0400
FFE0
0400
7FC0
0400
FFE0
2480
3F80
2080
2080
2180
ENDCHAR
STARTCHAR U_2FAE
ENCODING 12206
SWIDTH 1000 0
DWIDTH 12 0
BBX 11 11 0 -1
BITMAP
1100
1100
F1E0
1100
1100
71C0
1100
1100
F1E0
1100
1100
ENDCHAR
STARTCHAR U_2FAF
ENCODING 12207
SWIDTH 1000 0
DWIDTH 12 0
BBX 11 11 0 -1
BITMAP
FFE0
0400
0800
FFE0
9120
9F20
9120
9F20
9120
FFE0
8020
ENDCHAR
STARTCHAR U_2FB0
ENCODING 12208
SWIDTH 1000 0
DWIDTH 12 0
BBX 11 11 0 -1
BITMAP
1100
FFE0
1100
1F00
0400
3F80
2480
3F80
0400
FFE0
0400
ENDCHAR
STARTCHAR U_2FB1
ENCODING 12209
SWIDTH 1000 0
DWIDTH 12 0
BBX 10 11 1 -1
BITMAP
0800
7F00
1100
FFC0
2080
3F80
0400
FF80
2400
7FC0
0400
ENDCHAR
STARTCHAR U_2FB2
ENCODING 12210
SWIDTH 1000 0
DWIDTH 12 0
BBX 11 11 0 -1
BITMAP
1100
F1E0
1100
1100
71C0
1100
1100
F1E0
1100
1100
FFE0
ENDCHAR
STARTCHAR U_2FB3
ENCODING 12211
SWIDTH 1000 0
DWIDTH 12 0
BBX 11 11 0 -1
BITMAP
0400
7FC0
1100
0A00
FFE0
0000
3F80
2080
3F80
2080
3F80
ENDCHAR
STARTCHAR U_2FB4
ENCODING 12212
SWIDTH 1000 0
DWIDTH 12 0
BBX 11 11 0 -1
BITMAP
FFE0
0400
7FC0
4040
7FC0
4040
7FC0
4040
7FC0
1100
E0E0
ENDCHAR
STARTCHAR U_2FB5
ENCODING 12213
SWIDTH 1000 0
DWIDTH 12 0
BBX 11 11 0 -1
BITMAP
3FC0
2140
2E40
2440
3F40
3540
3F40
2540
2760
5CA0
8820
ENDCHAR
STARTCHAR U_2FB6
ENCODING 12214
SWIDTH 1000 0
DWIDTH 12 0
BBX 11 11 0 -1
BITMAP
FF00
0140
1580
6540
24A0
FF60
2540
2580
2540
44A0
8460
ENDCHAR
STARTCHAR U_2FB7
ENCODING 12215
SWIDTH 1000 0
DWIDTH 12 0
BBX 11 11 0 -1
BITMAP
0E00
1100
2480
FFE0
2080
3F80
2080
3FC0
2480
2300
38E0
ENDCHAR
STARTCHAR U_2FB8
ENCODING 12216
SWIDTH 1000 0
DWIDTH 12 0
BBX 11 11 0 -1
BITMAP
2080
1100
FFE0
0400
7FC0
4040
7FC0
4040
7FC0
4040
7FC0
ENDCHAR
STARTCHAR U_2FB9
ENCODING 12217
SWIDTH 1000 0
DWIDTH 12 0
BBX 11 11 0 -1
BITMAP
0180
7E00
0400
FFE0
1500
2480
FFE0
2080
3F80
2080
3F80
ENDCHAR
STARTCHAR U_2FBA
ENCODING 12218
SWIDTH 1000 0
DWIDTH 12 0
BBX 11 11 0 -1
BITMAP
3FC0
2400
3F80
2400
3F80
2400
3FE0
0020
5520
4AA0
8AC0
ENDCHAR
STARTCHAR U_2FBB
ENCODING 12219
SWIDTH 1000 0
DWIDTH 12 0
BBX 11 11 0 -1
BITMAP
3F80
2080
2780
2480
FFE0
A0A0
BFA0
2080
3F80
2080
2380
ENDCHAR
STARTCHAR U_2FBC
ENCODING 12220
SWIDTH 1000 0
DWIDTH 12 0
BBX 11 11 0 -1
BITMAP
0400
FFE0
1080
1F80
0000
7FE0
4020
4F20
4920
4F20
40E0
ENDCHAR
STARTCHAR U_2FBD
ENCODING 12221
SWIDTH 1000 0
DWIDTH 12 0
BBX 11 11 0 -1
BITMAP
7E40
4080
7D00
4020
7C40
4080
FF00
2820
4840
F480
0300
ENDCHAR
STARTCHAR U_2FBE
ENCODING 12222
SWIDTH 1000 0
DWIDTH 12 0
BBX 11 11 0 -1
BITMAP
BBA0
9120
BBA0
9120
BBA0
8020
8020
8020
8020
80E0
8040
ENDCHAR
STARTCHAR U_2FBF
ENCODING 12223
SWIDTH 1000 0
DWIDTH 12 0
BBX 9 11 2 -1
BITMAP
AA80
D480
AD80
BA80
C480
FF80
4000
4E00
7080
4080
3F80
ENDCHAR
STARTCHAR U_2FC0
ENCODING 12224
SWIDTH 1000 0
DWIDTH 12 0
BBX 10 11 1 -1
BITMAP
FFC0
0000
3F00
2100
3F00
0000
FF80
9480
BE80
8880
8980
ENDCHAR
STARTCHAR U_2FC1
ENCODING 12225
SWIDTH 1000 0
DWIDTH 12 0
BBX 11 11 0 -1
BITMAP
0800
3FC0
2440
3FC0
2440
3FC0
0480
0D40
17C0
2420
C3E0
ENDCHAR
STARTCHAR U_2FC2
ENCODING 12226
SWIDTH 1000 0
DWIDTH 12 0
BBX 11 11 0 -1
BITMAP
0800
1F00
2200
7FC0
A440
3FC0
2440
3FC0
5240
4920
8920
ENDCHAR
STARTCHAR U_2FC3
ENCODING 12227
SWIDTH 1000 0
DWIDTH 12 0
BBX 11 11 0 -1
BITMAP
0800
3F80
2080
3F80
2080
3FE0
2000
3FE0
5520
4AA0
8AC0
ENDCHAR
STARTCHAR U_2FC4
ENCODING 12228
SWIDTH 1000 0
DWIDTH 12 0
BBX 10 11 1 -1
BITMAP
0FC0
0800
FFC0
A8C0
9540
AA40
94C0
8A40
9540
A2C0
FFC0
ENDCHAR
STARTCHAR U_2FC5
ENCODING 12229
SWIDTH 1000 0
DWIDTH 12 0
BBX 11 11 0 -1
BITMAP
0200
7FE0
4900
7FE0
4920
7FE0
5120
5D40
51A0
9D20
90E0
ENDCHAR
STARTCHAR U_2FC6
ENCODING 12230
SWIDTH 1000 0
DWIDTH 12 0
BBX 11 11 0 -1
BITMAP
0400
FFE0
2480
5F40
9520
2880
CF60
3100
4E00
0500
78C0
ENDCHAR
STARTCHAR U_2FC7
ENCODING 12231
SWIDTH 1000 0
DWIDTH 12 0
BBX 11 11 0 -1
BITMAP
0200
7FE0
5100
5100
7FE0
5100
5B40
7540
5540
5560
9100
ENDCHAR
STARTCHAR U_2FC8
ENCODING 12232
SWIDTH 1000 0
DWIDTH 12 0
BBX 11 11 0 -1
BITMAP
1100
FFE0
1100
1F00
0000
FFE0
2480
3F80
2480
3F80
E0E0
ENDCHAR
STARTCHAR U_2FC9
ENCODING 12233
SWIDTH 1000 0
DWIDTH 12 0
BBX 11 11 0 -1
BITMAP
7F80
0400
FFE0
1500
2480
CE60
1500
74E0
0F00
3480
CC60
ENDCHAR
STARTCHAR U_2FCA
ENCODING 12234
SWIDTH 1000 0
DWIDTH 12 0
BBX 11 11 0 -1
BITMAP
7FC0
4440
64C0
5540
7FC0
0400
7FC0
0400
FFE0
5240
8920
ENDCHAR
STARTCHAR U_2FCB
ENCODING 12235
SWIDTH 1000 0
DWIDTH 12 0
BBX 11 11 0 -1
BITMAP
4A40
2A80
FFE0
2440
7FE0
A440
2640
2D40
34C0
2440
24C0
ENDCHAR
STARTCHAR U_2FCC
ENCODING 12236
SWIDTH 1000 0
DWIDTH 12 0
BBX 11 11 0 -1
BITMAP
FFC0
9240
F3C0
1200
F3C0
9240
F3C0
9240
F3C0
1220
0FE0
ENDCHAR
STARTCHAR U_2FCD
ENCODING 12237
SWIDTH 1000 0
DWIDTH 12 0
BBX 11 11 0 -1
BITMAP
1F00
5140
5F40
5140
5F40
5140
7FC0
0A00
FBE0
4A40
8A40
ENDCHAR
STARTCHAR U_2FCE
ENCODING 12238
SWIDTH 1000 0
DWIDTH 12 0
BBX 11 11 0 -1
BITMAP
2080
FC80
23E0
F880
07E0
FA40
8A40
F980
5180
2240
FC20
ENDCHAR
STARTCHAR U_2FCF
ENCODING 12239
SWIDTH 1000 0
DWIDTH 12 0
BBX 10 11 1 -1
BITMAP
F780
8080
F780
8080
FF80
0000
CD00
AB00
CD40
AAC0
EE40
ENDCHAR
STARTCHAR U_2FD0
ENCODING 12240
SWIDTH 1000 0
DWIDTH 12 0
BBX 11 11 0 -1
BITMAP
0800
3F80
2080
3F80
2080
7FC0
4440
4440
FFE0
1100
6100
ENDCHAR
STARTCHAR U_2FD1
ENCODING 12241
SWIDTH 1000 0
DWIDTH 12 0
BBX 11 11 0 -1
BITMAP
0400
FFE0
0A40
F580
5540
95A0
3F80
2080
3F80
2080
C080
ENDCHAR
STARTCHAR U_2FD2
ENCODING 12242
SWIDTH 1000 0
DWIDTH 12 0
BBX 11 11 0 -1
BITMAP
0400
27C0
2400
FFE0
5140
6AC0
4440
7FC0
5140
6AC0
7FC0
ENDCHAR
STARTCHAR U_2FD3
ENCODING 12243
SWIDTH 1000 0
DWIDTH 12 0
BBX 11 11 0 -1
BITMAP
11E0
FF00
45E0
2820
FFE0
4500
7DE0
4500
7DE0
4520
4DE0
ENDCHAR
STARTCHAR U_2FD4
ENCODING 12244
SWIDTH 1000 0
DWIDTH 12 0
BBX 11 11 0 -1
BITMAP
3F00
2100
FFC0
4A40
7BC0
FAC0
2B40
FAC0
2BE0
FA20
07E0
ENDCHAR
STARTCHAR U_2FD5
ENCODING 12245
SWIDTH 1000 0
DWIDTH 12 0
BBX 11 11 0 -1
BITMAP
0E00
3180
CE60
0000
EEE0
AAA0
FFE0
9120
FFE0
9120
9160
ENDCHAR
STARTCHAR U_3000
ENCODING 12288
SWIDTH 1000 0
DWIDTH 12 0
BBX 1 1 11 -1
BITMAP
00
ENDCHAR
STARTCHAR U_3001
ENCODING 12289
SWIDTH 1000 0
DWIDTH 12 0
BBX 3 3 3 0
BITMAP
80
60
20
ENDCHAR
STARTCHAR U_3002
ENCODING 12290
SWIDTH 1000 0
DWIDTH 12 0
BBX 4 4 3 0
BITMAP
60
90
90
60
ENDCHAR
STARTCHAR U_3003
ENCODING 12291
SWIDTH 1000 0
DWIDTH 12 0
BBX 4 4 4 3
BITMAP
50
50
A0
A0
ENDCHAR
STARTCHAR U_3005
ENCODING 12293
SWIDTH 1000 0
DWIDTH 12 0
BBX 9 10 1 0
BITMAP
1000
1F80
2080
2080
4100
4200
8200
0C00
0200
0100
ENDCHAR
STARTCHAR U_3008
ENCODING 12296
SWIDTH 1000 0
DWIDTH 12 0
BBX 3 12 8 -1
BITMAP
20
20
40
40
80
80
80
80
40
40
20
20
ENDCHAR
STARTCHAR U_3009
ENCODING 12297
SWIDTH 1000 0
DWIDTH 12 0
BBX 3 12 2 -1
BITMAP
80
80
40
40
20
20
20
20
40
40
80
80
ENDCHAR
STARTCHAR U_300A
ENCODING 12298
SWIDTH 1000 0
DWIDTH 12 0
BBX 5 12 6 -1
BITMAP
28
28
50
50
A0
A0
A0
A0
50
50
28
28
ENDCHAR
STARTCHAR U_300B
ENCODING 12299
SWIDTH 1000 0
DWIDTH 12 0
BBX 5 12 1 -1
BITMAP
A0
A0
50
50
28
28
28
28
50
50
A0
A0
ENDCHAR
STARTCHAR U_300C
ENCODING 12300
SWIDTH 1000 0
DWIDTH 12 0
BBX 4 8 7 2
BITMAP
F0
80
80
80
80
80
80
80
ENDCHAR
STARTCHAR U_300D
ENCODING 12301
SWIDTH 1000 0
DWIDTH 12 0
BBX 4 8 1 -1
BITMAP
10
10
10
10
10
10
10
F0
ENDCHAR
STARTCHAR U_300E
ENCODING 12302
SWIDTH 1000 0
DWIDTH 12 0
BBX 5 9 6 1
BITMAP
F8
88
B8
A0
A0
A0
A0
A0
E0
ENDCHAR
STARTCHAR U_300F
ENCODING 12303
SWIDTH 1000 0
DWIDTH 12 0
BBX 5 9 1 -1
BITMAP
38
28
28
28
28
28
E8
88
F8
ENDCHAR
STARTCHAR U_3010
ENCODING 12304
SWIDTH 1000 0
DWIDTH 12 0
BBX 4 11 7 -1
BITMAP
F0
E0
C0
80
80
80
80
80
C0
E0
F0
ENDCHAR
STARTCHAR U_3011
ENCODING 12305
SWIDTH 1000 0
DWIDTH 12 0
BBX 4 11 2 -1
BITMAP
F0
70
30
10
10
10
10
10
30
70
F0
ENDCHAR
STARTCHAR U_3012
ENCODING 12306
SWIDTH 1000 0
DWIDTH 12 0
BBX 10 10 1 0
BITMAP
FFC0
0000
0000
FFC0
0400
0400
0400
0400
0400
0400
ENDCHAR
STARTCHAR U_3013
ENCODING 12307
SWIDTH 1000 0
DWIDTH 12 0
BBX 9 9 1 0
BITMAP
FF80
FF80
FF80
0000
0000
0000
FF80
FF80
FF80
ENDCHAR
STARTCHAR U_3014
ENCODING 12308
SWIDTH 1000 0
DWIDTH 12 0
BBX 3 11 7 -1
BITMAP
60
80
80
80
80
80
80
80
80
80
60
ENDCHAR
STARTCHAR U_3015
ENCODING 12309
SWIDTH 1000 0
DWIDTH 12 0
BBX 3 11 2 -1
BITMAP
C0
20
20
20
20
20
20
20
20
20
C0
ENDCHAR
STARTCHAR U_3016
ENCODING 12310
SWIDTH 1000 0
DWIDTH 12 0
BBX 5 12 6 -1
BITMAP
F8
90
A0
A0
A0
A0
A0
A0
A0
A0
90
F8
ENDCHAR
STARTCHAR U_3017
ENCODING 12311
SWIDTH 1000 0
DWIDTH 12 0
BBX 5 11 1 -1
BITMAP
F8
48
28
28
28
28
28
28
28
48
F8
ENDCHAR
STARTCHAR U_301D
ENCODING 12317
SWIDTH 1000 0
DWIDTH 12 0
BBX 4 2 8 8
BITMAP
A0
50
ENDCHAR
STARTCHAR U_301E
ENCODING 12318
SWIDTH 1000 0
DWIDTH 12 0
BBX 4 2 1 8
BITMAP
50
A0
ENDCHAR
STARTCHAR U_3021
ENCODING 12321
SWIDTH 1000 0
DWIDTH 12 0
BBX 1 12 6 -1
BITMAP
80
80
80
80
80
80
80
80
80
80
80
80
ENDCHAR
STARTCHAR U_3022
ENCODING 12322
SWIDTH 1000 0
DWIDTH 12 0
BBX 6 12 3 -1
BITMAP
04
04
84
84
84
84
84
84
84
04
04
04
ENDCHAR
STARTCHAR U_3023
ENCODING 12323
SWIDTH 1000 0
DWIDTH 12 0
BBX 9 12 2 -1
BITMAP
0080
8080
8880
8880
8880
8880
8880
8880
8880
8880
8080
0080
ENDCHAR
STARTCHAR U_3024
ENCODING 12324
SWIDTH 1000 0
DWIDTH 12 0
BBX 9 10 2 0
BITMAP
0200
4200
2200
1200
0C00
0400
0A00
1100
2080
C080
ENDCHAR
STARTCHAR U_3025
ENCODING 12325
SWIDTH 1000 0
DWIDTH 12 0
BBX 8 12 3 -1
BITMAP
01
22
44
28
38
44
82
82
82
82
44
38
ENDCHAR
STARTCHAR U_3026
ENCODING 12326
SWIDTH 1000 0
DWIDTH 12 0
BBX 10 3 1 5
BITMAP
0800
0400
FFC0
ENDCHAR
STARTCHAR U_3027
ENCODING 12327
SWIDTH 1000 0
DWIDTH 12 0
BBX 10 6 1 3
BITMAP
0800
0400
FFC0
0000
0000
7F80
ENDCHAR
STARTCHAR U_3028
ENCODING 12328
SWIDTH 1000 0
DWIDTH 12 0
BBX 10 10 1 0
BITMAP
0800
0400
FFC0
0000
0000
0000
7F80
0000
0000
FFC0
ENDCHAR
STARTCHAR U_3029
ENCODING 12329
SWIDTH 1000 0
DWIDTH 12 0
BBX 9 11 2 -1
BITMAP
1000
0800
FF00
4200
4200
2400
2400
1800
1800
2400
C380
ENDCHAR
STARTCHAR U_3041
ENCODING 12353
SWIDTH 1000 0
DWIDTH 12 0
BBX 7 10 2 -1
BITMAP
20
10
54
38
12
3C
56
92
AA
44
ENDCHAR
STARTCHAR U_3042
ENCODING 12354
SWIDTH 1000 0
DWIDTH 12 0
BBX 9 11 1 -1
BITMAP
2000
1600
F800
2400
3E00
2500
6880
A880
9080
A100
4600
ENDCHAR
STARTCHAR U_3043
ENCODING 12355
SWIDTH 1000 0
DWIDTH 12 0
BBX 6 5 2 0
BITMAP
40
48
84
A4
40
ENDCHAR
STARTCHAR U_3044
ENCODING 12356
SWIDTH 1000 0
DWIDTH 12 0
BBX 10 8 0 0
BITMAP
8000
4300
4080
4040
4840
50C0
3040
1000
ENDCHAR
STARTCHAR U_3045
ENCODING 12357
SWIDTH 1000 0
DWIDTH 12 0
BBX 5 7 2 -1
BITMAP
40
30
70
88
08
10
20
ENDCHAR
STARTCHAR U_3046
ENCODING 12358
SWIDTH 1000 0
DWIDTH 12 0
BBX 7 12 2 -1
BITMAP
20
18
00
3C
C2
02
02
02
04
04
08
10
ENDCHAR
STARTCHAR U_3047
ENCODING 12359
SWIDTH 1000 0
DWIDTH 12 0
BBX 7 7 1 -1
BITMAP
20
10
7C
08
30
48
8E
ENDCHAR
STARTCHAR U_3048
ENCODING 12360
SWIDTH 1000 0
DWIDTH 12 0
BBX 9 11 1 -1
BITMAP
1000
0C00
0000
4E00
3200
0400
0800
1800
2400
4400
8380
ENDCHAR
STARTCHAR U_3049
ENCODING 12361
SWIDTH 1000 0
DWIDTH 12 0
BBX 7 7 2 -1
BITMAP
20
34
E2
38
64
A4
48
ENDCHAR
STARTCHAR U_304A
ENCODING 12362
SWIDTH 1000 0
DWIDTH 12 0
BBX 10 11 1 -1
BITMAP
1000
1000
1500
78C0
1040
1700
1880
7040
D240
3180
1000
ENDCHAR
STARTCHAR U_304B
ENCODING 12363
SWIDTH 1000 0
DWIDTH 12 0
BBX 10 10 1 -1
BITMAP
2000
1100
9C80
7240
1240
12C0
2200
2200
4A00
4400
ENDCHAR
STARTCHAR U_304C
ENCODING 12364
SWIDTH 1000 0
DWIDTH 12 0
BBX 11 11 1 -1
BITMAP
00A0
20A0
1100
9C80
7240
1240
12C0
2200
2200
4A00
4400
ENDCHAR
STARTCHAR U_304D
ENCODING 12365
SWIDTH 1000 0
DWIDTH 12 0
BBX 7 11 2 -1
BITMAP
10
1C
F0
0E
F8
04
3A
46
80
40
3C
ENDCHAR
STARTCHAR U_304E
ENCODING 12366
SWIDTH 1000 0
DWIDTH 12 0
BBX 8 11 2 -1
BITMAP
15
1D
F0
0E
F8
04
3A
46
80
40
3C
ENDCHAR
STARTCHAR U_304F
ENCODING 12367
SWIDTH 1000 0
DWIDTH 12 0
BBX 5 11 2 -1
BITMAP
10
08
10
20
40
80
40
20
10
08
08
ENDCHAR
STARTCHAR U_3050
ENCODING 12368
SWIDTH 1000 0
DWIDTH 12 0
BBX 8 11 2 -1
BITMAP
10
08
15
25
40
80
40
20
10
08
08
ENDCHAR
STARTCHAR U_3051
ENCODING 12369
SWIDTH 1000 0
DWIDTH 12 0
BBX 10 11 1 -1
BITMAP
0200
8100
41C0
5F00
8100
8100
8100
8100
6200
4200
0400
ENDCHAR
STARTCHAR U_3052
ENCODING 12370
SWIDTH 1000 0
DWIDTH 12 0
BBX 11 11 1 -1
BITMAP
04A0
82A0
41C0
5F00
8100
8100
8100
8100
6200
4200
0400
ENDCHAR
STARTCHAR U_3053
ENCODING 12371
SWIDTH 1000 0
DWIDTH 12 0
BBX 8 9 2 0
BITMAP
40
3E
04
00
00
80
80
41
3E
ENDCHAR
STARTCHAR U_3054
ENCODING 12372
SWIDTH 1000 0
DWIDTH 12 0
BBX 9 9 1 0
BITMAP
4280
3E80
0400
0000
0000
8000
8000
4100
3E00
ENDCHAR
STARTCHAR U_3055
ENCODING 12373
SWIDTH 1000 0
DWIDTH 12 0
BBX 7 11 2 -1
BITMAP
20
10
8E
78
04
04
7A
86
80
60
1C
ENDCHAR
STARTCHAR U_3056
ENCODING 12374
SWIDTH 1000 0
DWIDTH 12 0
BBX 9 11 2 -1
BITMAP
2280
1280
8E00
7800
0400
0400
7A00
8600
8000
6000
1C00
ENDCHAR
STARTCHAR U_3057
ENCODING 12375
SWIDTH 1000 0
DWIDTH 12 0
BBX 8 10 1 -1
BITMAP
80
40
40
40
40
40
40
41
26
18
ENDCHAR
STARTCHAR U_3058
ENCODING 12376
SWIDTH 1000 0
DWIDTH 12 0
BBX 8 10 1 -1
BITMAP
80
45
45
40
40
40
40
41
26
18
ENDCHAR
STARTCHAR U_3059
ENCODING 12377
SWIDTH 1000 0
DWIDTH 12 0
BBX 10 12 0 -1
BITMAP
0400
0200
83C0
7E00
0A00
1600
1200
0E00
0200
0200
0400
0800
ENDCHAR
STARTCHAR U_305A
ENCODING 12378
SWIDTH 1000 0
DWIDTH 12 0
BBX 11 12 0 -1
BITMAP
04A0
02A0
83C0
7E00
0A00
1600
1200
0E00
0200
0200
0400
0800
ENDCHAR
STARTCHAR U_305B
ENCODING 12379
SWIDTH 1000 0
DWIDTH 12 0
BBX 11 10 0 -1
BITMAP
0200
2100
11E0
9700
7900
1100
1300
1000
0800
0780
ENDCHAR
STARTCHAR U_305C
ENCODING 12380
SWIDTH 1000 0
DWIDTH 12 0
BBX 12 10 0 -1
BITMAP
0250
2150
11E0
9700
7900
1100
1300
1000
0800
0780
ENDCHAR
STARTCHAR U_305D
ENCODING 12381
SWIDTH 1000 0
DWIDTH 12 0
BBX 9 10 1 -1
BITMAP
4E00
3400
0800
1380
FC00
0800
1000
1000
0800
0600
ENDCHAR
STARTCHAR U_305E
ENCODING 12382
SWIDTH 1000 0
DWIDTH 12 0
BBX 10 10 1 -1
BITMAP
4D40
3540
0800
1380
FC00
0800
1000
1000
0800
0600
ENDCHAR
STARTCHAR U_305F
ENCODING 12383
SWIDTH 1000 0
DWIDTH 12 0
BBX 9 11 1 -1
BITMAP
2000
1000
1C00
E000
2700
2180
4200
4000
4800
8800
8780
ENDCHAR
STARTCHAR U_3060
ENCODING 12384
SWIDTH 1000 0
DWIDTH 12 0
BBX 10 11 1 -1
BITMAP
2000
1140
1D40
E000
2700
2180
4200
4000
4800
8800
8780
ENDCHAR
STARTCHAR U_3061
ENCODING 12385
SWIDTH 1000 0
DWIDTH 12 0
BBX 9 11 1 -1
BITMAP
1000
0800
8A00
7C00
1000
1700
1880
2080
0080
0300
1C00
ENDCHAR
STARTCHAR U_3062
ENCODING 12386
SWIDTH 1000 0
DWIDTH 12 0
BBX 10 11 1 -1
BITMAP
0080
1140
8A80
5400
3800
1700
3880
2080
0080
0300
1C00
ENDCHAR
STARTCHAR U_3063
ENCODING 12387
SWIDTH 1000 0
DWIDTH 12 0
BBX 6 5 2 -1
BITMAP
38
C4
04
08
30
ENDCHAR
STARTCHAR U_3064
ENCODING 12388
SWIDTH 1000 0
DWIDTH 12 0
BBX 10 7 0 1
BITMAP
0F00
B080
4040
0040
0080
0300
0C00
ENDCHAR
STARTCHAR U_3065
ENCODING 12389
SWIDTH 1000 0
DWIDTH 12 0
BBX 11 8 0 1
BITMAP
00A0
0FA0
B080
4040
0040
0080
0300
0C00
ENDCHAR
STARTCHAR U_3066
ENCODING 12390
SWIDTH 1000 0
DWIDTH 12 0
BBX 9 9 1 0
BITMAP
8380
7C00
0400
0800
1000
1000
1000
0800
0700
ENDCHAR
STARTCHAR U_3067
ENCODING 12391
SWIDTH 1000 0
DWIDTH 12 0
BBX 10 9 1 0
BITMAP
8380
7C00
0540
0940
1000
1000
1000
0800
0700
ENDCHAR
STARTCHAR U_3068
ENCODING 12392
SWIDTH 1000 0
DWIDTH 12 0
BBX 7 9 2 0
BITMAP
40
20
26
28
30
40
80
40
3E
ENDCHAR
STARTCHAR U_3069
ENCODING 12393
SWIDTH 1000 0
DWIDTH 12 0
BBX 9 9 2 0
BITMAP
4280
2280
2600
2800
3000
4000
8000
4000
3E00
ENDCHAR
STARTCHAR U_306A
ENCODING 12394
SWIDTH 1000 0
DWIDTH 12 0
BBX 9 11 1 -1
BITMAP
2000
1400
FB00
2180
2200
4200
4200
9E00
2300
2280
1C00
ENDCHAR
STARTCHAR U_306B
ENCODING 12395
SWIDTH 1000 0
DWIDTH 12 0
BBX 9 10 1 -1
BITMAP
8000
4700
5980
8200
8000
8000
8800
A800
C780
4000
ENDCHAR
STARTCHAR U_306C
ENCODING 12396
SWIDTH 1000 0
DWIDTH 12 0
BBX 10 11 1 -1
BITMAP
0800
0400
0400
4F00
5480
6440
6840
A840
9340
A480
4380
ENDCHAR
STARTCHAR U_306D
ENCODING 12397
SWIDTH 1000 0
DWIDTH 12 0
BBX 11 11 0 -1
BITMAP
2000
1000
1000
9B80
7440
1840
3040
3040
51C0
B260
1180
ENDCHAR
STARTCHAR U_306E
ENCODING 12398
SWIDTH 1000 0
DWIDTH 12 0
BBX 9 9 1 0
BITMAP
1C00
2A00
4900
8880
9080
9080
A100
4200
0C00
ENDCHAR
STARTCHAR U_306F
ENCODING 12399
SWIDTH 1000 0
DWIDTH 12 0
BBX 10 11 1 -1
BITMAP
0200
8100
51C0
4F00
8100
8100
8100
8F00
B180
D140
4E00
ENDCHAR
STARTCHAR U_3070
ENCODING 12400
SWIDTH 1000 0
DWIDTH 12 0
BBX 11 11 1 -1
BITMAP
02A0
81A0
51C0
4F00
8100
8100
8100
8F00
B180
D140
4E00
ENDCHAR
STARTCHAR U_3071
ENCODING 12401
SWIDTH 1000 0
DWIDTH 12 0
BBX 11 11 1 -1
BITMAP
02C0
8120
51C0
4F00
8100
8100
8100
8F00
B180
D140
4E00
ENDCHAR
STARTCHAR U_3072
ENCODING 12402
SWIDTH 1000 0
DWIDTH 12 0
BBX 10 10 1 -1
BITMAP
0200
1200
F100
2100
2180
4140
4100
4100
2200
1C00
ENDCHAR
STARTCHAR U_3073
ENCODING 12403
SWIDTH 1000 0
DWIDTH 12 0
BBX 11 10 1 -1
BITMAP
02A0
12A0
F100
2100
2180
4140
4100
4100
2200
1C00
ENDCHAR
STARTCHAR U_3074
ENCODING 12404
SWIDTH 1000 0
DWIDTH 12 0
BBX 11 11 1 -1
BITMAP
00C0
0320
12C0
F100
2100
2180
4140
4100
4100
2200
1C00
ENDCHAR
STARTCHAR U_3075
ENCODING 12405
SWIDTH 1000 0
DWIDTH 12 0
BBX 11 10 1 -1
BITMAP
1000
0E00
0400
0800
0800
0580
A440
C2E0
9200
0C00
ENDCHAR
STARTCHAR U_3076
ENCODING 12406
SWIDTH 1000 0
DWIDTH 12 0
BBX 11 10 1 -1
BITMAP
1140
0F40
0400
0800
0800
0580
A440
C2E0
9200
0C00
ENDCHAR
STARTCHAR U_3077
ENCODING 12407
SWIDTH 1000 0
DWIDTH 12 0
BBX 11 10 1 -1
BITMAP
10C0
0F20
04C0
0800
0800
0580
A440
C2E0
9200
0C00
ENDCHAR
STARTCHAR U_3078
ENCODING 12408
SWIDTH 1000 0
DWIDTH 12 0
BBX 11 6 0 1
BITMAP
1800
2400
C200
0100
0080
0060
ENDCHAR
STARTCHAR U_3079
ENCODING 12409
SWIDTH 1000 0
DWIDTH 12 0
BBX 11 8 0 1
BITMAP
0140
0140
1800
2400
C200
0100
0080
0060
ENDCHAR
STARTCHAR U_307A
ENCODING 12410
SWIDTH 1000 0
DWIDTH 12 0
BBX 11 8 0 1
BITMAP
00C0
0120
18C0
2400
C200
0100
0080
0060
ENDCHAR
STARTCHAR U_307B
ENCODING 12411
SWIDTH 1000 0
DWIDTH 12 0
BBX 10 10 1 -1
BITMAP
91C0
4F00
4140
8F80
8100
8100
8F00
B180
5140
4E00
ENDCHAR
STARTCHAR U_307C
ENCODING 12412
SWIDTH 1000 0
DWIDTH 12 0
BBX 11 11 1 -1
BITMAP
00A0
91A0
4F00
4140
8F80
8100
8100
8F00
B180
5140
4E00
ENDCHAR
STARTCHAR U_307D
ENCODING 12413
SWIDTH 1000 0
DWIDTH 12 0
BBX 11 11 1 -1
BITMAP
00C0
9120
4FC0
4100
8FC0
8100
8100
8F00
B180
5140
4E00
ENDCHAR
STARTCHAR U_307E
ENCODING 12414
SWIDTH 1000 0
DWIDTH 12 0
BBX 8 11 2 -1
BITMAP
10
8F
78
08
8E
78
08
78
8E
89
70
ENDCHAR
STARTCHAR U_307F
ENCODING 12415
SWIDTH 1000 0
DWIDTH 12 0
BBX 10 11 1 -1
BITMAP
4400
3C00
0800
0800
0900
3E80
5180
9140
A100
4200
0400
ENDCHAR
STARTCHAR U_3080
ENCODING 12416
SWIDTH 1000 0
DWIDTH 12 0
BBX 10 11 1 -1
BITMAP
2000
9C00
7180
1040
7000
9000
9000
A100
6080
2080
1F00
ENDCHAR
STARTCHAR U_3081
ENCODING 12417
SWIDTH 1000 0
DWIDTH 12 0
BBX 10 11 1 -1
BITMAP
0800
0400
4E00
5500
6480
4840
A840
9040
9080
6100
0600
ENDCHAR
STARTCHAR U_3082
ENCODING 12418
SWIDTH 1000 0
DWIDTH 12 0
BBX 8 11 1 -1
BITMAP
20
10
70
1C
28
E2
39
21
21
12
0C
ENDCHAR
STARTCHAR U_3083
ENCODING 12419
SWIDTH 1000 0
DWIDTH 12 0
BBX 8 7 2 -1
BITMAP
28
2E
F5
21
16
10
10
ENDCHAR
STARTCHAR U_3084
ENCODING 12420
SWIDTH 1000 0
DWIDTH 12 0
BBX 11 11 0 -1
BITMAP
0200
3700
2000
13C0
9C20
7020
09C0
0800
0800
0400
0400
ENDCHAR
STARTCHAR U_3085
ENCODING 12421
SWIDTH 1000 0
DWIDTH 12 0
BBX 7 7 3 -1
BITMAP
10
9C
B2
D2
9C
10
20
ENDCHAR
STARTCHAR U_3086
ENCODING 12422
SWIDTH 1000 0
DWIDTH 12 0
BBX 11 11 0 -1
BITMAP
0400
8200
4780
4A40
5220
6220
6A40
4780
4200
0400
0800
ENDCHAR
STARTCHAR U_3087
ENCODING 12423
SWIDTH 1000 0
DWIDTH 12 0
BBX 7 7 2 -1
BITMAP
10
1C
10
10
78
96
60
ENDCHAR
STARTCHAR U_3088
ENCODING 12424
SWIDTH 1000 0
DWIDTH 12 0
BBX 9 11 1 -1
BITMAP
1000
0800
0980
0E00
0800
0800
0800
7800
8E00
8980
7000
ENDCHAR
STARTCHAR U_3089
ENCODING 12425
SWIDTH 1000 0
DWIDTH 12 0
BBX 7 11 2 -1
BITMAP
20
18
40
80
80
BC
C2
82
02
0C
70
ENDCHAR
STARTCHAR U_308A
ENCODING 12426
SWIDTH 1000 0
DWIDTH 12 0
BBX 7 11 2 -1
BITMAP
88
54
52
62
62
42
42
04
04
08
10
ENDCHAR
STARTCHAR U_308B
ENCODING 12427
SWIDTH 1000 0
DWIDTH 12 0
BBX 8 10 1 -1
BITMAP
4E
34
08
10
3E
61
81
19
26
1C
ENDCHAR
STARTCHAR U_308C
ENCODING 12428
SWIDTH 1000 0
DWIDTH 12 0
BBX 11 11 0 -1
BITMAP
2000
1000
1300
3480
D880
1080
1080
3080
5080
B060
1000
ENDCHAR
STARTCHAR U_308D
ENCODING 12429
SWIDTH 1000 0
DWIDTH 12 0
BBX 8 10 1 -1
BITMAP
4E
34
08
10
3E
61
81
01
06
18
ENDCHAR
STARTCHAR U_308E
ENCODING 12430
SWIDTH 1000 0
DWIDTH 12 0
BBX 8 7 2 -1
BITMAP
40
30
EE
31
61
A2
24
ENDCHAR
STARTCHAR U_308F
ENCODING 12431
SWIDTH 1000 0
DWIDTH 12 0
BBX 11 11 0 -1
BITMAP
2000
1000
1000
9B80
7C40
1020
1020
3020
5040
B180
1000
ENDCHAR
STARTCHAR U_3090
ENCODING 12432
SWIDTH 1000 0
DWIDTH 12 0
BBX 10 10 1 -1
BITMAP
4E00
3400
0400
1F00
2880
4840
9040
9640
6980
4700
ENDCHAR
STARTCHAR U_3091
ENCODING 12433
SWIDTH 1000 0
DWIDTH 12 0
BBX 10 11 1 -1
BITMAP
2000
1F00
0400
1F00
2080
4C80
1300
0C00
0000
5980
8640
ENDCHAR
STARTCHAR U_3092
ENCODING 12434
SWIDTH 1000 0
DWIDTH 12 0
BBX 9 11 1 -1
BITMAP
0800
0800
9E00
7000
2180
7200
8C00
1400
2400
2000
1F00
ENDCHAR
STARTCHAR U_3093
ENCODING 12435
SWIDTH 1000 0
DWIDTH 12 0
BBX 10 10 1 -1
BITMAP
1000
0800
0800
1000
1000
3800
2400
4440
4480
8300
ENDCHAR
STARTCHAR U_30A1
ENCODING 12449
SWIDTH 1000 0
DWIDTH 12 0
BBX 7 6 1 -1
BITMAP
9E
72
1C
10
10
20
ENDCHAR
STARTCHAR U_30A2
ENCODING 12450
SWIDTH 1000 0
DWIDTH 12 0
BBX 10 9 0 -1
BITMAP
87C0
7840
0480
0700
0400
0400
0800
0800
1000
ENDCHAR
STARTCHAR U_30A3
ENCODING 12451
SWIDTH 1000 0
DWIDTH 12 0
BBX 5 7 2 -1
BITMAP
08
10
30
D0
10
10
10
ENDCHAR
STARTCHAR U_30A4
ENCODING 12452
SWIDTH 1000 0
DWIDTH 12 0
BBX 7 10 2 -1
BITMAP
02
02
04
08
30
C8
08
08
08
08
ENDCHAR
STARTCHAR U_30A5
ENCODING 12453
SWIDTH 1000 0
DWIDTH 12 0
BBX 6 7 2 -1
BITMAP
20
20
FC
84
88
10
60
ENDCHAR
STARTCHAR U_30A6
ENCODING 12454
SWIDTH 1000 0
DWIDTH 12 0
BBX 9 11 1 -1
BITMAP
0800
0800
0800
8F80
7880
4080
4100
0100
0200
0400
1800
ENDCHAR
STARTCHAR U_30A7
ENCODING 12455
SWIDTH 1000 0
DWIDTH 12 0
BBX 7 5 2 0
BITMAP
0C
70
10
1C
F2
ENDCHAR
STARTCHAR U_30A8
ENCODING 12456
SWIDTH 1000 0
DWIDTH 12 0
BBX 10 7 1 0
BITMAP
0780
7800
0800
0800
0800
0F80
F040
ENDCHAR
STARTCHAR U_30A9
ENCODING 12457
SWIDTH 1000 0
DWIDTH 12 0
BBX 7 7 2 -1
BITMAP
08
08
FE
18
28
C8
18
ENDCHAR
STARTCHAR U_30AA
ENCODING 12458
SWIDTH 1000 0
DWIDTH 12 0
BBX 10 11 1 -1
BITMAP
0200
0200
83C0
7E00
0600
0A00
1200
2200
4200
8600
0200
ENDCHAR
STARTCHAR U_30AB
ENCODING 12459
SWIDTH 1000 0
DWIDTH 12 0
BBX 9 11 1 -1
BITMAP
1000
0800
0800
8F80
7880
0880
1080
1100
2100
4500
8200
ENDCHAR
STARTCHAR U_30AC
ENCODING 12460
SWIDTH 1000 0
DWIDTH 12 0
BBX 10 11 1 -1
BITMAP
1000
0940
0940
8F80
7880
0880
1080
1100
2100
4500
8200
ENDCHAR
STARTCHAR U_30AD
ENCODING 12461
SWIDTH 1000 0
DWIDTH 12 0
BBX 10 11 0 -1
BITMAP
0800
0800
0B80
7C00
0400
0FC0
F400
0400
0200
0200
0200
ENDCHAR
STARTCHAR U_30AE
ENCODING 12462
SWIDTH 1000 0
DWIDTH 12 0
BBX 11 11 0 -1
BITMAP
0800
08A0
0BA0
7C00
0400
0FC0
F400
0400
0200
0200
0200
ENDCHAR
STARTCHAR U_30AF
ENCODING 12463
SWIDTH 1000 0
DWIDTH 12 0
BBX 7 11 2 -1
BITMAP
40
26
3A
22
42
44
84
08
10
20
40
ENDCHAR
STARTCHAR U_30B0
ENCODING 12464
SWIDTH 1000 0
DWIDTH 12 0
BBX 10 11 1 -1
BITMAP
4140
2740
3A00
2200
4200
4400
8400
0800
1000
2000
4000
ENDCHAR
STARTCHAR U_30B1
ENCODING 12465
SWIDTH 1000 0
DWIDTH 12 0
BBX 10 11 1 -1
BITMAP
4000
2000
23C0
3C00
2200
2200
4200
8400
0400
0800
1000
ENDCHAR
STARTCHAR U_30B2
ENCODING 12466
SWIDTH 1000 0
DWIDTH 12 0
BBX 10 11 1 -1
BITMAP
4000
2140
2140
2380
3C00
2200
4200
8400
0400
0800
1000
ENDCHAR
STARTCHAR U_30B3
ENCODING 12467
SWIDTH 1000 0
DWIDTH 12 0
BBX 9 8 1 0
BITMAP
8F80
7080
0080
0080
0100
0100
0F00
7100
ENDCHAR
STARTCHAR U_30B4
ENCODING 12468
SWIDTH 1000 0
DWIDTH 12 0
BBX 10 10 1 0
BITMAP
0140
0140
8F80
7080
0080
0080
0100
0100
0F00
7100
ENDCHAR
STARTCHAR U_30B5
ENCODING 12469
SWIDTH 1000 0
DWIDTH 12 0
BBX 10 11 1 -1
BITMAP
0200
2100
1100
97C0
7900
1100
1100
1200
0200
0400
0800
ENDCHAR
STARTCHAR U_30B6
ENCODING 12470
SWIDTH 1000 0
DWIDTH 12 0
BBX 11 11 1 -1
BITMAP
02A0
21A0
1100
97C0
7900
1100
1100
1200
0200
0400
0800
ENDCHAR
STARTCHAR U_30B7
ENCODING 12471
SWIDTH 1000 0
DWIDTH 12 0
BBX 9 10 2 -1
BITMAP
6000
1000
0000
C000
2080
0100
0200
0400
9800
6000
ENDCHAR
STARTCHAR U_30B8
ENCODING 12472
SWIDTH 1000 0
DWIDTH 12 0
BBX 9 10 2 -1
BITMAP
6280
1280
0000
C000
2080
0100
0200
0400
9800
6000
ENDCHAR
STARTCHAR U_30B9
ENCODING 12473
SWIDTH 1000 0
DWIDTH 12 0
BBX 10 9 1 -1
BITMAP
4700
3900
0100
0200
0200
0500
0880
3040
C040
ENDCHAR
STARTCHAR U_30BA
ENCODING 12474
SWIDTH 1000 0
DWIDTH 12 0
BBX 10 10 1 -1
BITMAP
0140
4740
3900
0100
0200
0200
0500
0880
3040
C040
ENDCHAR
STARTCHAR U_30BB
ENCODING 12475
SWIDTH 1000 0
DWIDTH 12 0
BBX 10 10 0 -1
BITMAP
2000
1000
11C0
9E40
7080
1100
1200
1000
1000
0F80
ENDCHAR
STARTCHAR U_30BC
ENCODING 12476
SWIDTH 1000 0
DWIDTH 12 0
BBX 11 10 0 -1
BITMAP
20A0
10A0
11C0
9E40
7080
1100
1200
1000
1000
0F80
ENDCHAR
STARTCHAR U_30BD
ENCODING 12477
SWIDTH 1000 0
DWIDTH 12 0
BBX 8 10 2 -1
BITMAP
02
81
41
42
02
04
04
08
10
20
ENDCHAR
STARTCHAR U_30BE
ENCODING 12478
SWIDTH 1000 0
DWIDTH 12 0
BBX 10 10 1 -1
BITMAP
0540
8340
4100
4200
0200
0400
0400
0800
1000
2000
ENDCHAR
STARTCHAR U_30BF
ENCODING 12479
SWIDTH 1000 0
DWIDTH 12 0
BBX 9 11 1 -1
BITMAP
1000
0800
0F80
1080
1100
2900
4600
0400
0800
3000
C000
ENDCHAR
STARTCHAR U_30C0
ENCODING 12480
SWIDTH 1000 0
DWIDTH 12 0
BBX 11 11 1 -1
BITMAP
1000
08A0
0FA0
1080
1100
2900
4600
0400
0800
3000
C000
ENDCHAR
STARTCHAR U_30C1
ENCODING 12481
SWIDTH 1000 0
DWIDTH 12 0
BBX 11 11 0 -1
BITMAP
0100
0600
3C00
0200
87E0
7A00
0200
0200
0400
0400
0800
ENDCHAR
STARTCHAR U_30C2
ENCODING 12482
SWIDTH 1000 0
DWIDTH 12 0
BBX 11 11 0 -1
BITMAP
0100
06A0
3CA0
0200
87E0
7A00
0200
0200
0400
0400
0800
ENDCHAR
STARTCHAR U_30C3
ENCODING 12483
SWIDTH 1000 0
DWIDTH 12 0
BBX 7 7 2 -1
BITMAP
20
92
52
44
04
08
10
ENDCHAR
STARTCHAR U_30C4
ENCODING 12484
SWIDTH 1000 0
DWIDTH 12 0
BBX 9 10 1 -1
BITMAP
0100
1080
8880
4900
4100
0200
0200
0400
0800
1000
ENDCHAR
STARTCHAR U_30C5
ENCODING 12485
SWIDTH 1000 0
DWIDTH 12 0
BBX 10 11 1 -1
BITMAP
0140
1140
8800
4880
4880
4100
0100
0200
0400
1800
6000
ENDCHAR
STARTCHAR U_30C6
ENCODING 12486
SWIDTH 1000 0
DWIDTH 12 0
BBX 11 10 0 -1
BITMAP
2380
1C00
0000
87E0
7A00
0200
0200
0400
0800
1000
ENDCHAR
STARTCHAR U_30C7
ENCODING 12487
SWIDTH 1000 0
DWIDTH 12 0
BBX 11 11 0 -1
BITMAP
00A0
23A0
1C00
0000
87E0
7A00
0200
0200
0400
0800
1000
ENDCHAR
STARTCHAR U_30C8
ENCODING 12488
SWIDTH 1000 0
DWIDTH 12 0
BBX 7 11 2 -1
BITMAP
80
40
40
40
70
4C
42
40
40
40
40
ENDCHAR
STARTCHAR U_30C9
ENCODING 12489
SWIDTH 1000 0
DWIDTH 12 0
BBX 8 11 2 -1
BITMAP
80
45
45
40
70
4C
42
40
40
40
40
ENDCHAR
STARTCHAR U_30CA
ENCODING 12490
SWIDTH 1000 0
DWIDTH 12 0
BBX 10 11 1 -1
BITMAP
0800
0400
0400
87C0
7C00
0400
0400
0800
0800
1000
2000
ENDCHAR
STARTCHAR U_30CB
ENCODING 12491
SWIDTH 1000 0
DWIDTH 12 0
BBX 10 7 1 1
BITMAP
0700
7800
0000
0000
0000
0F80
F040
ENDCHAR
STARTCHAR U_30CC
ENCODING 12492
SWIDTH 1000 0
DWIDTH 12 0
BBX 10 9 1 -1
BITMAP
4780
3880
0100
1900
0600
0500
0880
3040
C000
ENDCHAR
STARTCHAR U_30CD
ENCODING 12493
SWIDTH 1000 0
DWIDTH 12 0
BBX 10 11 1 -1
BITMAP
0800
0400
0F00
7100
0200
0C00
3B00
C8C0
0800
0800
0800
ENDCHAR
STARTCHAR U_30CE
ENCODING 12494
SWIDTH 1000 0
DWIDTH 12 0
BBX 7 10 3 -1
BITMAP
04
02
02
04
04
08
10
20
40
80
ENDCHAR
STARTCHAR U_30CF
ENCODING 12495
SWIDTH 1000 0
DWIDTH 12 0
BBX 11 7 0 0
BITMAP
1100
0880
1040
1040
2020
4020
8020
ENDCHAR
STARTCHAR U_30D0
ENCODING 12496
SWIDTH 1000 0
DWIDTH 12 0
BBX 11 9 0 0
BITMAP
00A0
00A0
1100
0880
1040
1040
2020
4020
8020
ENDCHAR
STARTCHAR U_30D1
ENCODING 12497
SWIDTH 1000 0
DWIDTH 12 0
BBX 12 9 0 0
BITMAP
0060
0090
1160
0880
0840
1040
2020
4020
8020
ENDCHAR
STARTCHAR U_30D2
ENCODING 12498
SWIDTH 1000 0
DWIDTH 12 0
BBX 9 9 1 0
BITMAP
8000
4000
4000
4700
7800
4000
4000
4000
3F80
ENDCHAR
STARTCHAR U_30D3
ENCODING 12499
SWIDTH 1000 0
DWIDTH 12 0
BBX 10 9 1 0
BITMAP
8140
4140
4000
4700
7800
4000
4000
4000
3F80
ENDCHAR
STARTCHAR U_30D4
ENCODING 12500
SWIDTH 1000 0
DWIDTH 12 0
BBX 10 9 1 0
BITMAP
8180
4240
4180
4700
7800
4000
4000
4000
3F80
ENDCHAR
STARTCHAR U_30D5
ENCODING 12501
SWIDTH 1000 0
DWIDTH 12 0
BBX 9 9 1 -1
BITMAP
8780
7880
0080
0100
0100
0200
0400
0800
3000
ENDCHAR
STARTCHAR U_30D6
ENCODING 12502
SWIDTH 1000 0
DWIDTH 12 0
BBX 10 11 0 -1
BITMAP
0140
0140
8780
7880
0080
0100
0100
0200
0400
0800
3000
ENDCHAR
STARTCHAR U_30D7
ENCODING 12503
SWIDTH 1000 0
DWIDTH 12 0
BBX 11 11 0 -1
BITMAP
00C0
0120
87C0
7880
0080
0100
0100
0200
0400
0800
3000
ENDCHAR
STARTCHAR U_30D8
ENCODING 12504
SWIDTH 1000 0
DWIDTH 12 0
BBX 11 6 0 1
BITMAP
0800
1400
2200
C100
0080
0060
ENDCHAR
STARTCHAR U_30D9
ENCODING 12505
SWIDTH 1000 0
DWIDTH 12 0
BBX 11 8 0 1
BITMAP
00A0
00A0
0800
1400
2200
C100
0080
0060
ENDCHAR
STARTCHAR U_30DA
ENCODING 12506
SWIDTH 1000 0
DWIDTH 12 0
BBX 11 8 0 1
BITMAP
00C0
0120
08C0
1400
2200
C100
0080
0060
ENDCHAR
STARTCHAR U_30DB
ENCODING 12507
SWIDTH 1000 0
DWIDTH 12 0
BBX 9 11 1 -1
BITMAP
0800
0800
8F80
7800
0800
2A00
2900
4880
4880
9800
0800
ENDCHAR
STARTCHAR U_30DC
ENCODING 12508
SWIDTH 1000 0
DWIDTH 12 0
BBX 10 11 1 -1
BITMAP
0800
0940
8F40
7800
0800
2A00
2900
4880
4880
9800
0800
ENDCHAR
STARTCHAR U_30DD
ENCODING 12509
SWIDTH 1000 0
DWIDTH 12 0
BBX 11 11 1 -1
BITMAP
0800
08C0
8F20
78C0
0800
2A00
2900
4880
4880
9800
0800
ENDCHAR
STARTCHAR U_30DE
ENCODING 12510
SWIDTH 1000 0
DWIDTH 12 0
BBX 9 8 1 0
BITMAP
8780
7880
0100
0200
6400
1800
0400
0200
ENDCHAR
STARTCHAR U_30DF
ENCODING 12511
SWIDTH 1000 0
DWIDTH 12 0
BBX 7 10 2 -1
BITMAP
60
18
06
00
70
0C
00
E0
18
06
ENDCHAR
STARTCHAR U_30E0
ENCODING 12512
SWIDTH 1000 0
DWIDTH 12 0
BBX 9 10 1 -1
BITMAP
1000
0800
0800
1000
1400
2200
2100
4F00
F080
0080
ENDCHAR
STARTCHAR U_30E1
ENCODING 12513
SWIDTH 1000 0
DWIDTH 12 0
BBX 9 10 2 -1
BITMAP
0200
0100
0100
3100
0E00
0200
0500
0880
3000
C000
ENDCHAR
STARTCHAR U_30E2
ENCODING 12514
SWIDTH 1000 0
DWIDTH 12 0
BBX 10 8 1 0
BITMAP
8700
7800
1000
93C0
7C00
1000
1000
0F80
ENDCHAR
STARTCHAR U_30E3
ENCODING 12515
SWIDTH 1000 0
DWIDTH 12 0
BBX 8 7 2 -1
BITMAP
20
20
2F
F2
14
10
10
ENDCHAR
STARTCHAR U_30E4
ENCODING 12516
SWIDTH 1000 0
DWIDTH 12 0
BBX 11 10 0 -1
BITMAP
2000
1000
11E0
9E40
6880
0900
0800
0400
0400
0400
ENDCHAR
STARTCHAR U_30E5
ENCODING 12517
SWIDTH 1000 0
DWIDTH 12 0
BBX 7 4 2 0
BITMAP
7C
08
08
FE
ENDCHAR
STARTCHAR U_30E6
ENCODING 12518
SWIDTH 1000 0
DWIDTH 12 0
BBX 10 7 1 0
BITMAP
4700
3900
0100
0200
0200
0F80
F040
ENDCHAR
STARTCHAR U_30E7
ENCODING 12519
SWIDTH 1000 0
DWIDTH 12 0
BBX 7 6 2 -1
BITMAP
3C
C4
3C
04
1C
E2
ENDCHAR
STARTCHAR U_30E8
ENCODING 12520
SWIDTH 1000 0
DWIDTH 12 0
BBX 9 9 1 -1
BITMAP
0F80
F080
0080
0700
3900
0100
0100
0F00
7080
ENDCHAR
STARTCHAR U_30E9
ENCODING 12521
SWIDTH 1000 0
DWIDTH 12 0
BBX 9 10 1 -1
BITMAP
4E00
3000
8780
7880
0080
0100
0100
0200
0C00
3000
ENDCHAR
STARTCHAR U_30EA
ENCODING 12522
SWIDTH 1000 0
DWIDTH 12 0
BBX 7 11 2 -1
BITMAP
04
82
42
42
42
42
42
04
04
08
10
ENDCHAR
STARTCHAR U_30EB
ENCODING 12523
SWIDTH 1000 0
DWIDTH 12 0
BBX 10 10 1 -1
BITMAP
0800
4400
2400
2400
2440
2440
2480
4500
4600
8400
ENDCHAR
STARTCHAR U_30EC
ENCODING 12524
SWIDTH 1000 0
DWIDTH 12 0
BBX 8 10 1 -1
BITMAP
80
40
40
40
40
41
42
44
58
60
ENDCHAR
STARTCHAR U_30ED
ENCODING 12525
SWIDTH 1000 0
DWIDTH 12 0
BBX 10 8 0 0
BITMAP
87C0
7840
4040
4040
2080
2080
2F80
3040
ENDCHAR
STARTCHAR U_30EE
ENCODING 12526
SWIDTH 1000 0
DWIDTH 12 0
BBX 7 6 1 -1
BITMAP
8E
72
42
04
08
30
ENDCHAR
STARTCHAR U_30EF
ENCODING 12527
SWIDTH 1000 0
DWIDTH 12 0
BBX 9 9 1 -1
BITMAP
8780
7880
4080
4080
0100
0100
0200
0400
1800
ENDCHAR
STARTCHAR U_30F0
ENCODING 12528
SWIDTH 1000 0
DWIDTH 12 0
BBX 10 11 1 -1
BITMAP
0400
0200
0200
0F80
F200
2200
2780
FA40
0200
0200
0200
ENDCHAR
STARTCHAR U_30F1
ENCODING 12529
SWIDTH 1000 0
DWIDTH 12 0
BBX 10 8 0 0
BITMAP
0780
7880
0500
0600
0400
0400
0F80
F040
ENDCHAR
STARTCHAR U_30F2
ENCODING 12530
SWIDTH 1000 0
DWIDTH 12 0
BBX 8 10 2 -1
BITMAP
0F
F1
01
0F
72
02
04
08
30
C0
ENDCHAR
STARTCHAR U_30F3
ENCODING 12531
SWIDTH 1000 0
DWIDTH 12 0
BBX 9 9 1 -1
BITMAP
6000
1080
0080
0100
0100
0200
0400
9800
6000
ENDCHAR
STARTCHAR U_30F4
ENCODING 12532
SWIDTH 1000 0
DWIDTH 12 0
BBX 10 11 1 -1
BITMAP
0940
0940
0800
8F80
7880
4080
4100
0100
0200
0400
1800
ENDCHAR
STARTCHAR U_30F5
ENCODING 12533
SWIDTH 1000 0
DWIDTH 12 0
BBX 6 7 2 -1
BITMAP
20
20
FC
24
24
44
98
ENDCHAR
STARTCHAR U_30F6
ENCODING 12534
SWIDTH 1000 0
DWIDTH 12 0
BBX 7 7 2 -1
BITMAP
20
20
3E
48
88
10
20
ENDCHAR
STARTCHAR U_30FB
ENCODING 12539
SWIDTH 1000 0
DWIDTH 12 0
BBX 11 11 0 -1
BITMAP
0000
0000
0000
0000
0000
0400
0000
0000
0000
0000
0000
ENDCHAR
STARTCHAR U_30FC
ENCODING 12540
SWIDTH 1000 0
DWIDTH 12 0
BBX 11 11 0 -1
BITMAP
0000
0000
0000
0000
0000
7FE0
0000
0000
0000
0000
0000
ENDCHAR
STARTCHAR U_3105
ENCODING 12549
SWIDTH 1000 0
DWIDTH 12 0
BBX 8 10 2 0
BITMAP
20
20
4F
F1
01
02
02
24
1C
18
ENDCHAR
STARTCHAR U_3106
ENCODING 12550
SWIDTH 1000 0
DWIDTH 12 0
BBX 10 11 1 -1
BITMAP
0400
0400
0800
1380
3D00
0200
1400
0E00
1100
20C0
C040
ENDCHAR
STARTCHAR U_3107
ENCODING 12551
SWIDTH 1000 0
DWIDTH 12 0
BBX 9 9 2 0
BITMAP
0300
FF80
4100
4100
4100
4100
4100
4100
4100
ENDCHAR
STARTCHAR U_3108
ENCODING 12552
SWIDTH 1000 0
DWIDTH 12 0
BBX 8 7 2 1
BITMAP
FF
80
80
80
80
80
7F
ENDCHAR
STARTCHAR U_3109
ENCODING 12553
SWIDTH 1000 0
DWIDTH 12 0
BBX 9 11 2 -1
BITMAP
2000
3000
2000
FF80
1180
1100
1100
2100
4A00
8600
0400
ENDCHAR
STARTCHAR U_310A
ENCODING 12554
SWIDTH 1000 0
DWIDTH 12 0
BBX 10 10 1 -1
BITMAP
0400
0400
0400
FFC0
0800
0800
1200
1100
3E80
0080
ENDCHAR
STARTCHAR U_310B
ENCODING 12555
SWIDTH 1000 0
DWIDTH 12 0
BBX 7 9 3 0
BITMAP
FC
08
08
1E
02
04
04
28
10
ENDCHAR
STARTCHAR U_310C
ENCODING 12556
SWIDTH 1000 0
DWIDTH 12 0
BBX 8 10 2 0
BITMAP
08
08
48
7F
91
11
22
22
4A
04
ENDCHAR
STARTCHAR U_310D
ENCODING 12557
SWIDTH 1000 0
DWIDTH 12 0
BBX 8 9 2 0
BITMAP
11
22
22
44
88
88
44
22
11
ENDCHAR
STARTCHAR U_310E
ENCODING 12558
SWIDTH 1000 0
DWIDTH 12 0
BBX 10 9 1 0
BITMAP
FFC0
0800
1000
1F80
0100
0100
0100
0A00
0600
ENDCHAR
STARTCHAR U_310F
ENCODING 12559
SWIDTH 1000 0
DWIDTH 12 0
BBX 10 10 1 0
BITMAP
01C0
1E00
1000
1000
2000
2000
2000
4000
4000
8000
ENDCHAR
STARTCHAR U_3110
ENCODING 12560
SWIDTH 1000 0
DWIDTH 12 0
BBX 6 11 3 -1
BITMAP
0C
04
C4
44
44
4C
74
C4
04
04
04
ENDCHAR
STARTCHAR U_3111
ENCODING 12561
SWIDTH 1000 0
DWIDTH 12 0
BBX 7 10 3 0
BITMAP
06
0C
10
60
C0
60
10
0C
06
02
ENDCHAR
STARTCHAR U_3112
ENCODING 12562
SWIDTH 1000 0
DWIDTH 12 0
BBX 10 9 1 0
BITMAP
FFC0
0400
0400
0400
0400
0400
0400
0400
0400
ENDCHAR
STARTCHAR U_3113
ENCODING 12563
SWIDTH 1000 0
DWIDTH 12 0
BBX 10 9 1 0
BITMAP
0800
0800
4900
4900
4900
7F00
0800
0800
FFC0
ENDCHAR
STARTCHAR U_3114
ENCODING 12564
SWIDTH 1000 0
DWIDTH 12 0
BBX 7 10 2 0
BITMAP
02
04
0A
32
04
0C
34
C4
04
04
ENDCHAR
STARTCHAR U_3115
ENCODING 12565
SWIDTH 1000 0
DWIDTH 12 0
BBX 9 10 2 0
BITMAP
0100
7F80
0100
0300
3C00
2000
4000
4000
4000
8000
ENDCHAR
STARTCHAR U_3116
ENCODING 12566
SWIDTH 1000 0
DWIDTH 12 0
BBX 7 9 2 0
BITMAP
1E
E2
82
A2
92
82
82
FE
80
ENDCHAR
STARTCHAR U_3117
ENCODING 12567
SWIDTH 1000 0
DWIDTH 12 0
BBX 8 11 2 -1
BITMAP
03
FD
11
11
11
11
12
10
10
10
10
ENDCHAR
STARTCHAR U_3118
ENCODING 12568
SWIDTH 1000 0
DWIDTH 12 0
BBX 10 11 1 -1
BITMAP
0400
0400
0800
FFC0
0800
0800
1700
0900
0200
0400
0800
ENDCHAR
STARTCHAR U_3119
ENCODING 12569
SWIDTH 1000 0
DWIDTH 12 0
BBX 9 9 1 0
BITMAP
0800
0C00
0800
0800
1000
2000
4100
8E80
F000
ENDCHAR
STARTCHAR U_311A
ENCODING 12570
SWIDTH 1000 0
DWIDTH 12 0
BBX 7 9 2 0
BITMAP
82
C6
2C
10
10
10
10
10
10
ENDCHAR
STARTCHAR U_311B
ENCODING 12571
SWIDTH 1000 0
DWIDTH 12 0
BBX 8 8 2 1
BITMAP
1F
E8
08
08
78
80
81
7E
ENDCHAR
STARTCHAR U_311C
ENCODING 12572
SWIDTH 1000 0
DWIDTH 12 0
BBX 10 10 1 -1
BITMAP
0400
0400
07C0
FC00
0400
3C00
4000
4000
2080
1F00
ENDCHAR
STARTCHAR U_311D
ENCODING 12573
SWIDTH 1000 0
DWIDTH 12 0
BBX 11 9 1 0
BITMAP
2000
1100
1100
13E0
FE00
1200
1200
1000
0F00
ENDCHAR
STARTCHAR U_311E
ENCODING 12574
SWIDTH 1000 0
DWIDTH 12 0
BBX 8 9 2 0
BITMAP
FF
48
48
FF
11
22
42
44
84
ENDCHAR
STARTCHAR U_311F
ENCODING 12575
SWIDTH 1000 0
DWIDTH 12 0
BBX 9 8 2 0
BITMAP
1800
E800
0800
0800
0400
0400
0200
0180
ENDCHAR
STARTCHAR U_3120
ENCODING 12576
SWIDTH 1000 0
DWIDTH 12 0
BBX 8 10 2 -1
BITMAP
08
10
11
22
44
F8
14
22
FD
01
ENDCHAR
STARTCHAR U_3121
ENCODING 12577
SWIDTH 1000 0
DWIDTH 12 0
BBX 9 9 2 0
BITMAP
0200
7F00
0200
2400
1C00
0C00
1200
6100
8080
ENDCHAR
STARTCHAR U_3122
ENCODING 12578
SWIDTH 1000 0
DWIDTH 12 0
BBX 8 8 2 1
BITMAP
7E
42
44
BF
C1
02
02
04
ENDCHAR
STARTCHAR U_3123
ENCODING 12579
SWIDTH 1000 0
DWIDTH 12 0
BBX 9 9 1 0
BITMAP
2000
2000
4000
4000
7F80
8080
0100
0100
0200
ENDCHAR
STARTCHAR U_3124
ENCODING 12580
SWIDTH 1000 0
DWIDTH 12 0
BBX 10 10 1 -1
BITMAP
0400
0400
0800
7F80
0C00
1400
1400
2400
4400
83C0
ENDCHAR
STARTCHAR U_3125
ENCODING 12581
SWIDTH 1000 0
DWIDTH 12 0
BBX 10 8 1 1
BITMAP
0400
0400
0800
0800
1000
2000
4000
FFC0
ENDCHAR
STARTCHAR U_3126
ENCODING 12582
SWIDTH 1000 0
DWIDTH 12 0
BBX 10 10 1 0
BITMAP
0400
2600
2400
2400
2400
2400
2400
2400
4400
83C0
ENDCHAR
STARTCHAR U_3127
ENCODING 12583
SWIDTH 1000 0
DWIDTH 12 0
BBX 11 1 1 4
BITMAP
FFE0
ENDCHAR
STARTCHAR U_3128
ENCODING 12584
SWIDTH 1000 0
DWIDTH 12 0
BBX 8 10 2 0
BITMAP
02
03
42
24
14
08
14
22
41
81
ENDCHAR
STARTCHAR U_3129
ENCODING 12585
SWIDTH 1000 0
DWIDTH 12 0
BBX 8 9 2 0
BITMAP
C3
41
41
41
41
81
81
FF
41
ENDCHAR
STARTCHAR U_3220
ENCODING 12832
SWIDTH 1000 0
DWIDTH 12 0
BBX 12 10 0 0
BITMAP
4020
4020
8010
8010
8010
BFD0
8010
8010
4020
4020
ENDCHAR
STARTCHAR U_3221
ENCODING 12833
SWIDTH 1000 0
DWIDTH 12 0
BBX 12 10 0 0
BITMAP
4020
4020
9F90
8010
8010
8010
8010
BFD0
4020
4020
ENDCHAR
STARTCHAR U_3222
ENCODING 12834
SWIDTH 1000 0
DWIDTH 12 0
BBX 12 10 0 0
BITMAP
4020
5FA0
8010
8010
8F10
8010
8010
8010
5FA0
4020
ENDCHAR
STARTCHAR U_3223
ENCODING 12835
SWIDTH 1000 0
DWIDTH 12 0
BBX 12 10 0 0
BITMAP
4020
5FE0
9550
9550
9550
99D0
9050
9FD0
4020
4020
ENDCHAR
STARTCHAR U_3224
ENCODING 12836
SWIDTH 1000 0
DWIDTH 12 0
BBX 12 10 0 0
BITMAP
4020
5FB0
8410
8410
9F90
8490
8890
8890
5FE0
4020
ENDCHAR
STARTCHAR U_3225
ENCODING 12837
SWIDTH 1000 0
DWIDTH 12 0
BBX 12 10 0 0
BITMAP
4020
4220
8210
9FD0
8010
8510
8490
8890
5060
4020
ENDCHAR
STARTCHAR U_3226
ENCODING 12838
SWIDTH 1000 0
DWIDTH 12 0
BBX 12 10 0 0
BITMAP
4820
4820
8810
8990
BE10
8810
8890
8890
47A0
4020
ENDCHAR
STARTCHAR U_3227
ENCODING 12839
SWIDTH 1000 0
DWIDTH 12 0
BBX 12 11 0 -1
BITMAP
4020
4720
8110
8910
8910
8910
8890
9090
A060
4020
4000
ENDCHAR
STARTCHAR U_3228
ENCODING 12840
SWIDTH 1000 0
DWIDTH 12 0
BBX 12 10 0 0
BITMAP
4420
4420
BF10
8510
8510
8510
8950
8950
51E0
4020
ENDCHAR
STARTCHAR U_3229
ENCODING 12841
SWIDTH 1000 0
DWIDTH 12 0
BBX 12 10 0 0
BITMAP
4220
4220
8210
8210
BFD0
8210
8210
8210
4220
4220
ENDCHAR
STARTCHAR U_32A3
ENCODING 12963
SWIDTH 1000 0
DWIDTH 12 0
BBX 12 12 0 -1
BITMAP
1F80
2040
4FA0
4220
8210
8390
8A10
8A10
4A20
5FA0
2040
1F80
ENDCHAR
STARTCHAR U_338E
ENCODING 13198
SWIDTH 1000 0
DWIDTH 12 0
BBX 12 8 0 -1
BITMAP
28D0
D520
5520
5520
54C0
5520
5520
00C0
ENDCHAR
STARTCHAR U_338F
ENCODING 13199
SWIDTH 1000 0
DWIDTH 12 0
BBX 11 11 1 -1
BITMAP
C000
4000
4000
59A0
5240
6240
6240
5180
5240
DA40
03C0
ENDCHAR
STARTCHAR U_339C
ENCODING 13212
SWIDTH 1000 0
DWIDTH 12 0
BBX 12 8 0 0
BITMAP
AAA0
5550
5550
5550
5550
5550
5550
5550
ENDCHAR
STARTCHAR U_339D
ENCODING 13213
SWIDTH 1000 0
DWIDTH 12 0
BBX 11 8 1 0
BITMAP
3540
4AA0
8AA0
82A0
82A0
82A0
4AA0
32A0
ENDCHAR
STARTCHAR U_339E
ENCODING 13214
SWIDTH 1000 0
DWIDTH 12 0
BBX 11 10 1 0
BITMAP
C000
4000
4540
5AA0
52A0
62A0
62A0
52A0
52A0
DAA0
ENDCHAR
STARTCHAR U_33A1
ENCODING 13217
SWIDTH 1000 0
DWIDTH 12 0
BBX 11 11 1 0
BITMAP
0040
00A0
0020
0040
B6E0
4900
4900
4900
4900
4900
4900
ENDCHAR
STARTCHAR U_33C4
ENCODING 13252
SWIDTH 1000 0
DWIDTH 12 0
BBX 11 7 1 0
BITMAP
30C0
4920
8200
8200
8200
4920
30C0
ENDCHAR
STARTCHAR U_33CE
ENCODING 13262
SWIDTH 1000 0
DWIDTH 12 0
BBX 12 10 0 0
BITMAP
8C10
9630
9550
A550
C550
A490
A490
9490
9490
8C90
ENDCHAR
STARTCHAR U_33D1
ENCODING 13265
SWIDTH 1000 0
DWIDTH 12 0
BBX 10 10 2 0
BITMAP
C000
4000
4000
4B00
4480
4480
4480
4480
4480
ECC0
ENDCHAR
STARTCHAR U_33D2
ENCODING 13266
SWIDTH 1000 0
DWIDTH 12 0
BBX 12 11 0 -1
BITMAP
C000
4000
4000
48D0
5520
5520
5520
54C0
5520
E920
00C0
ENDCHAR
STARTCHAR U_33D5
ENCODING 13269
SWIDTH 1000 0
DWIDTH 12 0
BBX 11 10 0 0
BITMAP
0060
0120
0020
A920
5520
5520
5520
5520
5520
5520
ENDCHAR
STARTCHAR U_4E00
ENCODING 19968
SWIDTH 1000 0
DWIDTH 12 0
BBX 11 2 0 4
BITMAP
0040
FFE0
ENDCHAR
STARTCHAR U_4E01
ENCODING 19969
SWIDTH 1000 0
DWIDTH 12 0
BBX 10 10 1 -1
BITMAP
FFC0
0400
0400
0400
0400
0400
0400
0400
0400
1C00
ENDCHAR
STARTCHAR U_4E02
ENCODING 19970
SWIDTH 1000 0
DWIDTH 12 0
BBX 11 11 0 -1
BITMAP
FFE0
0800
0800
1000
3FC0
0040
0040
0040
0080
0080
0700
ENDCHAR
STARTCHAR U_4E03
ENCODING 19971
SWIDTH 1000 0
DWIDTH 12 0
BBX 10 11 1 -1
BITMAP
0800
0800
0800
08C0
0F00
F800
0800
0800
0840
0840
07C0
ENDCHAR
STARTCHAR U_4E04
ENCODING 19972
SWIDTH 1000 0
DWIDTH 12 0
BBX 11 9 0 0
BITMAP
0400
0400
0400
0400
0400
0400
0400
0440
FFE0
ENDCHAR
STARTCHAR U_4E05
ENCODING 19973
SWIDTH 1000 0
DWIDTH 12 0
BBX 11 11 0 -1
BITMAP
0040
FFE0
0400
0400
0400
0400
0400
0400
0400
0400
0400
ENDCHAR
STARTCHAR U_4E06
ENCODING 19974
SWIDTH 1000 0
DWIDTH 12 0
BBX 11 6 0 2
BITMAP
FFE0
0400
0400
0800
1000
6000
ENDCHAR
STARTCHAR U_4E07
ENCODING 19975
SWIDTH 1000 0
DWIDTH 12 0
BBX 11 11 0 -1
BITMAP
FFE0
0800
0800
0F80
0880
0880
1080
1080
2080
4080
8700
ENDCHAR
STARTCHAR U_4E08
ENCODING 19976
SWIDTH 1000 0
DWIDTH 12 0
BBX 11 11 0 -1
BITMAP
0400
0400
FFE0
0400
2400
2400
1400
0800
1400
2200
C1E0
ENDCHAR
STARTCHAR U_4E09
ENCODING 19977
SWIDTH 1000 0
DWIDTH 12 0
BBX 11 11 0 -1
BITMAP
0080
7FC0
0000
0000
0000
3F80
0000
0000
0000
0040
FFE0
ENDCHAR
STARTCHAR U_4E0A
ENCODING 19978
SWIDTH 1000 0
DWIDTH 12 0
BBX 11 11 0 -1
BITMAP
0400
0400
0400
0400
07C0
0400
0400
0400
0400
0400
FFE0
ENDCHAR
STARTCHAR U_4E0B
ENCODING 19979
SWIDTH 1000 0
DWIDTH 12 0
BBX 11 11 0 -1
BITMAP
FFE0
0400
0400
0600
0500
0480
0480
0400
0400
0400
0400
ENDCHAR
STARTCHAR U_4E0C
ENCODING 19980
SWIDTH 1000 0
DWIDTH 12 0
BBX 11 11 0 -1
BITMAP
0040
FFE0
1100
1100
1100
1100
1100
2100
2100
4100
8100
ENDCHAR
STARTCHAR U_4E0D
ENCODING 19981
SWIDTH 1000 0
DWIDTH 12 0
BBX 11 11 0 -1
BITMAP
FFE0
0200
0200
0400
0D00
1480
2440
4420
0400
0400
0400
ENDCHAR
STARTCHAR U_4E0E
ENCODING 19982
SWIDTH 1000 0
DWIDTH 12 0
BBX 11 11 0 -1
BITMAP
1000
1000
1FE0
1000
1000
1FC0
0040
FE40
0040
0040
0380
ENDCHAR
STARTCHAR U_4E0F
ENCODING 19983
SWIDTH 1000 0
DWIDTH 12 0
BBX 11 11 0 -1
BITMAP
FFE0
0800
0800
2F80
2880
4880
7F80
0080
0080
0080
0700
ENDCHAR
STARTCHAR U_4E10
ENCODING 19984
SWIDTH 1000 0
DWIDTH 12 0
BBX 11 11 0 -1
BITMAP
FFE0
0400
2400
27C0
4400
7FC0
0040
0040
0040
0040
0380
ENDCHAR
STARTCHAR U_4E11
ENCODING 19985
SWIDTH 1000 0
DWIDTH 12 0
BBX 11 11 0 -1
BITMAP
3FC0
0440
0440
0440
0440
7FC0
0840
0840
0840
0840
FFE0
ENDCHAR
STARTCHAR U_4E12
ENCODING 19986
SWIDTH 1000 0
DWIDTH 12 0
BBX 11 11 0 -1
BITMAP
3FC0
0840
2840
1840
0C40
0A40
1040
2040
4380
0000
FFE0
ENDCHAR
STARTCHAR U_4E13
ENCODING 19987
SWIDTH 1000 0
DWIDTH 12 0
BBX 11 11 0 -1
BITMAP
0400
7FC0
0400
0400
FFE0
0800
1F80
0080
0900
0600
0200
ENDCHAR
STARTCHAR U_4E14
ENCODING 19988
SWIDTH 1000 0
DWIDTH 12 0
BBX 10 11 1 -1
BITMAP
3F00
2100
2100
3F00
2100
2100
2100
3F00
2100
2100
FFC0
ENDCHAR
STARTCHAR U_4E15
ENCODING 19989
SWIDTH 1000 0
DWIDTH 12 0
BBX 11 11 0 -1
BITMAP
FFE0
0200
0400
0C00
1480
2440
4420
8420
0400
0400
FFE0
ENDCHAR
STARTCHAR U_4E16
ENCODING 19990
SWIDTH 1000 0
DWIDTH 12 0
BBX 11 11 0 -1
BITMAP
0480
2480
2480
FFE0
2480
2480
2480
2780
2000
2000
3FE0
ENDCHAR
STARTCHAR U_4E17
ENCODING 19991
SWIDTH 1000 0
DWIDTH 12 0
BBX 11 11 0 -1
BITMAP
0400
2480
2480
FFE0
2480
2480
2480
2480
2480
3F80
2080
ENDCHAR
STARTCHAR U_4E18
ENCODING 19992
SWIDTH 1000 0
DWIDTH 12 0
BBX 11 11 0 -1
BITMAP
0180
1E00
1000
1000
1FC0
1100
1100
1100
1100
1100
FFE0
ENDCHAR
STARTCHAR U_4E19
ENCODING 19993
SWIDTH 1000 0
DWIDTH 12 0
BBX 11 11 0 -1
BITMAP
FFE0
0400
0400
7FC0
4440
4640
4940
5040
4040
4040
41C0
ENDCHAR
STARTCHAR U_4E1A
ENCODING 19994
SWIDTH 1000 0
DWIDTH 12 0
BBX 11 11 0 -1
BITMAP
0900
0900
0920
8920
4940
2940
2980
0900
0900
0900
FFE0
ENDCHAR
STARTCHAR U_4E1B
ENCODING 19995
SWIDTH 1000 0
DWIDTH 12 0
BBX 11 11 0 -1
BITMAP
1080
1080
1080
1080
1080
2880
2540
4240
8C20
0000
FFE0
ENDCHAR
STARTCHAR U_4E1C
ENCODING 19996
SWIDTH 1000 0
DWIDTH 12 0
BBX 10 11 1 -1
BITMAP
0800
0800
FFC0
1400
2400
7F80
0400
2500
4480
8440
1C00
ENDCHAR
STARTCHAR U_4E1D
ENCODING 19997
SWIDTH 1000 0
DWIDTH 12 0
BBX 11 11 0 -1
BITMAP
2100
2100
2940
4A40
F780
1080
2100
4200
F7C0
0000
FFE0
ENDCHAR
STARTCHAR U_4E1E
ENCODING 19998
SWIDTH 1000 0
DWIDTH 12 0
BBX 11 11 0 -1
BITMAP
3F80
0100
0220
74C0
1700
2500
4480
8460
0C00
0000
FFE0
ENDCHAR
STARTCHAR U_4E1F
ENCODING 19999
SWIDTH 1000 0
DWIDTH 12 0
BBX 11 10 0 -1
BITMAP
7FC0
0400
7FC0
0400
0400
FFE0
0A00
1100
7FC0
2040
ENDCHAR
STARTCHAR U_4E20
ENCODING 20000
SWIDTH 1000 0
DWIDTH 12 0
BBX 11 11 0 -1
BITMAP
1200
1200
1240
F280
1300
1200
3240
5240
91C0
0000
FFE0
ENDCHAR
STARTCHAR U_4E21
ENCODING 20001
SWIDTH 1000 0
DWIDTH 12 0
BBX 11 10 0 -1
BITMAP
FFE0
0400
7FC0
4440
5540
5540
5F40
5140
4040
40C0
ENDCHAR
STARTCHAR U_4E22
ENCODING 20002
SWIDTH 1000 0
DWIDTH 12 0
BBX 11 11 0 -1
BITMAP
0180
3E00
0400
7FC0
0400
0400
FFE0
0800
1080
3FC0
1040
ENDCHAR
STARTCHAR U_4E23
ENCODING 20003
SWIDTH 1000 0
DWIDTH 12 0
BBX 11 11 0 -1
BITMAP
FFE0
0A00
0A00
7BC0
4A40
4A40
7BC0
0A00
1200
1200
2200
ENDCHAR
STARTCHAR U_4E24
ENCODING 20004
SWIDTH 1000 0
DWIDTH 12 0
BBX 11 11 0 -1
BITMAP
FFE0
1200
1200
7FC0
5240
5240
5B40
64C0
4840
4040
40C0
ENDCHAR
STARTCHAR U_4E25
ENCODING 20005
SWIDTH 1000 0
DWIDTH 12 0
BBX 10 11 0 -1
BITMAP
7FC0
0A00
4A40
2A80
0A00
7FC0
4000
4000
4000
4000
8000
ENDCHAR
STARTCHAR U_4E26
ENCODING 20006
SWIDTH 1000 0
DWIDTH 12 0
BBX 11 11 0 -1
BITMAP
2080
1100
FFE0
0A00
4A40
4A40
2A40
2A80
0A00
0A00
FFE0
ENDCHAR
STARTCHAR U_4E27
ENCODING 20007
SWIDTH 1000 0
DWIDTH 12 0
BBX 11 11 0 -1
BITMAP
0400
FFE0
0400
2480
1500
FFE0
2440
2280
2100
2C80
3060
ENDCHAR
STARTCHAR U_4E28
ENCODING 20008
SWIDTH 1000 0
DWIDTH 12 0
BBX 1 11 6 -1
BITMAP
80
80
80
80
80
80
80
80
80
80
80
ENDCHAR
STARTCHAR U_4E29
ENCODING 20009
SWIDTH 1000 0
DWIDTH 12 0
BBX 5 11 3 -1
BITMAP
08
88
88
88
88
98
E8
88
08
08
08
ENDCHAR
STARTCHAR U_4E2A
ENCODING 20010
SWIDTH 1000 0
DWIDTH 12 0
BBX 10 11 1 -1
BITMAP
0800
0800
1400
2200
4900
88C0
0800
0800
0800
0800
0800
ENDCHAR
STARTCHAR U_4E2B
ENCODING 20011
SWIDTH 1000 0
DWIDTH 12 0
BBX 9 11 1 -1
BITMAP
8180
6100
2200
0400
0800
0800
0800
0800
0800
0800
0800
ENDCHAR
STARTCHAR U_4E2C
ENCODING 20012
SWIDTH 1000 0
DWIDTH 12 0
BBX 6 11 1 -1
BITMAP
04
44
24
24
04
14
24
C4
44
04
04
ENDCHAR
STARTCHAR U_4E2D
ENCODING 20013
SWIDTH 1000 0
DWIDTH 12 0
BBX 9 11 1 -1
BITMAP
0800
0800
FF80
8880
8880
8880
FF80
8880
0800
0800
0800
ENDCHAR
STARTCHAR U_4E2E
ENCODING 20014
SWIDTH 1000 0
DWIDTH 12 0
BBX 11 11 0 -1
BITMAP
FF80
0880
0880
7E80
0880
0880
FF80
08A0
08A0
0860
0820
ENDCHAR
STARTCHAR U_4E2F
ENCODING 20015
SWIDTH 1000 0
DWIDTH 12 0
BBX 11 11 0 -1
BITMAP
0400
04C0
0F00
7400
04C0
1F20
64C0
0F00
F400
0400
0400
ENDCHAR
STARTCHAR U_4E30
ENCODING 20016
SWIDTH 1000 0
DWIDTH 12 0
BBX 11 11 0 -1
BITMAP
0400
0400
7FC0
0400
0400
3F80
0400
0400
FFE0
0400
0400
ENDCHAR
STARTCHAR U_4E31
ENCODING 20017
SWIDTH 1000 0
DWIDTH 12 0
BBX 10 11 1 -1
BITMAP
1200
9240
9240
9240
9240
B3C0
D240
1200
2200
4200
8200
ENDCHAR
STARTCHAR U_4E32
ENCODING 20018
SWIDTH 1000 0
DWIDTH 12 0
BBX 9 11 1 -1
BITMAP
0800
7F00
4900
7F00
0800
FF80
8880
8880
FF80
0800
0800
ENDCHAR
STARTCHAR U_4E33
ENCODING 20019
SWIDTH 1000 0
DWIDTH 12 0
BBX 10 11 1 -1
BITMAP
1200
7F80
5280
7F80
1200
FFC0
9240
FFC0
1200
2200
C200
ENDCHAR
STARTCHAR U_4E34
ENCODING 20020
SWIDTH 1000 0
DWIDTH 12 0
BBX 11 11 0 -1
BITMAP
2400
A7E0
A800
B100
A080
AFE0
A920
A920
2920
2FE0
2820
ENDCHAR
STARTCHAR U_4E35
ENCODING 20021
SWIDTH 1000 0
DWIDTH 12 0
BBX 11 11 0 -1
BITMAP
0A00
4A40
2A80
FFE0
1100
0A00
7FC0
0400
FFE0
0400
0400
ENDCHAR
STARTCHAR U_4E36
ENCODING 20022
SWIDTH 1000 0
DWIDTH 12 0
BBX 3 4 4 3
BITMAP
80
40
20
20
ENDCHAR
STARTCHAR U_4E37
ENCODING 20023
SWIDTH 1000 0
DWIDTH 12 0
BBX 10 5 1 3
BITMAP
80C0
4080
3100
1200
0400
ENDCHAR
STARTCHAR U_4E38
ENCODING 20024
SWIDTH 1000 0
DWIDTH 12 0
BBX 11 11 0 -1
BITMAP
0800
0800
7F00
0900
0900
2900
1900
1500
2520
4120
80E0
ENDCHAR
STARTCHAR U_4E39
ENCODING 20025
SWIDTH 1000 0
DWIDTH 12 0
BBX 11 11 0 -1
BITMAP
1F80
1080
1480
1280
1080
FFE0
1080
1080
1080
2080
4380
ENDCHAR
STARTCHAR U_4E3A
ENCODING 20026
SWIDTH 1000 0
DWIDTH 12 0
BBX 9 11 1 -1
BITMAP
4800
2800
0800
FF80
0880
0C80
1280
1280
2080
4080
8700
ENDCHAR
STARTCHAR U_4E3B
ENCODING 20027
SWIDTH 1000 0
DWIDTH 12 0
BBX 11 11 0 -1
BITMAP
0800
0400
FFE0
0400
0400
0400
7FC0
0400
0400
0400
FFE0
ENDCHAR
STARTCHAR U_4E3C
ENCODING 20028
SWIDTH 1000 0
DWIDTH 12 0
BBX 11 11 0 -1
BITMAP
1100
1100
7FE0
1100
1900
1500
FFE0
1100
1100
2100
4100
ENDCHAR
STARTCHAR U_4E3D
ENCODING 20029
SWIDTH 1000 0
DWIDTH 12 0
BBX 11 11 0 -1
BITMAP
FFE0
0000
7BC0
4A40
4A40
6B40
5AC0
4A40
4A40
4A40
5AC0
ENDCHAR
STARTCHAR U_4E3E
ENCODING 20030
SWIDTH 1000 0
DWIDTH 12 0
BBX 11 11 0 -1
BITMAP
4840
2480
FFE0
1100
2480
5F40
8420
0400
FFE0
0400
0400
ENDCHAR
STARTCHAR U_4E3F
ENCODING 20031
SWIDTH 1000 0
DWIDTH 12 0
BBX 4 11 3 -1
BITMAP
10
10
10
10
10
10
10
20
20
40
80
ENDCHAR
STARTCHAR U_4E40
ENCODING 20032
SWIDTH 1000 0
DWIDTH 12 0
BBX 11 9 0 0
BITMAP
2000
2000
5000
8800
0400
0200
0100
00E0
0040
ENDCHAR
STARTCHAR U_4E41
ENCODING 20033
SWIDTH 1000 0
DWIDTH 12 0
BBX 11 10 0 -1
BITMAP
FF00
0100
0100
0100
0100
0080
0080
0040
0040
0020
ENDCHAR
STARTCHAR U_4E42
ENCODING 20034
SWIDTH 1000 0
DWIDTH 12 0
BBX 11 11 0 -1
BITMAP
0080
2080
2080
1100
1100
1200
0A00
0400
0A00
3180
C060
ENDCHAR
STARTCHAR U_4E43
ENCODING 20035
SWIDTH 1000 0
DWIDTH 12 0
BBX 11 11 0 -1
BITMAP
7F80
0880
0880
0900
13E0
1020
1020
2020
2020
4240
8180
ENDCHAR
STARTCHAR U_4E44
ENCODING 20036
SWIDTH 1000 0
DWIDTH 12 0
BBX 10 10 0 0
BITMAP
0040
0040
0080
0880
0500
0300
0280
8440
9840
E000
ENDCHAR
STARTCHAR U_4E45
ENCODING 20037
SWIDTH 1000 0
DWIDTH 12 0
BBX 11 11 0 -1
BITMAP
0400
0400
0F80
1080
2100
0100
0200
0500
0880
3060
C020
ENDCHAR
STARTCHAR U_4E46
ENCODING 20038
SWIDTH 1000 0
DWIDTH 12 0
BBX 11 11 0 -1
BITMAP
1000
1100
1100
2100
3E00
0200
0500
0900
1080
2040
C020
ENDCHAR
STARTCHAR U_4E47
ENCODING 20039
SWIDTH 1000 0
DWIDTH 12 0
BBX 11 11 0 -1
BITMAP
0180
0600
F800
0800
0800
0FC0
F800
0800
0820
0820
07E0
ENDCHAR
STARTCHAR U_4E48
ENCODING 20040
SWIDTH 1000 0
DWIDTH 12 0
BBX 11 11 0 -1
BITMAP
0400
0400
0800
1100
2100
4200
8400
0880
1040
3FE0
1020
ENDCHAR
STARTCHAR U_4E49
ENCODING 20041
SWIDTH 1000 0
DWIDTH 12 0
BBX 11 11 0 -1
BITMAP
0880
2480
2480
2100
1100
1200
0A00
0400
0A00
3180
C060
ENDCHAR
STARTCHAR U_4E4A
ENCODING 20042
SWIDTH 1000 0
DWIDTH 12 0
BBX 11 8 0 1
BITMAP
01E0
FE00
0000
0040
4040
2080
1080
1100
ENDCHAR
STARTCHAR U_4E4B
ENCODING 20043
SWIDTH 1000 0
DWIDTH 12 0
BBX 11 11 0 -1
BITMAP
0800
0400
7FC0
0080
0100
0200
0400
0800
3000
4800
87E0
ENDCHAR
STARTCHAR U_4E4C
ENCODING 20044
SWIDTH 1000 0
DWIDTH 12 0
BBX 11 11 0 -1
BITMAP
0400
1F80
1080
1080
1300
1000
1FE0
0020
FF20
0040
0180
ENDCHAR
STARTCHAR U_4E4D
ENCODING 20045
SWIDTH 1000 0
DWIDTH 12 0
BBX 11 11 0 -1
BITMAP
1000
1040
3FE0
4400
8400
07C0
0400
0400
07C0
0400
0400
ENDCHAR
STARTCHAR U_4E4E
ENCODING 20046
SWIDTH 1000 0
DWIDTH 12 0
BBX 11 11 0 -1
BITMAP
01C0
7E00
2440
1480
1500
FFE0
0400
0400
0400
1400
0800
ENDCHAR
STARTCHAR U_4E4F
ENCODING 20047
SWIDTH 1000 0
DWIDTH 12 0
BBX 10 11 1 -1
BITMAP
0300
FC00
0800
0400
7F00
0200
0400
0800
3000
4800
87C0
ENDCHAR
STARTCHAR U_4E50
ENCODING 20048
SWIDTH 1000 0
DWIDTH 12 0
BBX 10 11 1 -1
BITMAP
0380
7C00
4000
4400
4400
7FC0
0400
2500
4480
8440
0C00
ENDCHAR
STARTCHAR U_4E51
ENCODING 20049
SWIDTH 1000 0
DWIDTH 12 0
BBX 11 11 0 -1
BITMAP
03C0
FC00
0440
1480
2500
4600
1600
2500
4480
8460
0440
ENDCHAR
STARTCHAR U_4E52
ENCODING 20050
SWIDTH 1000 0
DWIDTH 12 0
BBX 11 11 0 -1
BITMAP
0180
1E00
1000
1FC0
1100
1100
FFE0
0000
0800
1000
6000
ENDCHAR
STARTCHAR U_4E53
ENCODING 20051
SWIDTH 1000 0
DWIDTH 12 0
BBX 11 11 0 -1
BITMAP
0180
1E00
1000
1FC0
1100
1100
FFE0
0000
0100
0080
0060
ENDCHAR
STARTCHAR U_4E54
ENCODING 20052
SWIDTH 1000 0
DWIDTH 12 0
BBX 11 11 0 -1
BITMAP
01C0
7E00
0800
FFE0
1100
2080
D160
1100
1100
2100
4100
ENDCHAR
STARTCHAR U_4E55
ENCODING 20053
SWIDTH 1000 0
DWIDTH 12 0
BBX 11 11 0 -1
BITMAP
01E0
7E00
4200
5FC0
4200
7FE0
4200
5FC0
5240
92C0
8200
ENDCHAR
STARTCHAR U_4E56
ENCODING 20054
SWIDTH 1000 0
DWIDTH 12 0
BBX 11 11 0 -1
BITMAP
01C0
7E00
0400
FFE0
1500
7540
1580
3520
D4E0
0400
0400
ENDCHAR
STARTCHAR U_4E57
ENCODING 20055
SWIDTH 1000 0
DWIDTH 12 0
BBX 11 11 0 -1
BITMAP
01C0
7E00
0400
7FC0
1500
FFE0
1500
7FC0
1500
2480
C460
ENDCHAR
STARTCHAR U_4E58
ENCODING 20056
SWIDTH 1000 0
DWIDTH 12 0
BBX 11 11 0 -1
BITMAP
0380
7C00
0400
FFE0
1540
75A0
1520
FEE0
1500
2480
C460
ENDCHAR
STARTCHAR U_4E59
ENCODING 20057
SWIDTH 1000 0
DWIDTH 12 0
BBX 10 11 1 -1
BITMAP
FF80
0100
0200
0400
0800
1000
2000
4000
8040
8040
7FC0
ENDCHAR
STARTCHAR U_4E5A
ENCODING 20058
SWIDTH 1000 0
DWIDTH 12 0
BBX 7 11 2 -1
BITMAP
80
80
80
80
80
80
80
82
82
82
7E
ENDCHAR
STARTCHAR U_4E5B
ENCODING 20059
SWIDTH 1000 0
DWIDTH 12 0
BBX 11 3 0 6
BITMAP
FFE0
0040
0080
ENDCHAR
STARTCHAR U_4E5C
ENCODING 20060
SWIDTH 1000 0
DWIDTH 12 0
BBX 11 11 0 -1
BITMAP
1000
1040
13C0
1C40
F040
1040
1280
1100
1020
1020
0FE0
ENDCHAR
STARTCHAR U_4E5D
ENCODING 20061
SWIDTH 1000 0
DWIDTH 12 0
BBX 10 11 1 -1
BITMAP
1000
1000
1000
FE00
1200
1200
1200
2200
2240
4240
81C0
ENDCHAR
STARTCHAR U_4E5E
ENCODING 20062
SWIDTH 1000 0
DWIDTH 12 0
BBX 10 11 1 -1
BITMAP
2000
2000
3F80
4000
BE00
0400
0800
1000
2040
2040
1FC0
ENDCHAR
STARTCHAR U_4E5F
ENCODING 20063
SWIDTH 1000 0
DWIDTH 12 0
BBX 11 11 0 -1
BITMAP
0400
0400
24C0
2740
3C40
E440
2540
2480
2420
2020
1FE0
ENDCHAR
STARTCHAR U_4E60
ENCODING 20064
SWIDTH 1000 0
DWIDTH 12 0
BBX 10 11 0 -1
BITMAP
7FC0
0040
2040
1040
0840
0040
0640
1840
E040
4240
0180
ENDCHAR
STARTCHAR U_4E61
ENCODING 20065
SWIDTH 1000 0
DWIDTH 12 0
BBX 9 11 1 -1
BITMAP
0800
1000
2200
7C00
0880
1100
7F00
0200
0400
1800
E000
ENDCHAR
STARTCHAR U_4E62
ENCODING 20066
SWIDTH 1000 0
DWIDTH 12 0
BBX 10 10 1 -1
BITMAP
2200
2200
AA00
AA00
AA00
AA00
AA00
BA40
EA40
81C0
ENDCHAR
STARTCHAR U_4E63
ENCODING 20067
SWIDTH 1000 0
DWIDTH 12 0
BBX 10 11 1 -1
BITMAP
2200
2200
4200
8A00
F200
1200
2200
4200
9240
FA40
09C0
ENDCHAR
STARTCHAR U_4E64
ENCODING 20068
SWIDTH 1000 0
DWIDTH 12 0
BBX 11 11 0 -1
BITMAP
FFE0
0400
0480
0460
0420
FF80
0100
0600
3820
4020
3FE0
ENDCHAR
STARTCHAR U_4E65
ENCODING 20069
SWIDTH 1000 0
DWIDTH 12 0
BBX 11 11 0 -1
BITMAP
01E0
FE40
4080
2100
0000
FFC0
0300
0C00
3020
4020
3FE0
ENDCHAR
STARTCHAR U_4E66
ENCODING 20070
SWIDTH 1000 0
DWIDTH 12 0
BBX 11 11 0 -1
BITMAP
0880
0860
3FA0
0880
0880
FFE0
0820
0820
0820
09C0
0800
ENDCHAR
STARTCHAR U_4E67
ENCODING 20071
SWIDTH 1000 0
DWIDTH 12 0
BBX 11 11 0 -1
BITMAP
1200
4A00
2200
0FE0
F200
0200
FFE0
0180
3E00
4020
7FE0
ENDCHAR
STARTCHAR U_4E68
ENCODING 20072
SWIDTH 1000 0
DWIDTH 12 0
BBX 11 11 0 -1
BITMAP
1100
1100
2100
4900
FD00
0500
7900
4900
4920
4920
78E0
ENDCHAR
STARTCHAR U_4E69
ENCODING 20073
SWIDTH 1000 0
DWIDTH 12 0
BBX 11 11 0 -1
BITMAP
2100
2100
3D00
2100
2100
FD00
8500
8500
8520
FD20
84E0
ENDCHAR
STARTCHAR U_4E6A
ENCODING 20074
SWIDTH 1000 0
DWIDTH 12 0
BBX 11 11 0 -1
BITMAP
F000
17C0
1540
2540
27C0
4540
4540
47C0
8020
8020
7FE0
ENDCHAR
STARTCHAR U_4E6B
ENCODING 20075
SWIDTH 1000 0
DWIDTH 12 0
BBX 11 11 0 -1
BITMAP
2000
FDE0
2520
2520
55E0
8800
FFC0
0700
3820
4020
3FE0
ENDCHAR
STARTCHAR U_4E6C
ENCODING 20076
SWIDTH 1000 0
DWIDTH 12 0
BBX 11 11 0 -1
BITMAP
7FC0
4000
7F80
4080
7F80
4000
FFE0
0700
3800
4020
3FE0
ENDCHAR
STARTCHAR U_4E6D
ENCODING 20077
SWIDTH 1000 0
DWIDTH 12 0
BBX 11 11 0 -1
BITMAP
FFE0
1000
3FC0
5040
9FC0
0000
FFC0
0080
3F00
4020
3FE0
ENDCHAR
STARTCHAR U_4E6E
ENCODING 20078
SWIDTH 1000 0
DWIDTH 12 0
BBX 11 11 0 -1
BITMAP
1800
63C0
4A40
7A40
12C0
6200
FF80
0300
3C20
4020
3FE0
ENDCHAR
STARTCHAR U_4E6F
ENCODING 20079
SWIDTH 1000 0
DWIDTH 12 0
BBX 11 11 0 -1
BITMAP
03C0
7C80
1500
FFC0
0400
0C00
7F80
0300
1C20
2020
3FE0
ENDCHAR
STARTCHAR U_4E70
ENCODING 20080
SWIDTH 1000 0
DWIDTH 12 0
BBX 11 11 0 -1
BITMAP
FFE0
0040
2480
1400
4400
2400
FFE0
0400
0A00
3100
C0E0
ENDCHAR
STARTCHAR U_4E71
ENCODING 20081
SWIDTH 1000 0
DWIDTH 12 0
BBX 11 11 0 -1
BITMAP
0D00
7100
1100
1100
FD00
1100
7D00
4500
4520
7D20
44E0
ENDCHAR
STARTCHAR U_4E72
ENCODING 20082
SWIDTH 1000 0
DWIDTH 12 0
BBX 9 11 1 -1
BITMAP
8800
4F80
1480
4400
8A00
1100
FF80
0100
7E00
8080
FF80
ENDCHAR
STARTCHAR U_4E73
ENCODING 20083
SWIDTH 1000 0
DWIDTH 12 0
BBX 11 11 0 -1
BITMAP
0F00
F500
5500
2900
FD00
0900
1100
1D00
F120
1120
30E0
ENDCHAR
STARTCHAR U_4E74
ENCODING 20084
SWIDTH 1000 0
DWIDTH 12 0
BBX 11 11 0 -1
BITMAP
1040
FB80
1200
FBE0
1240
2440
FFC0
0180
3E00
4040
7FC0
ENDCHAR
STARTCHAR U_4E75
ENCODING 20085
SWIDTH 1000 0
DWIDTH 12 0
BBX 11 11 0 -1
BITMAP
2100
1100
FF00
4500
2900
FD00
1100
7D00
1120
1120
10E0
ENDCHAR
STARTCHAR U_4E76
ENCODING 20086
SWIDTH 1000 0
DWIDTH 12 0
BBX 11 11 0 -1
BITMAP
0500
FFE0
2480
3F80
2480
3F80
2480
FF80
1C20
2020
3FE0
ENDCHAR
STARTCHAR U_4E77
ENCODING 20087
SWIDTH 1000 0
DWIDTH 12 0
BBX 11 11 0 -1
BITMAP
4100
2540
8520
4940
2180
CE00
0000
FF80
1800
2020
3FE0
ENDCHAR
STARTCHAR U_4E78
ENCODING 20088
SWIDTH 1000 0
DWIDTH 12 0
BBX 11 11 0 -1
BITMAP
2000
23E0
A2A0
BAA0
EFE0
AAA0
AAA0
ABE0
9840
8020
7FE0
ENDCHAR
STARTCHAR U_4E79
ENCODING 20089
SWIDTH 1000 0
DWIDTH 12 0
BBX 11 11 0 -1
BITMAP
2200
FA00
2200
FA00
8A00
FA00
8A00
FA20
2220
FA20
21E0
ENDCHAR
STARTCHAR U_4E7A
ENCODING 20090
SWIDTH 1000 0
DWIDTH 12 0
BBX 11 11 0 -1
BITMAP
38C0
4300
7A00
4BE0
7A40
4240
8440
7F00
1820
2020
1FE0
ENDCHAR
STARTCHAR U_4E7B
ENCODING 20091
SWIDTH 1000 0
DWIDTH 12 0
BBX 11 11 0 -1
BITMAP
2080
FC80
2140
3AA0
4D00
4840
9080
7FC0
0C00
1020
1FE0
ENDCHAR
STARTCHAR U_4E7C
ENCODING 20092
SWIDTH 1000 0
DWIDTH 12 0
BBX 11 11 0 -1
BITMAP
4100
2FE0
8100
47C0
2100
4FE0
8000
7FC0
0C00
1020
1FE0
ENDCHAR
STARTCHAR U_4E7D
ENCODING 20093
SWIDTH 1000 0
DWIDTH 12 0
BBX 11 11 0 -1
BITMAP
0400
7EC0
0500
FFE0
0D40
F7C0
0000
7F80
0C20
1020
1FE0
ENDCHAR
STARTCHAR U_4E7E
ENCODING 20094
SWIDTH 1000 0
DWIDTH 12 0
BBX 11 11 0 -1
BITMAP
2100
FD00
21E0
FA00
8BC0
F840
8880
F900
2220
FA20
21E0
ENDCHAR
STARTCHAR U_4E7F
ENCODING 20095
SWIDTH 1000 0
DWIDTH 12 0
BBX 11 11 0 -1
BITMAP
1F80
EA80
5480
2480
7880
2480
7E80
0880
2CA0
4AA0
9960
ENDCHAR
STARTCHAR U_4E80
ENCODING 20096
SWIDTH 1000 0
DWIDTH 12 0
BBX 10 11 1 -1
BITMAP
3E00
4200
FF00
4900
7F00
4900
FF80
8880
FF80
0840
0FC0
ENDCHAR
STARTCHAR U_4E81
ENCODING 20097
SWIDTH 1000 0
DWIDTH 12 0
BBX 11 11 0 -1
BITMAP
1080
FE80
11E0
7D00
4600
7DE0
4440
7C80
1120
FE20
11E0
ENDCHAR
STARTCHAR U_4E82
ENCODING 20098
SWIDTH 1000 0
DWIDTH 12 0
BBX 11 11 0 -1
BITMAP
FD00
5500
FD00
2900
FD00
A500
FD00
AD00
9520
AD20
84E0
ENDCHAR
STARTCHAR U_4E83
ENCODING 20099
SWIDTH 1000 0
DWIDTH 12 0
BBX 11 11 0 -1
BITMAP
9280
5480
FE80
5480
9280
4480
7E80
D480
3FA0
44A0
8460
ENDCHAR
STARTCHAR U_4E84
ENCODING 20100
SWIDTH 1000 0
DWIDTH 12 0
BBX 11 11 0 -1
BITMAP
FE80
1080
FE80
8280
BA80
0080
7C80
4480
7CA0
28A0
FE60
ENDCHAR
STARTCHAR U_4E85
ENCODING 20101
SWIDTH 1000 0
DWIDTH 12 0
BBX 3 11 4 -1
BITMAP
20
20
20
20
20
20
20
20
20
20
E0
ENDCHAR
STARTCHAR U_4E86
ENCODING 20102
SWIDTH 1000 0
DWIDTH 12 0
BBX 9 11 1 -1
BITMAP
FF80
0100
0200
0C00
0800
0800
0800
0800
0800
2800
1000
ENDCHAR
STARTCHAR U_4E87
ENCODING 20103
SWIDTH 1000 0
DWIDTH 12 0
BBX 11 11 0 -1
BITMAP
1000
1000
1FE0
2240
4280
8200
0200
0200
0200
0200
0E00
ENDCHAR
STARTCHAR U_4E88
ENCODING 20104
SWIDTH 1000 0
DWIDTH 12 0
BBX 11 11 0 -1
BITMAP
7F80
0100
0A00
0400
FFE0
0440
0480
0400
0400
0400
1C00
ENDCHAR
STARTCHAR U_4E89
ENCODING 20105
SWIDTH 1000 0
DWIDTH 12 0
BBX 11 11 0 -1
BITMAP
1000
1F00
2200
7FC0
0440
FFE0
0440
7FC0
0400
0400
1C00
ENDCHAR
STARTCHAR U_4E8A
ENCODING 20106
SWIDTH 1000 0
DWIDTH 12 0
BBX 11 11 0 -1
BITMAP
0400
7FC0
2480
1500
7FC0
0440
FFE0
0440
7FC0
0400
0C00
ENDCHAR
STARTCHAR U_4E8B
ENCODING 20107
SWIDTH 1000 0
DWIDTH 12 0
BBX 11 11 0 -1
BITMAP
0400
FFE0
2480
2480
7FC0
0440
FFE0
0440
7FC0
0400
1C00
ENDCHAR
STARTCHAR U_4E8C
ENCODING 20108
SWIDTH 1000 0
DWIDTH 12 0
BBX 11 9 0 0
BITMAP
0080
7FC0
0000
0000
0000
0000
0000
0040
FFE0
ENDCHAR
STARTCHAR U_4E8D
ENCODING 20109
SWIDTH 1000 0
DWIDTH 12 0
BBX 10 11 1 -1
BITMAP
3F80
0000
0000
0000
FFC0
0400
0400
0400
0400
0400
1C00
ENDCHAR
STARTCHAR U_4E8E
ENCODING 20110
SWIDTH 1000 0
DWIDTH 12 0
BBX 11 11 0 -1
BITMAP
7FC0
0400
0400
0400
FFE0
0400
0400
0400
0400
0400
1C00
ENDCHAR
STARTCHAR U_4E8F
ENCODING 20111
SWIDTH 1000 0
DWIDTH 12 0
BBX 11 11 0 -1
BITMAP
3F80
0000
0000
FFE0
0800
1000
3FC0
0040
0040
0080
0300
ENDCHAR
STARTCHAR U_4E90
ENCODING 20112
SWIDTH 1000 0
DWIDTH 12 0
BBX 11 11 0 -1
BITMAP
7FC0
0800
0800
FFE0
1000
2000
3F80
0080
0080
0080
0700
ENDCHAR
STARTCHAR U_4E91
ENCODING 20113
SWIDTH 1000 0
DWIDTH 12 0
BBX 11 11 0 -1
BITMAP
3F80
0000
0000
0000
FFE0
0800
1000
1100
2080
7FC0
2040
ENDCHAR
STARTCHAR U_4E92
ENCODING 20114
SWIDTH 1000 0
DWIDTH 12 0
BBX 10 11 1 -1
BITMAP
FFC0
1000
1100
1F80
2100
2100
7F00
2100
0200
0200
FFC0
ENDCHAR
STARTCHAR U_4E93
ENCODING 20115
SWIDTH 1000 0
DWIDTH 12 0
BBX 11 11 0 -1
BITMAP
3F80
0000
0000
0000
FFE0
1100
1100
1100
2100
2100
4100
ENDCHAR
STARTCHAR U_4E94
ENCODING 20116
SWIDTH 1000 0
DWIDTH 12 0
BBX 11 10 0 0
BITMAP
7FE0
0400
0400
0400
3F80
0880
0880
1080
1080
FFE0
ENDCHAR
STARTCHAR U_4E95
ENCODING 20117
SWIDTH 1000 0
DWIDTH 12 0
BBX 10 11 1 -1
BITMAP
1200
1200
FFC0
1200
1200
1200
FFC0
2200
2200
4200
8200
ENDCHAR
STARTCHAR U_4E96
ENCODING 20118
SWIDTH 1000 0
DWIDTH 12 0
BBX 11 10 0 -1
BITMAP
3FC0
0000
0000
FFE0
0000
0000
3FC0
0000
0000
FFE0
ENDCHAR
STARTCHAR U_4E97
ENCODING 20119
SWIDTH 1000 0
DWIDTH 12 0
BBX 11 11 0 -1
BITMAP
0400
0400
2480
2480
3F80
0000
0000
3F80
0000
0000
FFE0
ENDCHAR
STARTCHAR U_4E98
ENCODING 20120
SWIDTH 1000 0
DWIDTH 12 0
BBX 10 11 1 -1
BITMAP
FFC0
0000
3F00
2100
2100
3F00
2100
2100
3F00
0000
FFC0
ENDCHAR
STARTCHAR U_4E99
ENCODING 20121
SWIDTH 1000 0
DWIDTH 12 0
BBX 10 11 1 -1
BITMAP
FFC0
1000
1000
1F00
2900
2500
5200
4A00
0400
0400
FFC0
ENDCHAR
STARTCHAR U_4E9A
ENCODING 20122
SWIDTH 1000 0
DWIDTH 12 0
BBX 10 11 1 -1
BITMAP
FFC0
1200
1200
1200
9240
5240
5280
1200
1200
1200
FFC0
ENDCHAR
STARTCHAR U_4E9B
ENCODING 20123
SWIDTH 1000 0
DWIDTH 12 0
BBX 11 11 0 -1
BITMAP
1200
1240
5A80
5320
5220
5A20
E1E0
0000
3F80
0000
FFE0
ENDCHAR
STARTCHAR U_4E9C
ENCODING 20124
SWIDTH 1000 0
DWIDTH 12 0
BBX 11 11 0 -1
BITMAP
FFE0
0A00
7FC0
4A40
4A40
4A40
7FC0
0A00
0A00
0A00
FFE0
ENDCHAR
STARTCHAR U_4E9D
ENCODING 20125
SWIDTH 1000 0
DWIDTH 12 0
BBX 11 11 0 -1
BITMAP
0800
1100
3F00
0000
2100
4A40
FBE0
0020
3F80
0000
FFE0
ENDCHAR
STARTCHAR U_4E9E
ENCODING 20126
SWIDTH 1000 0
DWIDTH 12 0
BBX 11 10 0 -1
BITMAP
FFE0
1100
1100
71C0
4040
4040
71C0
1100
1100
FFE0
ENDCHAR
STARTCHAR U_4E9F
ENCODING 20127
SWIDTH 1000 0
DWIDTH 12 0
BBX 11 11 0 -1
BITMAP
7F80
0200
0400
75C0
5540
5480
7540
0640
1400
0800
FFE0
ENDCHAR
STARTCHAR U_4EA0
ENCODING 20128
SWIDTH 1000 0
DWIDTH 12 0
BBX 11 4 0 6
BITMAP
0800
0400
0400
FFE0
ENDCHAR
STARTCHAR U_4EA1
ENCODING 20129
SWIDTH 1000 0
DWIDTH 12 0
BBX 11 11 0 -1
BITMAP
0800
0600
0200
FFE0
2000
2000
2000
2000
2000
2000
3FC0
ENDCHAR
STARTCHAR U_4EA2
ENCODING 20130
SWIDTH 1000 0
DWIDTH 12 0
BBX 11 11 0 -1
BITMAP
0400
0200
FFE0
0000
1F00
1100
1100
1100
1120
2120
40E0
ENDCHAR
STARTCHAR U_4EA3
ENCODING 20131
SWIDTH 1000 0
DWIDTH 12 0
BBX 11 11 0 -1
BITMAP
0800
0400
FFE0
1100
1100
1100
1100
2100
2100
4100
8100
ENDCHAR
STARTCHAR U_4EA4
ENCODING 20132
SWIDTH 1000 0
DWIDTH 12 0
BBX 11 11 0 -1
BITMAP
0400
FFE0
0000
1100
2080
5140
1100
0A00
0400
1B00
60E0
ENDCHAR
STARTCHAR U_4EA5
ENCODING 20133
SWIDTH 1000 0
DWIDTH 12 0
BBX 10 11 1 -1
BITMAP
0800
0400
FFC0
1000
2200
7C80
0900
3200
C600
1900
E0C0
ENDCHAR
STARTCHAR U_4EA6
ENCODING 20134
SWIDTH 1000 0
DWIDTH 12 0
BBX 11 11 0 -1
BITMAP
0400
0200
FFE0
0900
2940
2920
4920
0900
1100
2100
4700
ENDCHAR
STARTCHAR U_4EA7
ENCODING 20135
SWIDTH 1000 0
DWIDTH 12 0
BBX 11 11 0 -1
BITMAP
0400
7FE0
1080
0900
3FE0
2000
2000
2000
4000
4000
8000
ENDCHAR
STARTCHAR U_4EA8
ENCODING 20136
SWIDTH 1000 0
DWIDTH 12 0
BBX 11 11 0 -1
BITMAP
0400
FFE0
2080
3F80
0000
7FC0
0100
0600
0400
0400
1C00
ENDCHAR
STARTCHAR U_4EA9
ENCODING 20137
SWIDTH 1000 0
DWIDTH 12 0
BBX 11 11 0 -1
BITMAP
0800
0400
FFE0
0000
3F80
2480
3F80
2480
2480
3F80
2080
ENDCHAR
STARTCHAR U_4EAA
ENCODING 20138
SWIDTH 1000 0
DWIDTH 12 0
BBX 11 11 0 -1
BITMAP
0400
FFE0
1100
5140
9120
6300
0000
7F80
0080
0080
0060
ENDCHAR
STARTCHAR U_4EAB
ENCODING 20139
SWIDTH 1000 0
DWIDTH 12 0
BBX 11 11 0 -1
BITMAP
0200
FFE0
2080
3F80
0000
3F80
0100
7FE0
0200
0200
0E00
ENDCHAR
STARTCHAR U_4EAC
ENCODING 20140
SWIDTH 1000 0
DWIDTH 12 0
BBX 11 11 0 -1
BITMAP
0400
FFE0
0000
3FC0
2040
2040
3FC0
0400
2480
4440
8C20
ENDCHAR
STARTCHAR U_4EAD
ENCODING 20141
SWIDTH 1000 0
DWIDTH 12 0
BBX 11 11 0 -1
BITMAP
0400
FFE0
2080
3F80
0000
FFE0
8020
BFA0
0400
0400
1C00
ENDCHAR
STARTCHAR U_4EAE
ENCODING 20142
SWIDTH 1000 0
DWIDTH 12 0
BBX 11 11 0 -1
BITMAP
0400
FFE0
1100
1F00
0000
FFE0
8020
1F00
1120
2120
C0E0
ENDCHAR
STARTCHAR U_4EAF
ENCODING 20143
SWIDTH 1000 0
DWIDTH 12 0
BBX 11 11 0 -1
BITMAP
0400
FFE0
3F80
2080
3F80
0000
7FC0
4040
7FC0
4040
7FC0
ENDCHAR
STARTCHAR U_4EB0
ENCODING 20144
SWIDTH 1000 0
DWIDTH 12 0
BBX 10 11 1 -1
BITMAP
0400
FFC0
0000
3F80
2080
3F80
2080
3F80
0400
2500
CCC0
ENDCHAR
STARTCHAR U_4EB1
ENCODING 20145
SWIDTH 1000 0
DWIDTH 12 0
BBX 11 11 0 -1
BITMAP
0800
0400
FFE0
0000
17C0
2440
67C0
A440
27C0
2000
2FE0
ENDCHAR
STARTCHAR U_4EB2
ENCODING 20146
SWIDTH 1000 0
DWIDTH 12 0
BBX 11 11 0 -1
BITMAP
0400
7FC0
1100
0A00
FFE0
0400
3F80
0400
2480
4440
0C00
ENDCHAR
STARTCHAR U_4EB3
ENCODING 20147
SWIDTH 1000 0
DWIDTH 12 0
BBX 11 11 0 -1
BITMAP
0400
FFE0
1080
FFE0
8020
0380
3C00
0400
7FC0
0420
03E0
ENDCHAR
STARTCHAR U_4EB4
ENCODING 20148
SWIDTH 1000 0
DWIDTH 12 0
BBX 11 11 0 -1
BITMAP
0400
FFE0
1100
FFE0
8420
3F80
0800
7F00
1120
1120
61E0
ENDCHAR
STARTCHAR U_4EB5
ENCODING 20149
SWIDTH 1000 0
DWIDTH 12 0
BBX 11 11 0 -1
BITMAP
0800
FFE0
2200
FF80
2A80
76A0
A960
3480
E300
2900
70E0
ENDCHAR
STARTCHAR U_4EB6
ENCODING 20150
SWIDTH 1000 0
DWIDTH 12 0
BBX 11 11 0 -1
BITMAP
0400
FFE0
5140
5F40
4040
7FC0
2080
3E80
2780
2080
FFE0
ENDCHAR
STARTCHAR U_4EB7
ENCODING 20151
SWIDTH 1000 0
DWIDTH 12 0
BBX 11 11 0 -1
BITMAP
0200
7FE0
0480
7FE0
4540
7FE0
4540
5FC0
4500
4D80
B560
ENDCHAR
STARTCHAR U_4EB8
ENCODING 20152
SWIDTH 1000 0
DWIDTH 12 0
BBX 11 11 0 -1
BITMAP
2440
FA80
57C0
7540
07C0
F540
17C0
2100
FFE0
2100
6100
ENDCHAR
STARTCHAR U_4EB9
ENCODING 20153
SWIDTH 1000 0
DWIDTH 12 0
BBX 11 11 0 -1
BITMAP
0400
FFE0
60C0
4E40
6AC0
4A40
FFE0
A0A0
3F80
2080
FFE0
ENDCHAR
STARTCHAR U_4EBA
ENCODING 20154
SWIDTH 1000 0
DWIDTH 12 0
BBX 11 11 0 -1
BITMAP
0400
0400
0400
0400
0400
0400
0A00
0A00
1100
2080
C060
ENDCHAR
STARTCHAR U_4EBB
ENCODING 20155
SWIDTH 1000 0
DWIDTH 12 0
BBX 4 11 0 -1
BITMAP
10
10
20
20
60
A0
20
20
20
20
20
ENDCHAR
STARTCHAR U_4EBC
ENCODING 20156
SWIDTH 1000 0
DWIDTH 12 0
BBX 11 11 0 -1
BITMAP
0400
0400
0400
0A00
0A00
1100
1080
2060
4040
0000
FFE0
ENDCHAR
STARTCHAR U_4EBD
ENCODING 20157
SWIDTH 1000 0
DWIDTH 12 0
BBX 11 10 0 0
BITMAP
0400
0400
0A00
1100
2080
C060
0800
0400
0200
0200
ENDCHAR
STARTCHAR U_4EBE
ENCODING 20158
SWIDTH 1000 0
DWIDTH 12 0
BBX 11 11 0 -1
BITMAP
0400
8400
8400
8400
8400
8A00
8A00
9100
A0C0
8000
FFE0
ENDCHAR
STARTCHAR U_4EBF
ENCODING 20159
SWIDTH 1000 0
DWIDTH 12 0
BBX 11 11 0 -1
BITMAP
1000
17C0
2080
2100
6200
A200
2400
2400
2820
2820
27E0
ENDCHAR
STARTCHAR U_4EC0
ENCODING 20160
SWIDTH 1000 0
DWIDTH 12 0
BBX 11 11 0 -1
BITMAP
1100
1100
2100
2100
6FE0
A100
2100
2100
2100
2100
2100
ENDCHAR
STARTCHAR U_4EC1
ENCODING 20161
SWIDTH 1000 0
DWIDTH 12 0
BBX 11 11 0 -1
BITMAP
1000
1000
27C0
2000
6000
A000
2000
2000
2000
2FE0
2000
ENDCHAR
STARTCHAR U_4EC2
ENCODING 20162
SWIDTH 1000 0
DWIDTH 12 0
BBX 11 11 0 -1
BITMAP
1200
1200
2200
2FE0
6220
A220
2220
2220
2420
2820
30C0
ENDCHAR
STARTCHAR U_4EC3
ENCODING 20163
SWIDTH 1000 0
DWIDTH 12 0
BBX 11 11 0 -1
BITMAP
1000
1FE0
2080
2080
6080
A080
2080
2080
2080
2280
2100
ENDCHAR
STARTCHAR U_4EC4
ENCODING 20164
SWIDTH 1000 0
DWIDTH 12 0
BBX 11 11 0 -1
BITMAP
7FE0
4200
4200
4200
4200
4200
4200
4500
4880
5060
A040
ENDCHAR
STARTCHAR U_4EC5
ENCODING 20165
SWIDTH 1000 0
DWIDTH 12 0
BBX 11 11 0 -1
BITMAP
1000
1FC0
2440
2440
6440
A280
2280
2100
2280
2440
2820
ENDCHAR
STARTCHAR U_4EC6
ENCODING 20166
SWIDTH 1000 0
DWIDTH 12 0
BBX 11 11 0 -1
BITMAP
1200
1200
1200
2300
2280
6260
A220
2200
2200
2200
2200
ENDCHAR
STARTCHAR U_4EC7
ENCODING 20167
SWIDTH 1000 0
DWIDTH 12 0
BBX 11 11 0 -1
BITMAP
1200
1200
2200
2F80
6280
A280
2280
2480
24A0
28A0
3060
ENDCHAR
STARTCHAR U_4EC8
ENCODING 20168
SWIDTH 1000 0
DWIDTH 12 0
BBX 11 11 0 -1
BITMAP
1080
1480
2480
2480
6480
A480
2480
2840
2840
2820
3020
ENDCHAR
STARTCHAR U_4EC9
ENCODING 20169
SWIDTH 1000 0
DWIDTH 12 0
BBX 11 11 0 -1
BITMAP
1780
1480
1480
2480
6480
A480
2480
2480
24A0
28A0
3060
ENDCHAR
STARTCHAR U_4ECA
ENCODING 20170
SWIDTH 1000 0
DWIDTH 12 0
BBX 11 11 0 -1
BITMAP
0400
0A00
1100
2480
C260
0000
3F80
0100
0200
0200
0400
ENDCHAR
STARTCHAR U_4ECB
ENCODING 20171
SWIDTH 1000 0
DWIDTH 12 0
BBX 11 11 0 -1
BITMAP
0400
0A00
1100
2080
D160
1100
1100
1100
2100
2100
4100
ENDCHAR
STARTCHAR U_4ECC
ENCODING 20172
SWIDTH 1000 0
DWIDTH 12 0
BBX 11 11 0 -1
BITMAP
0400
0400
0A00
1100
2480
4480
0A00
0A00
1100
2080
C060
ENDCHAR
STARTCHAR U_4ECD
ENCODING 20173
SWIDTH 1000 0
DWIDTH 12 0
BBX 11 11 0 -1
BITMAP
2FC0
2440
2480
4500
45E0
C420
4420
4420
4820
48A0
5040
ENDCHAR
STARTCHAR U_4ECE
ENCODING 20174
SWIDTH 1000 0
DWIDTH 12 0
BBX 11 11 0 -1
BITMAP
1100
1100
1100
1100
1100
1900
2500
2280
4440
8820
1020
ENDCHAR
STARTCHAR U_4ECF
ENCODING 20175
SWIDTH 1000 0
DWIDTH 12 0
BBX 11 11 0 -1
BITMAP
1100
1100
2100
6200
A200
2200
2400
2480
2840
2FE0
2020
ENDCHAR
STARTCHAR U_4ED0
ENCODING 20176
SWIDTH 1000 0
DWIDTH 12 0
BBX 11 11 0 -1
BITMAP
0400
0400
0A00
1100
2080
C460
0400
7FC0
0400
0400
0400
ENDCHAR
STARTCHAR U_4ED1
ENCODING 20177
SWIDTH 1000 0
DWIDTH 12 0
BBX 11 11 0 -1
BITMAP
0400
0A00
1100
2080
D060
1100
1200
1C00
1040
1040
0FC0
ENDCHAR
STARTCHAR U_4ED2
ENCODING 20178
SWIDTH 1000 0
DWIDTH 12 0
BBX 10 11 0 -1
BITMAP
0800
0800
1400
1200
2100
48C0
8400
0200
1800
0400
0200
ENDCHAR
STARTCHAR U_4ED3
ENCODING 20179
SWIDTH 1000 0
DWIDTH 12 0
BBX 11 11 0 -1
BITMAP
0400
0600
0900
1080
3F40
D120
1500
1200
1040
1040
0FC0
ENDCHAR
STARTCHAR U_4ED4
ENCODING 20180
SWIDTH 1000 0
DWIDTH 12 0
BBX 11 11 0 -1
BITMAP
1000
17C0
2080
2100
6100
AFE0
2100
2100
2100
2100
2700
ENDCHAR
STARTCHAR U_4ED5
ENCODING 20181
SWIDTH 1000 0
DWIDTH 12 0
BBX 11 11 0 -1
BITMAP
1100
1100
2100
2100
6FE0
A100
2100
2100
2100
2100
27C0
ENDCHAR
STARTCHAR U_4ED6
ENCODING 20182
SWIDTH 1000 0
DWIDTH 12 0
BBX 11 11 0 -1
BITMAP
1100
1100
2540
25C0
6F40
A540
2540
2580
2520
2420
23E0
ENDCHAR
STARTCHAR U_4ED7
ENCODING 20183
SWIDTH 1000 0
DWIDTH 12 0
BBX 11 11 0 -1
BITMAP
1080
1080
2FE0
2080
6480
A280
2280
2100
2280
2440
2820
ENDCHAR
STARTCHAR U_4ED8
ENCODING 20184
SWIDTH 1000 0
DWIDTH 12 0
BBX 11 11 0 -1
BITMAP
1080
1080
2080
2FE0
6080
A480
2280
2280
2080
2080
2380
ENDCHAR
STARTCHAR U_4ED9
ENCODING 20185
SWIDTH 1000 0
DWIDTH 12 0
BBX 11 11 0 -1
BITMAP
1100
1100
2100
2920
6920
A920
2920
2920
2920
2FE0
2820
ENDCHAR
STARTCHAR U_4EDA
ENCODING 20186
SWIDTH 1000 0
DWIDTH 12 0
BBX 11 11 0 -1
BITMAP
0400
0A00
1100
2480
C460
0400
4440
4440
4440
7FC0
4040
ENDCHAR
STARTCHAR U_4EDB
ENCODING 20187
SWIDTH 1000 0
DWIDTH 12 0
BBX 11 11 0 -1
BITMAP
1000
11C0
2E00
6200
A200
23E0
3E00
2200
2200
2220
21E0
ENDCHAR
STARTCHAR U_4EDC
ENCODING 20188
SWIDTH 1000 0
DWIDTH 12 0
BBX 11 11 0 -1
BITMAP
1000
17C0
2100
2100
6100
A100
2100
2100
2100
2FE0
2000
ENDCHAR
STARTCHAR U_4EDD
ENCODING 20189
SWIDTH 1000 0
DWIDTH 12 0
BBX 11 11 0 -1
BITMAP
0400
0A00
1100
2080
C060
3F80
0400
0400
0400
0400
FFE0
ENDCHAR
STARTCHAR U_4EDE
ENCODING 20190
SWIDTH 1000 0
DWIDTH 12 0
BBX 11 11 0 -1
BITMAP
1000
17E0
2120
2120
6520
A520
2920
2220
2220
2420
28C0
ENDCHAR
STARTCHAR U_4EDF
ENCODING 20191
SWIDTH 1000 0
DWIDTH 12 0
BBX 11 11 0 -1
BITMAP
10C0
1700
2100
2100
6100
AFE0
2100
2100
2100
2100
2100
ENDCHAR
STARTCHAR U_4EE0
ENCODING 20192
SWIDTH 1000 0
DWIDTH 12 0
BBX 11 11 0 -1
BITMAP
1000
27C0
6100
A100
2100
2FE0
2100
2100
2100
2100
2100
ENDCHAR
STARTCHAR U_4EE1
ENCODING 20193
SWIDTH 1000 0
DWIDTH 12 0
BBX 11 11 0 -1
BITMAP
1200
1200
27E0
2800
67C0
A040
2180
2200
2420
2420
23E0
ENDCHAR
STARTCHAR U_4EE2
ENCODING 20194
SWIDTH 1000 0
DWIDTH 12 0
BBX 10 11 0 -1
BITMAP
2400
2400
4FC0
C840
5040
4440
4340
4140
4040
4040
41C0
ENDCHAR
STARTCHAR U_4EE3
ENCODING 20195
SWIDTH 1000 0
DWIDTH 12 0
BBX 11 11 0 -1
BITMAP
1280
1240
2200
23E0
6E00
A200
2200
2100
2120
20A0
2060
ENDCHAR
STARTCHAR U_4EE4
ENCODING 20196
SWIDTH 1000 0
DWIDTH 12 0
BBX 11 11 0 -1
BITMAP
0400
0400
0A00
1100
2480
C260
3F80
0100
0A00
0400
0200
ENDCHAR
STARTCHAR U_4EE5
ENCODING 20197
SWIDTH 1000 0
DWIDTH 12 0
BBX 11 11 0 -1
BITMAP
0080
4880
4480
4480
4080
4080
4880
5080
6140
C220
0C20
ENDCHAR
STARTCHAR U_4EE6
ENCODING 20198
SWIDTH 1000 0
DWIDTH 12 0
BBX 11 11 0 -1
BITMAP
1100
1100
2100
6540
A540
2520
2920
2900
2100
2100
2700
ENDCHAR
STARTCHAR U_4EE7
ENCODING 20199
SWIDTH 1000 0
DWIDTH 12 0
BBX 11 11 0 -1
BITMAP
0400
0400
0780
0400
0400
FFE0
0400
0600
0900
1080
6060
ENDCHAR
STARTCHAR U_4EE8
ENCODING 20200
SWIDTH 1000 0
DWIDTH 12 0
BBX 11 11 0 -1
BITMAP
1000
1000
2FE0
2000
6000
A000
27C0
2000
2000
2000
2FE0
ENDCHAR
STARTCHAR U_4EE9
ENCODING 20201
SWIDTH 1000 0
DWIDTH 12 0
BBX 11 11 0 -1
BITMAP
1200
1200
2200
2200
63C0
A200
2200
2200
2200
2200
3FE0
ENDCHAR
STARTCHAR U_4EEA
ENCODING 20202
SWIDTH 1000 0
DWIDTH 12 0
BBX 11 11 0 -1
BITMAP
1200
1140
2940
2840
6440
A480
2280
2100
2280
2440
2820
ENDCHAR
STARTCHAR U_4EEB
ENCODING 20203
SWIDTH 1000 0
DWIDTH 12 0
BBX 11 11 0 -1
BITMAP
1100
1100
2200
2480
6880
A100
2200
2240
2420
2FE0
2420
ENDCHAR
STARTCHAR U_4EEC
ENCODING 20204
SWIDTH 1000 0
DWIDTH 12 0
BBX 11 11 0 -1
BITMAP
2800
25E0
2820
2820
6820
A820
2820
2820
2820
2820
2860
ENDCHAR
STARTCHAR U_4EED
ENCODING 20205
SWIDTH 1000 0
DWIDTH 12 0
BBX 11 11 0 -1
BITMAP
1000
1FC0
2240
6240
B240
2E40
2340
24E0
2440
2840
31C0
ENDCHAR
STARTCHAR U_4EEE
ENCODING 20206
SWIDTH 1000 0
DWIDTH 12 0
BBX 11 11 0 -1
BITMAP
1060
1780
2400
2400
67E0
A620
2520
2540
2880
2940
3220
ENDCHAR
STARTCHAR U_4EEF
ENCODING 20207
SWIDTH 1000 0
DWIDTH 12 0
BBX 11 11 0 -1
BITMAP
1200
1200
2280
2A40
6A20
AA20
3240
2240
2080
2300
2C00
ENDCHAR
STARTCHAR U_4EF0
ENCODING 20208
SWIDTH 1000 0
DWIDTH 12 0
BBX 11 11 0 -1
BITMAP
1200
1DE0
2920
2920
6920
A920
2B20
2D20
2960
2100
2100
ENDCHAR
STARTCHAR U_4EF1
ENCODING 20209
SWIDTH 1000 0
DWIDTH 12 0
BBX 11 11 0 -1
BITMAP
1200
1200
2500
2880
7260
A100
2FC0
2080
2080
2100
2200
ENDCHAR
STARTCHAR U_4EF2
ENCODING 20210
SWIDTH 1000 0
DWIDTH 12 0
BBX 11 11 0 -1
BITMAP
1100
1100
2100
2FE0
6920
A920
2FE0
2920
2100
2100
2100
ENDCHAR
STARTCHAR U_4EF3
ENCODING 20211
SWIDTH 1000 0
DWIDTH 12 0
BBX 11 11 0 -1
BITMAP
1480
1480
2480
24A0
67C0
A480
2480
2480
25A0
26A0
2460
ENDCHAR
STARTCHAR U_4EF4
ENCODING 20212
SWIDTH 1000 0
DWIDTH 12 0
BBX 11 11 0 -1
BITMAP
17E0
1420
2420
27E0
6420
A420
27E0
2420
2420
2820
30E0
ENDCHAR
STARTCHAR U_4EF5
ENCODING 20213
SWIDTH 1000 0
DWIDTH 12 0
BBX 11 11 0 -1
BITMAP
1400
1400
27C0
2900
6100
A100
3FE0
2100
2100
2100
2100
ENDCHAR
STARTCHAR U_4EF6
ENCODING 20214
SWIDTH 1000 0
DWIDTH 12 0
BBX 11 11 0 -1
BITMAP
1100
1500
2500
2FC0
7100
A100
2FE0
2100
2100
2100
2100
ENDCHAR
STARTCHAR U_4EF7
ENCODING 20215
SWIDTH 1000 0
DWIDTH 12 0
BBX 11 11 0 -1
BITMAP
1200
1300
2480
3860
6480
A480
2480
2480
2480
2880
3080
ENDCHAR
STARTCHAR U_4EF8
ENCODING 20216
SWIDTH 1000 0
DWIDTH 12 0
BBX 11 11 0 -1
BITMAP
1060
1780
1100
2100
2FE0
6100
A300
2280
2480
2840
3020
ENDCHAR
STARTCHAR U_4EF9
ENCODING 20217
SWIDTH 1000 0
DWIDTH 12 0
BBX 11 11 0 -1
BITMAP
1100
1100
2FE0
2100
6100
A7C0
2100
2100
3FE0
2100
2100
ENDCHAR
STARTCHAR U_4EFA
ENCODING 20218
SWIDTH 1000 0
DWIDTH 12 0
BBX 11 11 0 -1
BITMAP
0400
0400
0A00
1100
2080
DF60
1000
1F00
1000
1000
1F80
ENDCHAR
STARTCHAR U_4EFB
ENCODING 20219
SWIDTH 1000 0
DWIDTH 12 0
BBX 11 11 0 -1
BITMAP
10C0
1700
2100
2100
6100
AFE0
2100
2100
2100
2100
27C0
ENDCHAR
STARTCHAR U_4EFC
ENCODING 20220
SWIDTH 1000 0
DWIDTH 12 0
BBX 11 11 0 -1
BITMAP
1000
1000
2FE0
2100
2100
67C0
A100
2100
2100
2100
2FE0
ENDCHAR
STARTCHAR U_4EFD
ENCODING 20221
SWIDTH 1000 0
DWIDTH 12 0
BBX 11 11 0 -1
BITMAP
1080
1280
2240
2440
6820
A7C0
2240
2240
2240
2440
28C0
ENDCHAR
STARTCHAR U_4EFE
ENCODING 20222
SWIDTH 1000 0
DWIDTH 12 0
BBX 11 11 0 -1
BITMAP
1000
17E0
2200
2240
67E0
A440
2440
2FC0
2080
2080
2FE0
ENDCHAR
STARTCHAR U_4EFF
ENCODING 20223
SWIDTH 1000 0
DWIDTH 12 0
BBX 11 11 0 -1
BITMAP
1200
1100
2FE0
2200
6200
A3C0
2240
2240
2440
2440
2980
ENDCHAR
STARTCHAR U_4F00
ENCODING 20224
SWIDTH 1000 0
DWIDTH 12 0
BBX 11 11 0 -1
BITMAP
1080
1480
2480
2440
6940
A920
3200
2200
2440
2FE0
2420
ENDCHAR
STARTCHAR U_4F01
ENCODING 20225
SWIDTH 1000 0
DWIDTH 12 0
BBX 11 11 0 -1
BITMAP
0400
0600
0900
1080
2260
C200
1380
1200
1200
1200
7FE0
ENDCHAR
STARTCHAR U_4F02
ENCODING 20226
SWIDTH 1000 0
DWIDTH 12 0
BBX 11 11 0 -1
BITMAP
1100
1100
2FE0
2100
6FE0
A920
2920
2920
2960
2100
2100
ENDCHAR
STARTCHAR U_4F03
ENCODING 20227
SWIDTH 1000 0
DWIDTH 12 0
BBX 11 11 0 -1
BITMAP
1000
17C0
2080
2300
6100
AFE0
2140
2100
2100
2500
2200
ENDCHAR
STARTCHAR U_4F04
ENCODING 20228
SWIDTH 1000 0
DWIDTH 12 0
BBX 11 11 0 -1
BITMAP
17C0
1140
2140
2FC0
6900
A900
2FE0
2120
21A0
2140
2100
ENDCHAR
STARTCHAR U_4F05
ENCODING 20229
SWIDTH 1000 0
DWIDTH 12 0
BBX 11 11 0 -1
BITMAP
1100
1100
2FE0
2100
6920
A920
2FE0
2100
2120
2120
20E0
ENDCHAR
STARTCHAR U_4F06
ENCODING 20230
SWIDTH 1000 0
DWIDTH 12 0
BBX 11 11 0 -1
BITMAP
1400
1400
27E0
2AA0
62A0
A520
2520
2920
2220
2420
20C0
ENDCHAR
STARTCHAR U_4F07
ENCODING 20231
SWIDTH 1000 0
DWIDTH 12 0
BBX 11 11 0 -1
BITMAP
1000
1780
2480
2480
6860
B780
2480
2280
2100
2280
2C60
ENDCHAR
STARTCHAR U_4F08
ENCODING 20232
SWIDTH 1000 0
DWIDTH 12 0
BBX 11 11 0 -1
BITMAP
1100
1080
2080
2200
6200
AA40
2A20
3220
2240
2240
21C0
ENDCHAR
STARTCHAR U_4F09
ENCODING 20233
SWIDTH 1000 0
DWIDTH 12 0
BBX 11 11 0 -1
BITMAP
1200
1100
2FE0
2000
6780
A480
2480
2480
24A0
28A0
3060
ENDCHAR
STARTCHAR U_4F0A
ENCODING 20234
SWIDTH 1000 0
DWIDTH 12 0
BBX 11 11 0 -1
BITMAP
1000
17C0
2240
2240
6FE0
A240
2240
2FC0
2200
2400
2800
ENDCHAR
STARTCHAR U_4F0B
ENCODING 20235
SWIDTH 1000 0
DWIDTH 12 0
BBX 11 11 0 -1
BITMAP
1000
17C0
2240
2280
62E0
A220
2220
2540
2480
2940
3220
ENDCHAR
STARTCHAR U_4F0C
ENCODING 20236
SWIDTH 1000 0
DWIDTH 12 0
BBX 11 11 0 -1
BITMAP
1000
17E0
2400
25C0
6540
A540
25C0
2500
2920
2920
30E0
ENDCHAR
STARTCHAR U_4F0D
ENCODING 20237
SWIDTH 1000 0
DWIDTH 12 0
BBX 11 11 0 -1
BITMAP
1000
1FE0
2200
2200
6200
AFC0
2240
2440
2440
2440
3FE0
ENDCHAR
STARTCHAR U_4F0E
ENCODING 20238
SWIDTH 1000 0
DWIDTH 12 0
BBX 11 11 0 -1
BITMAP
1100
1100
2FE0
2100
6100
AFE0
2440
2280
2100
2280
2C60
ENDCHAR
STARTCHAR U_4F0F
ENCODING 20239
SWIDTH 1000 0
DWIDTH 12 0
BBX 11 11 0 -1
BITMAP
1100
1140
2120
2100
6FE0
A100
2100
2280
2280
2440
2820
ENDCHAR
STARTCHAR U_4F10
ENCODING 20240
SWIDTH 1000 0
DWIDTH 12 0
BBX 11 11 0 -1
BITMAP
1280
1240
2200
23E0
7E20
A240
2280
2100
22A0
2C60
2020
ENDCHAR
STARTCHAR U_4F11
ENCODING 20241
SWIDTH 1000 0
DWIDTH 12 0
BBX 11 11 0 -1
BITMAP
1100
1100
2100
3FE0
6100
A380
2380
2540
2920
3100
2100
ENDCHAR
STARTCHAR U_4F12
ENCODING 20242
SWIDTH 1000 0
DWIDTH 12 0
BBX 11 11 0 -1
BITMAP
10C0
1700
2400
2400
67E0
A480
2480
2480
2480
2880
3080
ENDCHAR
STARTCHAR U_4F13
ENCODING 20243
SWIDTH 1000 0
DWIDTH 12 0
BBX 11 11 0 -1
BITMAP
1000
1FE0
2080
2100
6100
A340
2520
2920
2100
2100
2100
ENDCHAR
STARTCHAR U_4F14
ENCODING 20244
SWIDTH 1000 0
DWIDTH 12 0
BBX 11 11 0 -1
BITMAP
1000
1FE0
2820
2820
6780
A480
2480
2480
24A0
28A0
3060
ENDCHAR
STARTCHAR U_4F15
ENCODING 20245
SWIDTH 1000 0
DWIDTH 12 0
BBX 11 11 0 -1
BITMAP
1100
1100
27C0
2100
6100
AFE0
2100
2280
2280
2440
2820
ENDCHAR
STARTCHAR U_4F16
ENCODING 20246
SWIDTH 1000 0
DWIDTH 12 0
BBX 11 11 0 -1
BITMAP
1200
1200
2FE0
2200
6200
A3C0
2640
2540
2880
3340
2C20
ENDCHAR
STARTCHAR U_4F17
ENCODING 20247
SWIDTH 1000 0
DWIDTH 12 0
BBX 11 11 0 -1
BITMAP
0400
0400
0A00
1100
2080
D160
1100
1100
2A80
4440
8820
ENDCHAR
STARTCHAR U_4F18
ENCODING 20248
SWIDTH 1000 0
DWIDTH 12 0
BBX 11 11 0 -1
BITMAP
1240
1220
2200
3FE0
6200
A300
2300
2500
2520
2920
30E0
ENDCHAR
STARTCHAR U_4F19
ENCODING 20249
SWIDTH 1000 0
DWIDTH 12 0
BBX 11 11 0 -1
BITMAP
1100
1100
2120
2540
6580
A900
2100
2100
2280
2440
2820
ENDCHAR
STARTCHAR U_4F1A
ENCODING 20250
SWIDTH 1000 0
DWIDTH 12 0
BBX 11 11 0 -1
BITMAP
0400
0400
0A00
1100
2080
DF60
0000
7FC0
0800
1080
3FC0
ENDCHAR
STARTCHAR U_4F1B
ENCODING 20251
SWIDTH 1000 0
DWIDTH 12 0
BBX 11 11 0 -1
BITMAP
2FE0
2800
2840
2A40
6980
A880
2940
2A20
2800
2800
2FE0
ENDCHAR
STARTCHAR U_4F1C
ENCODING 20252
SWIDTH 1000 0
DWIDTH 12 0
BBX 11 11 0 -1
BITMAP
1200
1200
2F80
6280
A4A0
38E0
2100
2FE0
2100
2100
2100
ENDCHAR
STARTCHAR U_4F1D
ENCODING 20253
SWIDTH 1000 0
DWIDTH 12 0
BBX 11 11 0 -1
BITMAP
1000
17C0
2000
2000
6FE0
A100
2200
2200
2440
2FE0
2420
ENDCHAR
STARTCHAR U_4F1E
ENCODING 20254
SWIDTH 1000 0
DWIDTH 12 0
BBX 11 11 0 -1
BITMAP
0400
0400
0A00
3180
C460
2480
1500
0400
FFE0
0400
0400
ENDCHAR
STARTCHAR U_4F1F
ENCODING 20255
SWIDTH 1000 0
DWIDTH 12 0
BBX 11 11 0 -1
BITMAP
1100
1100
2FE0
2100
67C0
A100
2FE0
2120
2120
2160
2100
ENDCHAR
STARTCHAR U_4F20
ENCODING 20256
SWIDTH 1000 0
DWIDTH 12 0
BBX 11 11 0 -1
BITMAP
1100
1100
27E0
2100
6FE0
A200
27E0
2040
2280
2100
2080
ENDCHAR
STARTCHAR U_4F21
ENCODING 20257
SWIDTH 1000 0
DWIDTH 12 0
BBX 11 11 0 -1
BITMAP
1200
1200
2FE0
2400
6500
A900
2FE0
2100
2FE0
2100
2100
ENDCHAR
STARTCHAR U_4F22
ENCODING 20258
SWIDTH 1000 0
DWIDTH 12 0
BBX 11 11 0 -1
BITMAP
1000
1FE0
2480
2880
6FE0
A080
2180
2280
2480
3880
2180
ENDCHAR
STARTCHAR U_4F23
ENCODING 20259
SWIDTH 1000 0
DWIDTH 12 0
BBX 11 11 0 -1
BITMAP
1000
1FC0
2840
2A40
6A40
AA40
2300
2500
2520
2920
30E0
ENDCHAR
STARTCHAR U_4F24
ENCODING 20260
SWIDTH 1000 0
DWIDTH 12 0
BBX 11 11 0 -1
BITMAP
1400
1400
27E0
2900
6100
A7E0
2120
2120
2220
24A0
2840
ENDCHAR
STARTCHAR U_4F25
ENCODING 20261
SWIDTH 1000 0
DWIDTH 12 0
BBX 11 11 0 -1
BITMAP
1400
1480
2500
2600
6400
BFC0
2500
2500
2480
2540
2620
ENDCHAR
STARTCHAR U_4F26
ENCODING 20262
SWIDTH 1000 0
DWIDTH 12 0
BBX 11 11 0 -1
BITMAP
1100
1100
2280
2440
6820
A240
2280
2300
2220
2220
21E0
ENDCHAR
STARTCHAR U_4F27
ENCODING 20263
SWIDTH 1000 0
DWIDTH 12 0
BBX 11 11 0 -1
BITMAP
1100
1100
2280
2440
6FE0
B440
2440
25C0
2420
2420
23E0
ENDCHAR
STARTCHAR U_4F28
ENCODING 20264
SWIDTH 1000 0
DWIDTH 12 0
BBX 11 11 0 -1
BITMAP
1200
1200
27E0
2820
7220
A120
20A0
2320
2C20
2020
20C0
ENDCHAR
STARTCHAR U_4F29
ENCODING 20265
SWIDTH 1000 0
DWIDTH 12 0
BBX 11 11 0 -1
BITMAP
1200
1100
2000
2FE0
2440
6440
A280
2280
2100
2280
2C60
ENDCHAR
STARTCHAR U_4F2A
ENCODING 20266
SWIDTH 1000 0
DWIDTH 12 0
BBX 11 11 0 -1
BITMAP
1900
1500
2100
2FE0
6220
A320
22A0
24A0
2420
2820
30C0
ENDCHAR
STARTCHAR U_4F2B
ENCODING 20267
SWIDTH 1000 0
DWIDTH 12 0
BBX 11 11 0 -1
BITMAP
1200
1100
2FE0
2820
7040
A000
2000
2000
2000
2FE0
2000
ENDCHAR
STARTCHAR U_4F2C
ENCODING 20268
SWIDTH 1000 0
DWIDTH 12 0
BBX 11 11 0 -1
BITMAP
17E0
1420
2420
2420
67E0
A480
2480
2480
2840
2840
3020
ENDCHAR
STARTCHAR U_4F2D
ENCODING 20269
SWIDTH 1000 0
DWIDTH 12 0
BBX 11 11 0 -1
BITMAP
1200
1100
2FE0
2200
6440
AF80
2100
2200
2440
2FE0
2420
ENDCHAR
STARTCHAR U_4F2E
ENCODING 20270
SWIDTH 1000 0
DWIDTH 12 0
BBX 11 11 0 -1
BITMAP
2800
29E0
48A0
FEA0
4AA0
52A0
52A0
4A40
4440
4AA0
5120
ENDCHAR
STARTCHAR U_4F2F
ENCODING 20271
SWIDTH 1000 0
DWIDTH 12 0
BBX 11 11 0 -1
BITMAP
1100
1200
27E0
2420
6420
A7E0
2420
2420
2420
27E0
2420
ENDCHAR
STARTCHAR U_4F30
ENCODING 20272
SWIDTH 1000 0
DWIDTH 12 0
BBX 11 11 0 -1
BITMAP
1100
1100
2100
2FE0
6100
A100
27C0
2440
2440
27C0
2440
ENDCHAR
STARTCHAR U_4F31
ENCODING 20273
SWIDTH 1000 0
DWIDTH 12 0
BBX 11 11 0 -1
BITMAP
1200
1200
2500
6880
B240
2220
2A80
2A40
3240
2240
2600
ENDCHAR
STARTCHAR U_4F32
ENCODING 20274
SWIDTH 1000 0
DWIDTH 12 0
BBX 11 11 0 -1
BITMAP
17E0
1420
2420
27E0
6400
A520
2540
2580
2920
2920
30E0
ENDCHAR
STARTCHAR U_4F33
ENCODING 20275
SWIDTH 1000 0
DWIDTH 12 0
BBX 11 11 0 -1
BITMAP
1540
1540
2540
2FE0
6540
A540
2540
25C0
2540
2400
27E0
ENDCHAR
STARTCHAR U_4F34
ENCODING 20276
SWIDTH 1000 0
DWIDTH 12 0
BBX 11 11 0 -1
BITMAP
1100
1920
2540
2100
67C0
A100
2100
2FE0
2100
2100
2100
ENDCHAR
STARTCHAR U_4F35
ENCODING 20277
SWIDTH 1000 0
DWIDTH 12 0
BBX 11 11 0 -1
BITMAP
2000
2FE0
4AA0
CAA0
4AA0
4AA0
4AA0
4CE0
4820
4820
4FE0
ENDCHAR
STARTCHAR U_4F36
ENCODING 20278
SWIDTH 1000 0
DWIDTH 12 0
BBX 11 11 0 -1
BITMAP
1100
1100
2280
2440
7920
A080
2FE0
2040
2280
2100
2080
ENDCHAR
STARTCHAR U_4F37
ENCODING 20279
SWIDTH 1000 0
DWIDTH 12 0
BBX 11 11 0 -1
BITMAP
2100
2100
4100
CFE0
4920
4920
4FE0
4920
4920
4920
4FE0
ENDCHAR
STARTCHAR U_4F38
ENCODING 20280
SWIDTH 1000 0
DWIDTH 12 0
BBX 11 11 0 -1
BITMAP
1100
1100
2FE0
2920
6FE0
A920
2920
2FE0
2920
2100
2100
ENDCHAR
STARTCHAR U_4F39
ENCODING 20281
SWIDTH 1000 0
DWIDTH 12 0
BBX 11 11 0 -1
BITMAP
1000
17C0
2440
6440
A7C0
2440
2440
27C0
2440
2440
2FE0
ENDCHAR
STARTCHAR U_4F3A
ENCODING 20282
SWIDTH 1000 0
DWIDTH 12 0
BBX 11 11 0 -1
BITMAP
1000
17E0
2020
2FA0
6020
A720
2520
2520
2720
2020
20E0
ENDCHAR
STARTCHAR U_4F3B
ENCODING 20283
SWIDTH 1000 0
DWIDTH 12 0
BBX 11 11 0 -1
BITMAP
1000
1FE0
2100
2920
6520
A540
2FE0
2100
2100
2100
2100
ENDCHAR
STARTCHAR U_4F3C
ENCODING 20284
SWIDTH 1000 0
DWIDTH 12 0
BBX 11 11 0 -1
BITMAP
2040
2A40
2940
2940
6840
A840
2840
2A80
2CC0
3120
2620
ENDCHAR
STARTCHAR U_4F3D
ENCODING 20285
SWIDTH 1000 0
DWIDTH 12 0
BBX 11 11 0 -1
BITMAP
2800
2800
3EE0
2AA0
6AA0
AAA0
2AA0
2AA0
2AA0
32E0
26A0
ENDCHAR
STARTCHAR U_4F3E
ENCODING 20286
SWIDTH 1000 0
DWIDTH 12 0
BBX 11 11 0 -1
BITMAP
1000
1FE0
2080
2100
6300
A540
2920
2120
2100
2100
2FE0
ENDCHAR
STARTCHAR U_4F3F
ENCODING 20287
SWIDTH 1000 0
DWIDTH 12 0
BBX 11 11 0 -1
BITMAP
1000
17C0
2440
2440
6440
A7C0
2000
2280
2240
2420
2820
ENDCHAR
STARTCHAR U_4F40
ENCODING 20288
SWIDTH 1000 0
DWIDTH 12 0
BBX 11 11 0 -1
BITMAP
2000
2FC0
4840
C840
4FC0
4800
4FE0
4820
4820
4820
4FE0
ENDCHAR
STARTCHAR U_4F41
ENCODING 20289
SWIDTH 1000 0
DWIDTH 12 0
BBX 11 11 0 -1
BITMAP
1100
1100
2200
2440
6FE0
A020
27C0
2440
2440
27C0
2440
ENDCHAR
STARTCHAR U_4F42
ENCODING 20290
SWIDTH 1000 0
DWIDTH 12 0
BBX 11 11 0 -1
BITMAP
2000
2FE0
4100
C100
4100
49C0
4900
4900
4900
4900
5FE0
ENDCHAR
STARTCHAR U_4F43
ENCODING 20291
SWIDTH 1000 0
DWIDTH 12 0
BBX 11 11 0 -1
BITMAP
1000
1FE0
2920
2920
6920
AFE0
2920
2920
2920
2FE0
2820
ENDCHAR
STARTCHAR U_4F44
ENCODING 20292
SWIDTH 1000 0
DWIDTH 12 0
BBX 11 11 0 -1
BITMAP
2880
2880
4880
FFE0
4880
4880
4F80
4880
4880
4880
4F80
ENDCHAR
STARTCHAR U_4F45
ENCODING 20293
SWIDTH 1000 0
DWIDTH 12 0
BBX 11 11 0 -1
BITMAP
2200
2200
5FC0
C200
4200
7FE0
4200
4700
4A80
5240
6220
ENDCHAR
STARTCHAR U_4F46
ENCODING 20294
SWIDTH 1000 0
DWIDTH 12 0
BBX 11 11 0 -1
BITMAP
1000
17C0
2440
2440
67C0
A440
2440
27C0
2000
2000
2FE0
ENDCHAR
STARTCHAR U_4F47
ENCODING 20295
SWIDTH 1000 0
DWIDTH 12 0
BBX 11 11 0 -1
BITMAP
1100
1080
2FE0
2820
6000
AFE0
2100
2100
2100
2100
2700
ENDCHAR
STARTCHAR U_4F48
ENCODING 20296
SWIDTH 1000 0
DWIDTH 12 0
BBX 11 11 0 -1
BITMAP
2200
2200
3FE0
2500
6900
AFE0
3920
2920
2960
2100
2100
ENDCHAR
STARTCHAR U_4F49
ENCODING 20297
SWIDTH 1000 0
DWIDTH 12 0
BBX 11 11 0 -1
BITMAP
1100
1100
2FE0
2100
6100
BFE0
2200
2280
2440
2FE0
2420
ENDCHAR
STARTCHAR U_4F4A
ENCODING 20298
SWIDTH 1000 0
DWIDTH 12 0
BBX 11 11 0 -1
BITMAP
2100
2100
4FE0
C920
4920
4FC0
4A40
4A80
5100
5280
6C60
ENDCHAR
STARTCHAR U_4F4B
ENCODING 20299
SWIDTH 1000 0
DWIDTH 12 0
BBX 11 11 0 -1
BITMAP
2000
2FE0
4220
C220
4540
4880
57E0
4420
4420
4420
47E0
ENDCHAR
STARTCHAR U_4F4C
ENCODING 20300
SWIDTH 1000 0
DWIDTH 12 0
BBX 11 11 0 -1
BITMAP
2480
2480
4480
54A0
D7C0
5480
5480
5480
56A0
54A0
5860
ENDCHAR
STARTCHAR U_4F4D
ENCODING 20301
SWIDTH 1000 0
DWIDTH 12 0
BBX 11 11 0 -1
BITMAP
1200
1100
2000
2FE0
6000
A440
2240
2280
2080
2100
2FE0
ENDCHAR
STARTCHAR U_4F4E
ENCODING 20302
SWIDTH 1000 0
DWIDTH 12 0
BBX 11 11 0 -1
BITMAP
10C0
1F00
2900
2900
6900
AFE0
2900
2920
2AA0
2D60
28A0
ENDCHAR
STARTCHAR U_4F4F
ENCODING 20303
SWIDTH 1000 0
DWIDTH 12 0
BBX 11 11 0 -1
BITMAP
1200
1100
2FE0
2100
6100
A100
27C0
2100
2100
2100
2FE0
ENDCHAR
STARTCHAR U_4F50
ENCODING 20304
SWIDTH 1000 0
DWIDTH 12 0
BBX 11 11 0 -1
BITMAP
1200
1200
2FE0
2200
6400
A7C0
2900
3100
2100
2100
2FE0
ENDCHAR
STARTCHAR U_4F51
ENCODING 20305
SWIDTH 1000 0
DWIDTH 12 0
BBX 11 11 0 -1
BITMAP
1100
1100
2FE0
2200
6400
AFE0
3420
2420
2420
27E0
2420
ENDCHAR
STARTCHAR U_4F52
ENCODING 20306
SWIDTH 1000 0
DWIDTH 12 0
BBX 11 11 0 -1
BITMAP
1100
1100
27C0
2540
6540
A540
2FE0
2100
2280
2440
2820
ENDCHAR
STARTCHAR U_4F53
ENCODING 20307
SWIDTH 1000 0
DWIDTH 12 0
BBX 11 11 0 -1
BITMAP
2200
2200
5FC0
4200
C700
4A80
5240
6220
4F80
4200
4200
ENDCHAR
STARTCHAR U_4F54
ENCODING 20308
SWIDTH 1000 0
DWIDTH 12 0
BBX 11 11 0 -1
BITMAP
1100
1100
21E0
2100
6100
A7C0
2440
2440
2440
27C0
2440
ENDCHAR
STARTCHAR U_4F55
ENCODING 20309
SWIDTH 1000 0
DWIDTH 12 0
BBX 11 11 0 -1
BITMAP
1000
1FE0
2040
2040
6F40
A940
2940
2F40
2040
2040
21C0
ENDCHAR
STARTCHAR U_4F56
ENCODING 20310
SWIDTH 1000 0
DWIDTH 12 0
BBX 11 11 0 -1
BITMAP
2240
2140
2480
2480
6C80
B540
3520
2620
2440
2C40
33C0
ENDCHAR
STARTCHAR U_4F57
ENCODING 20311
SWIDTH 1000 0
DWIDTH 12 0
BBX 11 11 0 -1
BITMAP
1200
1100
2FE0
2820
6400
A480
2500
2600
2420
2420
23E0
ENDCHAR
STARTCHAR U_4F58
ENCODING 20312
SWIDTH 1000 0
DWIDTH 12 0
BBX 11 11 0 -1
BITMAP
0400
0A00
3180
C060
1F00
0000
3FC0
0400
1500
2480
CC60
ENDCHAR
STARTCHAR U_4F59
ENCODING 20313
SWIDTH 1000 0
DWIDTH 12 0
BBX 11 11 0 -1
BITMAP
0400
0A00
3180
C060
1F00
0400
7FC0
1500
2480
4440
0C00
ENDCHAR
STARTCHAR U_4F5A
ENCODING 20314
SWIDTH 1000 0
DWIDTH 12 0
BBX 11 11 0 -1
BITMAP
1100
1500
2500
2FC0
6900
A100
2FE0
2100
2280
2440
2820
ENDCHAR
STARTCHAR U_4F5B
ENCODING 20315
SWIDTH 1000 0
DWIDTH 12 0
BBX 10 11 0 -1
BITMAP
2500
5FC0
C540
5FC0
5500
5500
5FC0
4540
4540
4940
5180
ENDCHAR
STARTCHAR U_4F5C
ENCODING 20316
SWIDTH 1000 0
DWIDTH 12 0
BBX 11 11 0 -1
BITMAP
1400
1400
27E0
2A00
7200
A3C0
2200
2200
23E0
2200
2200
ENDCHAR
STARTCHAR U_4F5D
ENCODING 20317
SWIDTH 1000 0
DWIDTH 12 0
BBX 11 11 0 -1
BITMAP
1400
1400
27E0
2820
7720
A520
2520
2720
2020
2020
20E0
ENDCHAR
STARTCHAR U_4F5E
ENCODING 20318
SWIDTH 1000 0
DWIDTH 12 0
BBX 11 11 0 -1
BITMAP
1000
17C0
2000
2FE0
6100
A100
3FE0
2240
2480
2380
2E60
ENDCHAR
STARTCHAR U_4F5F
ENCODING 20319
SWIDTH 1000 0
DWIDTH 12 0
BBX 11 11 0 -1
BITMAP
1200
17C0
2440
2A80
6100
A280
2C60
2300
2080
2600
2180
ENDCHAR
STARTCHAR U_4F60
ENCODING 20320
SWIDTH 1000 0
DWIDTH 12 0
BBX 11 11 0 -1
BITMAP
1400
1400
27E0
2820
6100
A540
2540
2920
3120
2120
2300
ENDCHAR
STARTCHAR U_4F61
ENCODING 20321
SWIDTH 1000 0
DWIDTH 12 0
BBX 11 11 0 -1
BITMAP
1100
1100
2280
2440
6920
A100
2920
2920
2920
2FE0
2820
ENDCHAR
STARTCHAR U_4F62
ENCODING 20322
SWIDTH 1000 0
DWIDTH 12 0
BBX 11 11 0 -1
BITMAP
17E0
1400
2400
27C0
6440
A440
27C0
2400
2400
2400
27E0
ENDCHAR
STARTCHAR U_4F63
ENCODING 20323
SWIDTH 1000 0
DWIDTH 12 0
BBX 11 11 0 -1
BITMAP
2FE0
2920
2920
2FE0
6920
A920
2FE0
2920
2920
2920
3060
ENDCHAR
STARTCHAR U_4F64
ENCODING 20324
SWIDTH 1000 0
DWIDTH 12 0
BBX 11 11 0 -1
BITMAP
1FE0
1400
2400
2780
6480
A680
2580
2880
2AA0
2CA0
2860
ENDCHAR
STARTCHAR U_4F65
ENCODING 20325
SWIDTH 1000 0
DWIDTH 12 0
BBX 10 11 1 -1
BITMAP
0800
0C00
1200
2100
DEC0
0000
0880
4480
2500
2100
FFC0
ENDCHAR
STARTCHAR U_4F66
ENCODING 20326
SWIDTH 1000 0
DWIDTH 12 0
BBX 11 11 0 -1
BITMAP
2000
2FE0
4200
C200
4400
47E0
4C20
5420
4420
47E0
4420
ENDCHAR
STARTCHAR U_4F67
ENCODING 20327
SWIDTH 1000 0
DWIDTH 12 0
BBX 11 11 0 -1
BITMAP
1200
1200
23C0
2200
6200
AFE0
2200
2300
2280
2240
2200
ENDCHAR
STARTCHAR U_4F68
ENCODING 20328
SWIDTH 1000 0
DWIDTH 12 0
BBX 11 11 0 -1
BITMAP
2800
2800
4FC0
D040
6F40
4940
4F40
48C0
4800
4820
47E0
ENDCHAR
STARTCHAR U_4F69
ENCODING 20329
SWIDTH 1000 0
DWIDTH 12 0
BBX 11 11 0 -1
BITMAP
5FC0
5040
57C0
5140
D7C0
5540
5540
5540
55C0
5540
6120
ENDCHAR
STARTCHAR U_4F6A
ENCODING 20330
SWIDTH 1000 0
DWIDTH 12 0
BBX 11 11 0 -1
BITMAP
1000
1FE0
2820
2BA0
6AA0
AAA0
2BA0
2AA0
2820
2FE0
2820
ENDCHAR
STARTCHAR U_4F6B
ENCODING 20331
SWIDTH 1000 0
DWIDTH 12 0
BBX 11 11 0 -1
BITMAP
1400
17C0
2440
2680
6900
A280
2460
3FC0
2440
2440
27C0
ENDCHAR
STARTCHAR U_4F6C
ENCODING 20332
SWIDTH 1000 0
DWIDTH 12 0
BBX 11 11 0 -1
BITMAP
1200
1FA0
2240
2280
7FE0
A200
24C0
2F00
3420
2420
23E0
ENDCHAR
STARTCHAR U_4F6D
ENCODING 20333
SWIDTH 1000 0
DWIDTH 12 0
BBX 11 11 0 -1
BITMAP
2400
27C0
4C40
D280
4100
4680
5960
47C0
4500
5FE0
4100
ENDCHAR
STARTCHAR U_4F6E
ENCODING 20334
SWIDTH 1000 0
DWIDTH 12 0
BBX 11 11 0 -1
BITMAP
1200
1200
2500
2880
7040
AFA0
2000
2FC0
2840
2840
2FC0
ENDCHAR
STARTCHAR U_4F6F
ENCODING 20335
SWIDTH 1000 0
DWIDTH 12 0
BBX 11 11 0 -1
BITMAP
1440
1280
2FE0
2100
6100
A7C0
2100
2100
2FE0
2100
2100
ENDCHAR
STARTCHAR U_4F70
ENCODING 20336
SWIDTH 1000 0
DWIDTH 12 0
BBX 11 11 0 -1
BITMAP
1FE0
1100
2200
27C0
6440
A440
27C0
2440
2440
27C0
2440
ENDCHAR
STARTCHAR U_4F71
ENCODING 20337
SWIDTH 1000 0
DWIDTH 12 0
BBX 11 11 0 -1
BITMAP
0400
0A00
1100
2080
5F60
8000
7FC0
0200
1380
1200
FFE0
ENDCHAR
STARTCHAR U_4F72
ENCODING 20338
SWIDTH 1000 0
DWIDTH 12 0
BBX 10 11 0 -1
BITMAP
2400
27C0
4840
D880
6500
4200
47C0
4C40
7440
4440
47C0
ENDCHAR
STARTCHAR U_4F73
ENCODING 20339
SWIDTH 1000 0
DWIDTH 12 0
BBX 11 11 0 -1
BITMAP
1100
17C0
2100
2100
6FE0
A100
2100
27C0
2100
2100
2FE0
ENDCHAR
STARTCHAR U_4F74
ENCODING 20340
SWIDTH 1000 0
DWIDTH 12 0
BBX 11 11 0 -1
BITMAP
1FE0
1440
2440
27C0
6440
A440
27C0
2440
2440
3FE0
2040
ENDCHAR
STARTCHAR U_4F75
ENCODING 20341
SWIDTH 1000 0
DWIDTH 12 0
BBX 11 11 0 -1
BITMAP
2840
2480
2FE0
2480
6480
A480
3FE0
2480
2480
2880
3080
ENDCHAR
STARTCHAR U_4F76
ENCODING 20342
SWIDTH 1000 0
DWIDTH 12 0
BBX 11 11 0 -1
BITMAP
1100
1100
2FE0
2100
6100
A7C0
2000
27C0
2440
2440
27C0
ENDCHAR
STARTCHAR U_4F77
ENCODING 20343
SWIDTH 1000 0
DWIDTH 12 0
BBX 11 11 0 -1
BITMAP
17C0
1440
27C0
2440
67C0
A500
2520
24C0
2480
2540
2620
ENDCHAR
STARTCHAR U_4F78
ENCODING 20344
SWIDTH 1000 0
DWIDTH 12 0
BBX 11 11 0 -1
BITMAP
10C0
1700
2100
2100
6FE0
A100
2100
27C0
2440
2440
27C0
ENDCHAR
STARTCHAR U_4F79
ENCODING 20345
SWIDTH 1000 0
DWIDTH 12 0
BBX 11 11 0 -1
BITMAP
1200
13C0
2480
27E0
6C00
A5C0
2540
25C0
2520
2920
30E0
ENDCHAR
STARTCHAR U_4F7A
ENCODING 20346
SWIDTH 1000 0
DWIDTH 12 0
BBX 11 11 0 -1
BITMAP
1100
1280
2440
2820
67C0
A100
2100
27C0
2100
2100
2FE0
ENDCHAR
STARTCHAR U_4F7B
ENCODING 20347
SWIDTH 1000 0
DWIDTH 12 0
BBX 11 11 0 -1
BITMAP
1280
1280
2AA0
26C0
6280
A2C0
26A0
2A80
22A0
24A0
2860
ENDCHAR
STARTCHAR U_4F7C
ENCODING 20348
SWIDTH 1000 0
DWIDTH 12 0
BBX 11 11 0 -1
BITMAP
1200
1100
2FE0
2280
6440
AAA0
3280
2280
2100
2280
3C60
ENDCHAR
STARTCHAR U_4F7D
ENCODING 20349
SWIDTH 1000 0
DWIDTH 12 0
BBX 11 11 0 -1
BITMAP
1100
1100
29E0
2620
60A0
A480
3880
2880
2940
2220
2420
ENDCHAR
STARTCHAR U_4F7E
ENCODING 20350
SWIDTH 1000 0
DWIDTH 12 0
BBX 11 11 0 -1
BITMAP
1280
1440
2820
27C0
6440
A7C0
2440
27C0
2440
2440
25C0
ENDCHAR
STARTCHAR U_4F7F
ENCODING 20351
SWIDTH 1000 0
DWIDTH 12 0
BBX 11 11 0 -1
BITMAP
1100
1FE0
2100
2FE0
6920
AFE0
2900
2500
2200
2580
3860
ENDCHAR
STARTCHAR U_4F80
ENCODING 20352
SWIDTH 1000 0
DWIDTH 12 0
BBX 11 11 0 -1
BITMAP
3F20
2AA0
2AA0
6AA0
BFA0
2AA0
2AA0
2AA0
2A20
3220
22E0
ENDCHAR
STARTCHAR U_4F81
ENCODING 20353
SWIDTH 1000 0
DWIDTH 12 0
BBX 11 11 0 -1
BITMAP
1500
1500
27E0
2900
6100
AFE0
2280
2280
22A0
24A0
2860
ENDCHAR
STARTCHAR U_4F82
ENCODING 20354
SWIDTH 1000 0
DWIDTH 12 0
BBX 11 11 0 -1
BITMAP
1100
1FE0
2800
28C0
6B00
A900
29E0
2F00
2920
2920
30E0
ENDCHAR
STARTCHAR U_4F83
ENCODING 20355
SWIDTH 1000 0
DWIDTH 12 0
BBX 11 11 0 -1
BITMAP
27C0
2440
2440
27C0
6000
A540
2540
2540
2540
2940
3160
ENDCHAR
STARTCHAR U_4F84
ENCODING 20356
SWIDTH 1000 0
DWIDTH 12 0
BBX 11 11 0 -1
BITMAP
1000
1FE0
2200
2440
6FE0
A120
2100
27C0
2100
2100
2FE0
ENDCHAR
STARTCHAR U_4F85
ENCODING 20357
SWIDTH 1000 0
DWIDTH 12 0
BBX 11 11 0 -1
BITMAP
1100
1FE0
2200
2440
6F80
A120
2240
2C80
2140
2220
2C20
ENDCHAR
STARTCHAR U_4F86
ENCODING 20358
SWIDTH 1000 0
DWIDTH 12 0
BBX 11 11 0 -1
BITMAP
0400
FFE0
0400
2480
2480
5540
8E20
1500
2480
C460
0400
ENDCHAR
STARTCHAR U_4F87
ENCODING 20359
SWIDTH 1000 0
DWIDTH 12 0
BBX 11 11 0 -1
BITMAP
1100
1FE0
2100
27E0
6120
AFE0
2900
2FE0
2120
2280
2C60
ENDCHAR
STARTCHAR U_4F88
ENCODING 20360
SWIDTH 1000 0
DWIDTH 12 0
BBX 11 11 0 -1
BITMAP
1200
17C0
2480
2B00
6200
ADE0
2220
2540
2880
2100
2E00
ENDCHAR
STARTCHAR U_4F89
ENCODING 20361
SWIDTH 1000 0
DWIDTH 12 0
BBX 11 11 0 -1
BITMAP
1100
1FE0
2440
2BA0
7000
AFE0
2200
27C0
2040
2040
2180
ENDCHAR
STARTCHAR U_4F8A
ENCODING 20362
SWIDTH 1000 0
DWIDTH 12 0
BBX 11 11 0 -1
BITMAP
1100
1100
2920
6540
A100
2FE0
2280
2280
22A0
24A0
2860
ENDCHAR
STARTCHAR U_4F8B
ENCODING 20363
SWIDTH 1000 0
DWIDTH 12 0
BBX 11 11 0 -1
BITMAP
3F20
2420
24A0
6BA0
69A0
BAA0
26A0
22A0
2420
2820
3060
ENDCHAR
STARTCHAR U_4F8C
ENCODING 20364
SWIDTH 1000 0
DWIDTH 12 0
BBX 11 11 0 -1
BITMAP
0400
0A00
1500
2280
DF60
0200
3FC0
0000
FFE0
1080
3FC0
ENDCHAR
STARTCHAR U_4F8D
ENCODING 20365
SWIDTH 1000 0
DWIDTH 12 0
BBX 11 11 0 -1
BITMAP
1100
17C0
2100
2100
6FE0
A040
2FE0
2440
2240
2040
21C0
ENDCHAR
STARTCHAR U_4F8E
ENCODING 20366
SWIDTH 1000 0
DWIDTH 12 0
BBX 11 11 0 -1
BITMAP
2200
2A40
4A40
C280
5FE0
4200
4700
4B00
4A80
5240
6220
ENDCHAR
STARTCHAR U_4F8F
ENCODING 20367
SWIDTH 1000 0
DWIDTH 12 0
BBX 11 11 0 -1
BITMAP
1100
1500
27C0
2900
6100
AFE0
2380
2540
2940
3120
2100
ENDCHAR
STARTCHAR U_4F90
ENCODING 20368
SWIDTH 1000 0
DWIDTH 12 0
BBX 11 11 0 -1
BITMAP
1100
1200
2FE0
2AA0
6AA0
AAA0
2AA0
2AA0
2AA0
2AA0
3FE0
ENDCHAR
STARTCHAR U_4F91
ENCODING 20369
SWIDTH 1000 0
DWIDTH 12 0
BBX 11 11 0 -1
BITMAP
1200
1FE0
2200
27C0
6440
AFC0
3440
27C0
2440
2440
24C0
ENDCHAR
STARTCHAR U_4F92
ENCODING 20370
SWIDTH 1000 0
DWIDTH 12 0
BBX 11 11 0 -1
BITMAP
1100
1FE0
2920
2100
6FE0
A240
2440
2280
2180
2240
2C20
ENDCHAR
STARTCHAR U_4F93
ENCODING 20371
SWIDTH 1000 0
DWIDTH 12 0
BBX 11 11 0 -1
BITMAP
0900
0FC0
1140
3FE0
5140
97C0
1100
17C0
1100
1FE0
1100
ENDCHAR
STARTCHAR U_4F94
ENCODING 20372
SWIDTH 1000 0
DWIDTH 12 0
BBX 11 11 0 -1
BITMAP
1200
1480
2FC0
2140
6900
AFC0
3100
2FE0
2100
2100
2100
ENDCHAR
STARTCHAR U_4F95
ENCODING 20373
SWIDTH 1000 0
DWIDTH 12 0
BBX 11 11 0 -1
BITMAP
1FE0
1100
2200
2FE0
6AA0
AAA0
2AA0
2AA0
2AA0
2AA0
2860
ENDCHAR
STARTCHAR U_4F96
ENCODING 20374
SWIDTH 1000 0
DWIDTH 12 0
BBX 11 11 0 -1
BITMAP
0400
0400
0A00
3180
DF60
0000
7FC0
4A40
7FC0
4A40
4AC0
ENDCHAR
STARTCHAR U_4F97
ENCODING 20375
SWIDTH 1000 0
DWIDTH 12 0
BBX 11 11 0 -1
BITMAP
2FE0
2820
2BA0
6820
ABA0
2AA0
2AA0
2BA0
2820
2820
28E0
ENDCHAR
STARTCHAR U_4F98
ENCODING 20376
SWIDTH 1000 0
DWIDTH 12 0
BBX 11 11 0 -1
BITMAP
1200
1100
2FE0
2820
2180
6600
A2C0
2F00
2220
2220
21E0
ENDCHAR
STARTCHAR U_4F99
ENCODING 20377
SWIDTH 1000 0
DWIDTH 12 0
BBX 11 11 0 -1
BITMAP
1100
1140
2120
2FE0
6100
AF00
2500
2480
26A0
3860
2020
ENDCHAR
STARTCHAR U_4F9A
ENCODING 20378
SWIDTH 1000 0
DWIDTH 12 0
BBX 11 11 0 -1
BITMAP
1400
1400
27E0
2820
77A0
A4A0
27A0
24A0
27A0
2020
2060
ENDCHAR
STARTCHAR U_4F9B
ENCODING 20379
SWIDTH 1000 0
DWIDTH 12 0
BBX 11 11 0 -1
BITMAP
1480
1480
2480
2FE0
6480
A480
3FE0
2000
2480
2840
3020
ENDCHAR
STARTCHAR U_4F9C
ENCODING 20380
SWIDTH 1000 0
DWIDTH 12 0
BBX 11 11 0 -1
BITMAP
1200
17C0
2440
2640
6540
BFE0
2440
2640
2540
2840
30C0
ENDCHAR
STARTCHAR U_4F9D
ENCODING 20381
SWIDTH 1000 0
DWIDTH 12 0
BBX 11 11 0 -1
BITMAP
1200
1100
2FE0
2100
6320
A540
2C80
3480
2440
2520
2620
ENDCHAR
STARTCHAR U_4F9E
ENCODING 20382
SWIDTH 1000 0
DWIDTH 12 0
BBX 11 11 0 -1
BITMAP
2400
24E0
3EA0
6AA0
AAA0
2AA0
2AA0
24A0
24E0
2AA0
3000
ENDCHAR
STARTCHAR U_4F9F
ENCODING 20383
SWIDTH 1000 0
DWIDTH 12 0
BBX 11 11 0 -1
BITMAP
1100
1100
2FE0
2200
65E0
AC40
37E0
2440
2440
2440
24C0
ENDCHAR
STARTCHAR U_4FA0
ENCODING 20384
SWIDTH 1000 0
DWIDTH 12 0
BBX 11 11 0 -1
BITMAP
1100
1100
2FE0
2920
6540
A100
2FE0
2100
2280
2440
2820
ENDCHAR
STARTCHAR U_4FA1
ENCODING 20385
SWIDTH 1000 0
DWIDTH 12 0
BBX 11 11 0 -1
BITMAP
1000
1000
2FE0
6280
A280
2FE0
2AA0
2AA0
2AA0
2AA0
2FE0
ENDCHAR
STARTCHAR U_4FA2
ENCODING 20386
SWIDTH 1000 0
DWIDTH 12 0
BBX 11 11 0 -1
BITMAP
1000
1FE0
2200
6FC0
AA40
2FC0
2A40
3FE0
2840
2840
29C0
ENDCHAR
STARTCHAR U_4FA3
ENCODING 20387
SWIDTH 1000 0
DWIDTH 12 0
BBX 11 11 0 -1
BITMAP
1000
17C0
2440
2440
67C0
A000
2FE0
2820
2820
2FE0
2820
ENDCHAR
STARTCHAR U_4FA4
ENCODING 20388
SWIDTH 1000 0
DWIDTH 12 0
BBX 11 11 0 -1
BITMAP
1200
1740
2280
7FE0
A100
23C0
2600
2BC0
2040
2040
2180
ENDCHAR
STARTCHAR U_4FA5
ENCODING 20389
SWIDTH 1000 0
DWIDTH 12 0
BBX 11 11 0 -1
BITMAP
1200
1FE0
2240
22A0
6120
AEE0
2000
3FE0
2480
28A0
3060
ENDCHAR
STARTCHAR U_4FA6
ENCODING 20390
SWIDTH 1000 0
DWIDTH 12 0
BBX 11 11 0 -1
BITMAP
1100
11E0
2100
27E0
6420
A520
2520
2520
2280
2240
2C20
ENDCHAR
STARTCHAR U_4FA7
ENCODING 20391
SWIDTH 1000 0
DWIDTH 12 0
BBX 11 11 0 -1
BITMAP
2020
3F20
5120
55A0
D5A0
55A0
55A0
55A0
4A20
4920
5160
ENDCHAR
STARTCHAR U_4FA8
ENCODING 20392
SWIDTH 1000 0
DWIDTH 12 0
BBX 11 11 0 -1
BITMAP
20C0
2F00
4200
5FE0
C480
4840
54A0
4480
4480
4880
5080
ENDCHAR
STARTCHAR U_4FA9
ENCODING 20393
SWIDTH 1000 0
DWIDTH 12 0
BBX 11 11 0 -1
BITMAP
1100
1280
2440
2820
67C0
A000
2FE0
2100
2200
2440
2FA0
ENDCHAR
STARTCHAR U_4FAA
ENCODING 20394
SWIDTH 1000 0
DWIDTH 12 0
BBX 11 11 0 -1
BITMAP
1100
1FE0
2440
2280
6100
A680
3860
2480
2480
2880
3080
ENDCHAR
STARTCHAR U_4FAB
ENCODING 20395
SWIDTH 1000 0
DWIDTH 12 0
BBX 11 11 0 -1
BITMAP
1200
1100
2FE0
6400
A7C0
2200
2FE0
2480
2300
22C0
2C40
ENDCHAR
STARTCHAR U_4FAC
ENCODING 20396
SWIDTH 1000 0
DWIDTH 12 0
BBX 11 11 0 -1
BITMAP
1100
1100
2FE0
2920
6200
A340
2480
2C80
3440
2540
2620
ENDCHAR
STARTCHAR U_4FAD
ENCODING 20397
SWIDTH 1000 0
DWIDTH 12 0
BBX 11 11 0 -1
BITMAP
1000
17C0
2440
67C0
A500
2880
2B40
3120
2400
2300
2100
ENDCHAR
STARTCHAR U_4FAE
ENCODING 20398
SWIDTH 1000 0
DWIDTH 12 0
BBX 11 11 0 -1
BITMAP
17E0
1800
27E0
2520
64A0
AFE0
2520
24A0
2FE0
2020
20C0
ENDCHAR
STARTCHAR U_4FAF
ENCODING 20399
SWIDTH 1000 0
DWIDTH 12 0
BBX 11 11 0 -1
BITMAP
1780
1080
2FE0
2400
67C0
A900
2100
2FE0
2280
2440
2820
ENDCHAR
STARTCHAR U_4FB0
ENCODING 20400
SWIDTH 1000 0
DWIDTH 12 0
BBX 11 11 0 -1
BITMAP
1000
17C0
2240
6FE0
A240
27C0
2200
27C0
2C40
37C0
2440
ENDCHAR
STARTCHAR U_4FB1
ENCODING 20401
SWIDTH 1000 0
DWIDTH 12 0
BBX 11 11 0 -1
BITMAP
1000
17C0
2440
67C0
A000
2FE0
2100
27C0
2100
2100
2FE0
ENDCHAR
STARTCHAR U_4FB2
ENCODING 20402
SWIDTH 1000 0
DWIDTH 12 0
BBX 11 11 0 -1
BITMAP
2FE0
2800
4BC0
4800
CFE0
4A80
4AA0
4A40
4A40
53A0
6220
ENDCHAR
STARTCHAR U_4FB3
ENCODING 20403
SWIDTH 1000 0
DWIDTH 12 0
BBX 11 11 0 -1
BITMAP
1100
1540
2540
2540
6BA0
A100
27C0
2100
2100
2100
2FE0
ENDCHAR
STARTCHAR U_4FB4
ENCODING 20404
SWIDTH 1000 0
DWIDTH 12 0
BBX 11 11 0 -1
BITMAP
0400
0600
0900
1080
2F60
C040
7D40
1540
7D40
2640
F8C0
ENDCHAR
STARTCHAR U_4FB5
ENCODING 20405
SWIDTH 1000 0
DWIDTH 12 0
BBX 11 11 0 -1
BITMAP
2FC0
2040
4FC0
4040
DFC0
4000
5FE0
54A0
4300
4480
5860
ENDCHAR
STARTCHAR U_4FB6
ENCODING 20406
SWIDTH 1000 0
DWIDTH 12 0
BBX 11 11 0 -1
BITMAP
17C0
1440
2440
27C0
6100
A200
2FE0
2820
2820
2FE0
2820
ENDCHAR
STARTCHAR U_4FB7
ENCODING 20407
SWIDTH 1000 0
DWIDTH 12 0
BBX 11 11 0 -1
BITMAP
2FE0
2820
2FE0
2800
6FE0
A820
2BA0
2AA0
2BA0
2820
30C0
ENDCHAR
STARTCHAR U_4FB8
ENCODING 20408
SWIDTH 1000 0
DWIDTH 12 0
BBX 11 11 0 -1
BITMAP
1000
1FE0
2000
67C0
A440
27C0
2000
2440
2240
2280
2FE0
ENDCHAR
STARTCHAR U_4FB9
ENCODING 20409
SWIDTH 1000 0
DWIDTH 12 0
BBX 11 11 0 -1
BITMAP
2060
2D80
2480
6480
ABE0
2C80
3480
2FE0
2400
2A00
31E0
ENDCHAR
STARTCHAR U_4FBA
ENCODING 20410
SWIDTH 1000 0
DWIDTH 12 0
BBX 11 11 0 -1
BITMAP
2100
2920
2FE0
6100
A280
2540
38A0
27C0
2040
2080
2100
ENDCHAR
STARTCHAR U_4FBB
ENCODING 20411
SWIDTH 1000 0
DWIDTH 12 0
BBX 11 11 0 -1
BITMAP
1440
1280
2FC0
2840
6840
AFC0
2280
2280
22A0
24A0
2860
ENDCHAR
STARTCHAR U_4FBC
ENCODING 20412
SWIDTH 1000 0
DWIDTH 12 0
BBX 11 11 0 -1
BITMAP
1100
17C0
2100
6FE0
A820
27C0
2080
2FE0
2100
2100
2700
ENDCHAR
STARTCHAR U_4FBD
ENCODING 20413
SWIDTH 1000 0
DWIDTH 12 0
BBX 11 11 0 -1
BITMAP
17C0
1540
27C0
6540
A7C0
2100
2FE0
2220
2220
2420
28C0
ENDCHAR
STARTCHAR U_4FBE
ENCODING 20414
SWIDTH 1000 0
DWIDTH 12 0
BBX 11 11 0 -1
BITMAP
1200
1740
2280
6FE0
A100
2FC0
2480
3FE0
2100
2100
2300
ENDCHAR
STARTCHAR U_4FBF
ENCODING 20415
SWIDTH 1000 0
DWIDTH 12 0
BBX 11 11 0 -1
BITMAP
2FE0
2100
2FE0
2920
6FE0
A920
2FE0
2500
2200
2500
38E0
ENDCHAR
STARTCHAR U_4FC0
ENCODING 20416
SWIDTH 1000 0
DWIDTH 12 0
BBX 11 11 0 -1
BITMAP
10C0
1F20
2A20
2540
6100
AFE0
2240
2440
2380
2140
2E20
ENDCHAR
STARTCHAR U_4FC1
ENCODING 20417
SWIDTH 1000 0
DWIDTH 12 0
BBX 11 11 0 -1
BITMAP
13C0
1240
2A40
2BC0
6800
AFC0
2140
3FE0
2100
2280
2C60
ENDCHAR
STARTCHAR U_4FC2
ENCODING 20418
SWIDTH 1000 0
DWIDTH 12 0
BBX 11 11 0 -1
BITMAP
20C0
2F00
2200
6480
AF00
2240
2FE0
2120
2540
2920
3320
ENDCHAR
STARTCHAR U_4FC3
ENCODING 20419
SWIDTH 1000 0
DWIDTH 12 0
BBX 11 11 0 -1
BITMAP
17C0
1440
2440
27C0
6100
A100
25C0
2500
2500
2B00
30E0
ENDCHAR
STARTCHAR U_4FC4
ENCODING 20420
SWIDTH 1000 0
DWIDTH 12 0
BBX 11 11 0 -1
BITMAP
1340
1D20
2500
3FE0
6500
A720
2D40
3480
25A0
26A0
2C60
ENDCHAR
STARTCHAR U_4FC5
ENCODING 20421
SWIDTH 1000 0
DWIDTH 12 0
BBX 11 11 0 -1
BITMAP
1180
1140
2FE0
2100
6920
A540
2380
2540
3920
2120
2700
ENDCHAR
STARTCHAR U_4FC6
ENCODING 20422
SWIDTH 1000 0
DWIDTH 12 0
BBX 11 11 0 -1
BITMAP
1200
1300
2480
6840
B7A0
2100
2FE0
2100
2540
2920
2300
ENDCHAR
STARTCHAR U_4FC7
ENCODING 20423
SWIDTH 1000 0
DWIDTH 12 0
BBX 11 11 0 -1
BITMAP
2400
3BE0
4880
5480
C480
4FE0
5480
6480
4480
5480
4BE0
ENDCHAR
STARTCHAR U_4FC8
ENCODING 20424
SWIDTH 1000 0
DWIDTH 12 0
BBX 11 11 0 -1
BITMAP
1100
1500
27C0
6900
B100
2FE0
2000
27C0
2440
2440
27C0
ENDCHAR
STARTCHAR U_4FC9
ENCODING 20425
SWIDTH 1000 0
DWIDTH 12 0
BBX 11 11 0 -1
BITMAP
1FE0
1100
2FC0
2240
6240
BFE0
2000
27C0
2440
2440
27C0
ENDCHAR
STARTCHAR U_4FCA
ENCODING 20426
SWIDTH 1000 0
DWIDTH 12 0
BBX 11 11 0 -1
BITMAP
1200
1440
2FE0
22A0
6640
ABE0
2440
2A80
2100
2280
2C60
ENDCHAR
STARTCHAR U_4FCB
ENCODING 20427
SWIDTH 1000 0
DWIDTH 12 0
BBX 11 11 0 -1
BITMAP
1780
1480
2780
2000
6FC0
A940
2940
2FC0
2800
2820
27E0
ENDCHAR
STARTCHAR U_4FCC
ENCODING 20428
SWIDTH 1000 0
DWIDTH 12 0
BBX 11 11 0 -1
BITMAP
1280
1240
2FE0
6200
AFC0
2A40
2FC0
2A40
2FC0
2A40
2AC0
ENDCHAR
STARTCHAR U_4FCD
ENCODING 20429
SWIDTH 1000 0
DWIDTH 12 0
BBX 11 11 0 -1
BITMAP
1200
1100
2FC0
2840
6FC0
A840
2FC0
2920
28C0
2A40
2C20
ENDCHAR
STARTCHAR U_4FCE
ENCODING 20430
SWIDTH 1000 0
DWIDTH 12 0
BBX 11 11 0 -1
BITMAP
23C0
2240
2240
53C0
8A40
2240
23C0
2240
5240
8A40
0FE0
ENDCHAR
STARTCHAR U_4FCF
ENCODING 20431
SWIDTH 1000 0
DWIDTH 12 0
BBX 11 11 0 -1
BITMAP
1080
14A0
22C0
2080
67E0
A420
27E0
2420
27E0
2420
2460
ENDCHAR
STARTCHAR U_4FD0
ENCODING 20432
SWIDTH 1000 0
DWIDTH 12 0
BBX 11 11 0 -1
BITMAP
2320
3C20
24A0
24A0
7FA0
A4A0
2EA0
35A0
24A0
2420
2460
ENDCHAR
STARTCHAR U_4FD1
ENCODING 20433
SWIDTH 1000 0
DWIDTH 12 0
BBX 11 11 0 -1
BITMAP
2FC0
2280
2100
2FE0
6920
AFE0
2920
2FE0
2920
2920
2860
ENDCHAR
STARTCHAR U_4FD2
ENCODING 20434
SWIDTH 1000 0
DWIDTH 12 0
BBX 11 11 0 -1
BITMAP
1200
1100
2FE0
2820
6380
A000
2FE0
2280
2280
24A0
2860
ENDCHAR
STARTCHAR U_4FD3
ENCODING 20435
SWIDTH 1000 0
DWIDTH 12 0
BBX 11 11 0 -1
BITMAP
1FE0
1540
2540
2A80
6540
A540
2FE0
2100
2100
2100
2FE0
ENDCHAR
STARTCHAR U_4FD4
ENCODING 20436
SWIDTH 1000 0
DWIDTH 12 0
BBX 11 11 0 -1
BITMAP
17C0
1440
27C0
2440
67C0
A440
27C0
2280
22A0
24A0
2860
ENDCHAR
STARTCHAR U_4FD5
ENCODING 20437
SWIDTH 1000 0
DWIDTH 12 0
BBX 11 11 0 -1
BITMAP
1200
1100
2FE0
6820
A100
2FE0
2300
2580
2540
3920
2100
ENDCHAR
STARTCHAR U_4FD6
ENCODING 20438
SWIDTH 1000 0
DWIDTH 12 0
BBX 11 11 0 -1
BITMAP
1FE0
1100
2380
2540
6920
A100
27C0
2440
2440
27C0
2440
ENDCHAR
STARTCHAR U_4FD7
ENCODING 20439
SWIDTH 1000 0
DWIDTH 12 0
BBX 11 11 0 -1
BITMAP
1280
1440
2920
2180
6240
A420
3FC0
2440
2440
27C0
2440
ENDCHAR
STARTCHAR U_4FD8
ENCODING 20440
SWIDTH 1000 0
DWIDTH 12 0
BBX 11 11 0 -1
BITMAP
10C0
1F20
2A20
2540
6FE0
A080
2100
3FE0
2100
2100
2700
ENDCHAR
STARTCHAR U_4FD9
ENCODING 20441
SWIDTH 1000 0
DWIDTH 12 0
BBX 11 11 0 -1
BITMAP
1660
1180
2660
2100
6FE0
A500
2FE0
3520
2520
2560
2100
ENDCHAR
STARTCHAR U_4FDA
ENCODING 20442
SWIDTH 1000 0
DWIDTH 12 0
BBX 11 11 0 -1
BITMAP
2000
2FE0
2920
2FE0
6920
AFE0
2100
2FE0
2100
2100
3FE0
ENDCHAR
STARTCHAR U_4FDB
ENCODING 20443
SWIDTH 1000 0
DWIDTH 12 0
BBX 11 11 0 -1
BITMAP
1400
17C0
2880
3FE0
6920
A920
2FE0
2280
22A0
24A0
2860
ENDCHAR
ENDFONT
